G04 Layer_Color=128*
%FSTAX24Y24*%
%MOIN*%
G70*
G01*
G75*
%ADD10R,0.0433X0.0433*%
%ADD14R,0.0236X0.0354*%
%ADD20R,0.0550X0.0433*%
%ADD43R,0.0680X0.0453*%
%ADD44R,0.0240X0.0600*%
D10*
X04545Y032846D02*
D03*
Y033594D02*
D03*
X02601Y033414D02*
D03*
Y032666D02*
D03*
X02516Y033404D02*
D03*
Y032656D02*
D03*
D14*
X042915Y02055D02*
D03*
X0422Y02055D02*
D03*
X035265Y0205D02*
D03*
X03455Y0205D02*
D03*
X027565Y0205D02*
D03*
X02685Y0205D02*
D03*
X027565Y02665D02*
D03*
X02685Y02665D02*
D03*
X035265Y02665D02*
D03*
X03455Y02665D02*
D03*
X042915Y02665D02*
D03*
X0422Y02665D02*
D03*
D20*
X08275Y02815D02*
D03*
Y027363D02*
D03*
X082Y02815D02*
D03*
Y027363D02*
D03*
X08126Y02815D02*
D03*
Y027363D02*
D03*
X08275Y025863D02*
D03*
Y02665D02*
D03*
X082Y025863D02*
D03*
Y02665D02*
D03*
X08125Y025863D02*
D03*
Y02665D02*
D03*
X0863Y027363D02*
D03*
Y02815D02*
D03*
X08555Y027363D02*
D03*
Y02815D02*
D03*
X0848Y027363D02*
D03*
Y02815D02*
D03*
X0863Y02665D02*
D03*
Y025863D02*
D03*
X08555Y02665D02*
D03*
Y025863D02*
D03*
X0848Y02665D02*
D03*
Y025863D02*
D03*
D43*
X028791Y020512D02*
D03*
Y022328D02*
D03*
X036509Y028576D02*
D03*
Y02676D02*
D03*
X028809Y026711D02*
D03*
Y028528D02*
D03*
X044141Y028538D02*
D03*
Y026722D02*
D03*
X036509Y022339D02*
D03*
Y020522D02*
D03*
X044141Y022339D02*
D03*
Y020522D02*
D03*
D44*
X04255Y022464D02*
D03*
X042176Y021336D02*
D03*
X042924D02*
D03*
X0349Y022464D02*
D03*
X034526Y021336D02*
D03*
X035274D02*
D03*
X0272Y022364D02*
D03*
X026826Y021236D02*
D03*
X027574D02*
D03*
X0272Y028614D02*
D03*
X026826Y027486D02*
D03*
X027574D02*
D03*
X0349Y028614D02*
D03*
X034526Y027486D02*
D03*
X035274D02*
D03*
X04255Y028614D02*
D03*
X042176Y027486D02*
D03*
X042924D02*
D03*
M02*
