G04 Layer_Physical_Order=1*
G04 Layer_Color=255*
%FSTAX24Y24*%
%MOIN*%
G70*
G01*
G75*
%ADD10R,0.0433X0.0433*%
%ADD11R,0.0433X0.0433*%
%ADD12O,0.0236X0.0669*%
%ADD13R,0.0354X0.0236*%
%ADD14R,0.0236X0.0354*%
%ADD15R,0.0709X0.0630*%
%ADD16R,0.1500X0.1299*%
%ADD17R,0.1500X0.1260*%
%ADD18R,0.0433X0.0550*%
%ADD19R,0.1102X0.0394*%
%ADD20R,0.0550X0.0433*%
%ADD21O,0.0236X0.1161*%
%ADD22R,0.0236X0.0571*%
%ADD23R,0.0600X0.0240*%
%ADD24R,0.0453X0.0680*%
%ADD25C,0.0100*%
%ADD26C,0.0500*%
%ADD27C,0.0600*%
%ADD28C,0.0200*%
%ADD29C,0.0150*%
%ADD30C,0.0630*%
%ADD31R,0.0630X0.0630*%
%ADD32C,0.1378*%
%ADD33R,0.0787X0.0984*%
%ADD34O,0.1600X0.1000*%
%ADD35O,0.1000X0.1600*%
%ADD36C,0.0512*%
%ADD37R,0.0512X0.0512*%
%ADD38R,0.0630X0.0630*%
%ADD39C,0.0532*%
%ADD40R,0.0532X0.0532*%
%ADD41C,0.0984*%
%ADD42C,0.0240*%
G36*
X08645Y04325D02*
X07935Y04325D01*
Y044297D01*
X079558D01*
X080223Y043632D01*
X080273Y043599D01*
X080331Y043587D01*
X08259D01*
X082649Y043599D01*
X082698Y043632D01*
X083758Y044692D01*
X083791Y044741D01*
X083803Y0448D01*
Y045432D01*
X083868D01*
Y046203D01*
X083432D01*
Y045432D01*
X083497D01*
Y044863D01*
X082527Y043893D01*
X082225D01*
X082205Y043939D01*
X083258Y044992D01*
X083291Y045041D01*
X083303Y0451D01*
Y045432D01*
X083368D01*
Y046203D01*
X083303D01*
Y0465D01*
X083291Y046559D01*
X083258Y046608D01*
X082608Y047258D01*
X082559Y047291D01*
X0825Y047303D01*
X081591D01*
Y047467D01*
X081074D01*
X081055Y047513D01*
X08109Y047548D01*
X0823D01*
X082339Y047556D01*
X082372Y047578D01*
X082382Y047593D01*
X082432Y047577D01*
Y047577D01*
X082868D01*
Y048348D01*
X082803D01*
Y04844D01*
X082791Y048499D01*
X082758Y048548D01*
X082103Y049203D01*
Y049349D01*
X082267D01*
Y049983D01*
X081633D01*
Y049349D01*
X081797D01*
Y04914D01*
X081809Y049081D01*
X081842Y049032D01*
X082475Y048398D01*
X082455Y048348D01*
X082432D01*
Y048348D01*
X082382Y048339D01*
X082368Y048348D01*
Y048348D01*
X082319D01*
X0823Y048352D01*
X082142D01*
X08151Y048984D01*
Y049015D01*
X081479D01*
X081452Y049042D01*
Y0499D01*
X081444Y049939D01*
X081422Y049972D01*
X081417Y049976D01*
Y049983D01*
X081406D01*
X081389Y049994D01*
X08135Y050002D01*
X07935D01*
X07935Y05375D01*
X08161D01*
X081656Y053742D01*
X081656Y0537D01*
Y052558D01*
X08249D01*
X082922Y052126D01*
Y050788D01*
X082864Y050731D01*
X082483D01*
Y050567D01*
X082267D01*
Y050731D01*
X081633D01*
Y050567D01*
X081417D01*
Y050731D01*
X080783D01*
Y050097D01*
X081417D01*
Y050261D01*
X081633D01*
Y050097D01*
X082267D01*
Y050261D01*
X082483D01*
Y050097D01*
X083046D01*
X083067Y050047D01*
X083002Y049983D01*
X082483D01*
Y049349D01*
X083117D01*
Y049664D01*
X083287Y049835D01*
X083333Y049816D01*
Y049349D01*
X083497D01*
Y048903D01*
X083042Y048448D01*
X083009Y048399D01*
X082999Y048348D01*
X082932D01*
Y047577D01*
X083368D01*
Y048342D01*
X083758Y048732D01*
X083791Y048781D01*
X083803Y04884D01*
Y049349D01*
X083967D01*
Y049983D01*
X0835D01*
X083481Y050029D01*
X08355Y050097D01*
X083967D01*
Y050261D01*
X084183D01*
Y050097D01*
X084817D01*
Y050731D01*
X084183D01*
Y050567D01*
X083967D01*
Y050731D01*
X083586D01*
X083528Y050788D01*
Y052276D01*
X08381Y052558D01*
X084644D01*
Y0537D01*
X084644Y053742D01*
X08469Y05375D01*
X08645D01*
X08645Y04325D01*
D02*
G37*
G36*
X0787Y04995D02*
X07875Y0499D01*
X08135D01*
Y04945D01*
Y049D01*
X0821Y04825D01*
X0823D01*
Y04765D01*
X08085D01*
Y04945D01*
X0777D01*
Y05375D01*
X0787D01*
Y04995D01*
D02*
G37*
G36*
X080748Y047783D02*
X080432Y047467D01*
X080209D01*
Y047122D01*
X079856Y046768D01*
X079812Y046702D01*
X079796Y046624D01*
Y04575D01*
X079812Y045672D01*
X079856Y045606D01*
X080106Y045356D01*
X080172Y045312D01*
X080209Y045304D01*
Y045183D01*
X080843D01*
Y045817D01*
X080222D01*
X080204Y045834D01*
Y04654D01*
X080498Y046833D01*
X080843D01*
Y0473D01*
X080911Y047369D01*
X080957Y04735D01*
Y046833D01*
X081591D01*
Y046997D01*
X082437D01*
X082997Y046437D01*
Y046203D01*
X082932D01*
Y045432D01*
X082997D01*
Y045163D01*
X081927Y044093D01*
X081825D01*
X081805Y044139D01*
X082758Y045092D01*
X082791Y045141D01*
X082803Y0452D01*
Y045432D01*
X082868D01*
Y046203D01*
X082802D01*
X082791Y046259D01*
X082758Y046308D01*
X082608Y046458D01*
X082559Y046491D01*
X0825Y046503D01*
X081591D01*
Y046667D01*
X080957D01*
Y046033D01*
X081591D01*
Y046197D01*
X081932D01*
Y04597D01*
X081591D01*
X081533Y045958D01*
X081483Y045925D01*
X081374Y045817D01*
X080957D01*
Y045183D01*
X081591D01*
Y0456D01*
X081655Y045664D01*
X081932D01*
Y045432D01*
X081997D01*
Y045263D01*
X081227Y044493D01*
X080643D01*
X079978Y045158D01*
X079929Y045191D01*
X07987Y045203D01*
X07935D01*
X07935Y049348D01*
X080748D01*
Y047783D01*
D02*
G37*
G36*
X0853Y04145D02*
X0835D01*
Y04285D01*
X0853D01*
Y04145D01*
D02*
G37*
G36*
X0843Y03951D02*
X08352D01*
X08351Y03952D01*
Y04118D01*
X0843D01*
Y03951D01*
D02*
G37*
G36*
X08528Y03938D02*
X08684D01*
Y03883D01*
X08594D01*
X08574Y03863D01*
Y03723D01*
X0845Y03723D01*
X0845Y03874D01*
Y04116D01*
X08528D01*
Y03938D01*
D02*
G37*
G36*
X0899Y0185D02*
X08757D01*
X087527Y018517D01*
Y018582D01*
X087985D01*
X088044Y018594D01*
X088093Y018627D01*
X089208Y019742D01*
X089241Y019791D01*
X089253Y01985D01*
Y0243D01*
X089241Y024359D01*
X089208Y024408D01*
X088985Y024632D01*
X089001Y024686D01*
X089036Y024693D01*
X089109Y024741D01*
X089157Y024814D01*
X089174Y0249D01*
X089173Y024907D01*
X089258Y024992D01*
X089291Y025041D01*
X089303Y0251D01*
Y0265D01*
X089291Y026559D01*
X089258Y026608D01*
X088753Y027113D01*
Y02865D01*
X088743Y0287D01*
X088745Y028705D01*
X088763Y028725D01*
X088781Y028739D01*
X08885Y028726D01*
X088936Y028743D01*
X089009Y028791D01*
X089057Y028864D01*
X089074Y02895D01*
X089073Y028957D01*
X089558Y029442D01*
X089591Y029491D01*
X089603Y02955D01*
Y0323D01*
X089591Y032359D01*
X089558Y032408D01*
X089073Y032893D01*
X089024Y032926D01*
X088965Y032938D01*
X088657D01*
X088617Y032962D01*
Y033398D01*
X087563D01*
Y032962D01*
X087687D01*
Y03268D01*
X087699Y032621D01*
X087732Y032572D01*
X087872Y032432D01*
X087922Y032398D01*
X08798Y032387D01*
X088736D01*
X089097Y032026D01*
Y029863D01*
X088857Y029623D01*
X08885Y029624D01*
X088764Y029607D01*
X088691Y029559D01*
X088643Y029486D01*
X088626Y0294D01*
X088643Y029314D01*
X088691Y029241D01*
X088749Y029203D01*
X088751Y029198D01*
Y029152D01*
X088749Y029147D01*
X088691Y029109D01*
X088643Y029036D01*
X088626Y02895D01*
X088635Y028902D01*
X088589Y028877D01*
X087858Y029608D01*
X087808Y029641D01*
X08775Y029653D01*
X087633D01*
Y029777D01*
X08761D01*
Y030525D01*
X086977D01*
Y029994D01*
X086761Y029777D01*
X086482D01*
Y029653D01*
X085833D01*
Y029777D01*
X085397D01*
Y029223D01*
Y028673D01*
X085397D01*
Y02847D01*
X085393Y028467D01*
X085345Y028395D01*
X085328Y02831D01*
Y027877D01*
X085345Y027792D01*
X085393Y02772D01*
X085465Y027671D01*
X08555Y027654D01*
X085635Y027671D01*
X085707Y02772D01*
X085755Y027792D01*
X085772Y027877D01*
Y02831D01*
X085755Y028395D01*
X085707Y028467D01*
X085703Y02847D01*
Y028673D01*
X085833D01*
Y028952D01*
X085848Y028967D01*
X087128D01*
X087176Y02895D01*
X087193Y028864D01*
X087241Y028791D01*
X087314Y028743D01*
X0874Y028726D01*
X087448Y028735D01*
X087473Y028689D01*
X087442Y028658D01*
X087409Y028609D01*
X087397Y02855D01*
Y02847D01*
X087393Y028467D01*
X087345Y028395D01*
X087328Y02831D01*
Y027877D01*
X087345Y027792D01*
X087393Y02772D01*
X087465Y027671D01*
X08755Y027654D01*
X087635Y027671D01*
X087707Y02772D01*
X087755Y027792D01*
X087772Y027877D01*
Y02831D01*
X087755Y028395D01*
X087707Y028467D01*
X087728Y028512D01*
X087763Y028547D01*
X087922D01*
X087938Y028497D01*
X087893Y028467D01*
X087845Y028395D01*
X087828Y02831D01*
Y027877D01*
X087845Y027792D01*
X087893Y02772D01*
X087897Y027717D01*
Y0268D01*
X087909Y026741D01*
X087942Y026692D01*
X088297Y026337D01*
Y026136D01*
X088247Y026121D01*
X088207Y02618D01*
X088135Y026228D01*
X08805Y026245D01*
X087965Y026228D01*
X087893Y02618D01*
X087845Y026108D01*
X087828Y026023D01*
Y02559D01*
X087845Y025505D01*
X087893Y025433D01*
X087897Y02543D01*
Y024785D01*
X087851Y024765D01*
X087703Y024913D01*
Y02543D01*
X087707Y025433D01*
X087755Y025505D01*
X087772Y02559D01*
Y026023D01*
X087755Y026108D01*
X087707Y02618D01*
X087635Y026229D01*
X08755Y026246D01*
X087465Y026229D01*
X087393Y02618D01*
X087345Y026108D01*
X087328Y026023D01*
Y02559D01*
X087345Y025505D01*
X087393Y025433D01*
X087397Y02543D01*
Y024935D01*
X087351Y024915D01*
X087203Y025063D01*
Y02543D01*
X087207Y025433D01*
X087255Y025505D01*
X087272Y02559D01*
Y026023D01*
X087255Y026108D01*
X087207Y02618D01*
X087135Y026229D01*
X08705Y026246D01*
X086965Y026229D01*
X086893Y02618D01*
X086845Y026108D01*
X086828Y026023D01*
Y02559D01*
X086845Y025505D01*
X086893Y025433D01*
X086897Y02543D01*
Y025D01*
X086909Y024941D01*
X086942Y024892D01*
X087612Y024222D01*
Y023677D01*
X087547D01*
Y02319D01*
X087497Y023169D01*
X087268Y023398D01*
Y023677D01*
X086832D01*
Y023553D01*
X085818D01*
Y023677D01*
X085453D01*
Y024137D01*
X085863Y024547D01*
X086538D01*
X086541Y024541D01*
X086614Y024493D01*
X0867Y024476D01*
X086786Y024493D01*
X086859Y024541D01*
X086907Y024614D01*
X086924Y0247D01*
X086907Y024786D01*
X086859Y024859D01*
X086786Y024907D01*
X0867Y024924D01*
X086614Y024907D01*
X086541Y024859D01*
X086538Y024853D01*
X0858D01*
X085741Y024841D01*
X085697Y024872D01*
X085703Y0249D01*
Y02543D01*
X085707Y025433D01*
X085755Y025505D01*
X085772Y02559D01*
Y026023D01*
X085755Y026108D01*
X085707Y02618D01*
X085635Y026229D01*
X08555Y026246D01*
X085465Y026229D01*
X085393Y02618D01*
X085345Y026108D01*
X085328Y026023D01*
Y02559D01*
X085345Y025505D01*
X085393Y025433D01*
X085397Y02543D01*
Y024963D01*
X085249Y024815D01*
X085203Y024835D01*
Y02543D01*
X085207Y025433D01*
X085255Y025505D01*
X085272Y02559D01*
Y026023D01*
X085255Y026108D01*
X085207Y02618D01*
X085135Y026229D01*
X08505Y026246D01*
X084965Y026229D01*
X084893Y02618D01*
X084853Y026121D01*
X084803Y026136D01*
Y026737D01*
X085158Y027092D01*
X085191Y027141D01*
X085203Y0272D01*
Y027717D01*
X085207Y02772D01*
X085255Y027792D01*
X085272Y027877D01*
Y02831D01*
X085255Y028395D01*
X085207Y028467D01*
X085203Y02847D01*
Y0288D01*
X085191Y028858D01*
X085158Y028908D01*
X085118Y028948D01*
Y029223D01*
Y029775D01*
X085323D01*
Y030525D01*
X085159D01*
Y03095D01*
X086203D01*
Y03245D01*
X084503D01*
Y031169D01*
X084187Y030853D01*
X081863D01*
X081453Y031263D01*
Y03235D01*
X081441Y032409D01*
X081408Y032458D01*
X081108Y032758D01*
X081059Y032791D01*
X081Y032803D01*
X078346D01*
X07809Y033059D01*
Y03335D01*
X082278D01*
X082278Y03335D01*
Y0325D01*
X082286Y032461D01*
X082308Y032428D01*
X082341Y032406D01*
X08238Y032398D01*
X08318D01*
X083219Y032406D01*
X083252Y032428D01*
X083274Y032461D01*
X083282Y0325D01*
Y03335D01*
X083282Y03335D01*
X0845D01*
Y037128D01*
X08558Y037128D01*
X08559Y037126D01*
X0856Y037128D01*
X08574D01*
X085779Y037136D01*
X085812Y037158D01*
X085834Y037191D01*
X085842Y03723D01*
Y037241D01*
X085892Y037252D01*
X085933Y037191D01*
X086005Y037143D01*
X08609Y037126D01*
X086175Y037143D01*
X086247Y037191D01*
X086295Y037263D01*
X086312Y037348D01*
Y038274D01*
X086295Y038359D01*
X086247Y038431D01*
X086175Y038479D01*
X08609Y038496D01*
X086005Y038479D01*
X085933Y038431D01*
X085892Y03837D01*
X085842Y038381D01*
Y038588D01*
X085982Y038728D01*
X08684D01*
X086879Y038736D01*
X086912Y038758D01*
X086934Y038791D01*
X086942Y03883D01*
Y03938D01*
X086934Y039419D01*
X086912Y039452D01*
X086879Y039474D01*
X08684Y039482D01*
X085382D01*
Y04039D01*
X0899D01*
Y0185D01*
D02*
G37*
G36*
X0791Y04325D02*
X0782D01*
Y0356D01*
Y0352D01*
Y03355D01*
X061878D01*
X06186Y0336D01*
X06195Y033674D01*
X062048Y033794D01*
X062121Y033931D01*
X062167Y03408D01*
X062182Y034234D01*
X062167Y034389D01*
X062121Y034538D01*
X062048Y034675D01*
X06195Y034795D01*
X061829Y034893D01*
X061692Y034967D01*
X061544Y035012D01*
X061389Y035027D01*
X061234Y035012D01*
X061086Y034967D01*
X060949Y034893D01*
X060828Y034795D01*
X06073Y034675D01*
X060657Y034538D01*
X060611Y034389D01*
X060596Y034234D01*
X060611Y03408D01*
X060657Y033931D01*
X06073Y033794D01*
X060828Y033674D01*
X060918Y0336D01*
X0609Y03355D01*
X060124D01*
X059756Y033918D01*
X059767Y033944D01*
X059779Y034037D01*
X059767Y03413D01*
X059731Y034217D01*
X059674Y034291D01*
X0596Y034348D01*
X059513Y034384D01*
X05942Y034396D01*
X059328Y034384D01*
X059241Y034348D01*
X059167Y034291D01*
X05911Y034217D01*
X059074Y03413D01*
X059061Y034037D01*
X059074Y033944D01*
X05911Y033858D01*
X059143Y033815D01*
X059105Y033782D01*
X058969Y033918D01*
X05898Y033944D01*
X058992Y034037D01*
X05898Y03413D01*
X058944Y034217D01*
X058887Y034291D01*
X058813Y034348D01*
X058726Y034384D01*
X058633Y034396D01*
X05854Y034384D01*
X058454Y034348D01*
X058379Y034291D01*
X058322Y034217D01*
X058286Y03413D01*
X058274Y034037D01*
X058286Y033944D01*
X058322Y033858D01*
X058379Y033784D01*
X058454Y033727D01*
X05854Y033691D01*
X058633Y033678D01*
X058726Y033691D01*
X058753Y033702D01*
X058858Y033596D01*
X058839Y03355D01*
X046053D01*
Y03364D01*
X046072Y033681D01*
X046103Y033681D01*
X046784D01*
Y034393D01*
X046103D01*
X046072Y034393D01*
X046053Y034435D01*
Y03655D01*
X06265Y03655D01*
X06265Y0373D01*
X0765Y0373D01*
X0765Y04425D01*
X0791D01*
Y04325D01*
D02*
G37*
G36*
X08097Y03747D02*
Y03641D01*
X08025Y03569D01*
Y03524D01*
X07912D01*
Y03587D01*
X07963Y03638D01*
X08051Y03638D01*
X08073Y0366D01*
Y03745D01*
X08078Y0375D01*
X08094D01*
X08097Y03747D01*
D02*
G37*
G36*
X0821Y03525D02*
X08095D01*
Y03565D01*
X0813D01*
X08173Y03608D01*
Y0375D01*
X0821D01*
Y03525D01*
D02*
G37*
G36*
X08025Y0409D02*
X07965D01*
X07915Y0404D01*
Y03905D01*
X0799D01*
Y03835D01*
X08105D01*
X0815Y0379D01*
Y03675D01*
Y0364D01*
X0808Y0357D01*
Y03365D01*
X08025D01*
X08025Y03425D01*
X08035Y03435D01*
Y0356D01*
X0812Y03645D01*
Y03675D01*
Y0377D01*
X0809Y038D01*
X07845D01*
Y0416D01*
X08025D01*
Y0409D01*
D02*
G37*
G36*
X0821Y0391D02*
Y03862D01*
X08318Y03754D01*
Y03359D01*
X08238D01*
Y03767D01*
X08173Y03832D01*
Y0391D01*
Y04012D01*
X08095Y0409D01*
Y04215D01*
X0821D01*
Y0391D01*
D02*
G37*
G36*
X045247Y03655D02*
Y033563D01*
X045234Y03355D01*
X04255D01*
Y03475D01*
X04255Y03655D01*
X045247D01*
D02*
G37*
G36*
X08318Y0325D02*
X08238D01*
Y03335D01*
X08318D01*
Y0325D01*
D02*
G37*
G36*
X081147Y032287D02*
Y0312D01*
X081159Y031141D01*
X081192Y031092D01*
X081692Y030592D01*
X081741Y030559D01*
X0818Y030547D01*
X081886D01*
X081927Y030525D01*
Y029994D01*
X081711Y029777D01*
X081432D01*
Y029653D01*
X080433D01*
Y029777D01*
X079997D01*
Y029223D01*
Y028948D01*
X079892Y028843D01*
X079859Y028794D01*
X079847Y028735D01*
Y02847D01*
X079843Y028467D01*
X079795Y028395D01*
X079778Y02831D01*
Y027877D01*
X079795Y027792D01*
X079843Y02772D01*
X079915Y027671D01*
X08Y027654D01*
X080085Y027671D01*
X080157Y02772D01*
X080205Y027792D01*
X080222Y027877D01*
Y02831D01*
X080205Y028395D01*
X080157Y028467D01*
X080153Y02847D01*
Y028672D01*
X080154Y028673D01*
X080433D01*
Y028847D01*
X080906D01*
X080924Y028797D01*
X080883Y028736D01*
X080874Y028691D01*
X080859Y028669D01*
X080847Y02861D01*
Y02847D01*
X080843Y028467D01*
X080795Y028395D01*
X080778Y02831D01*
Y027877D01*
X080795Y027792D01*
X080843Y02772D01*
X080915Y027671D01*
X081Y027654D01*
X081085Y027671D01*
X081157Y02772D01*
X081205Y027792D01*
X081222Y027877D01*
Y02831D01*
X081205Y028395D01*
X081175Y028441D01*
X081176Y028443D01*
X081249Y028491D01*
X081297Y028564D01*
X081314Y02865D01*
X081297Y028736D01*
X081256Y028797D01*
X081274Y028847D01*
X081538D01*
X081541Y028841D01*
X081614Y028793D01*
X0817Y028776D01*
X081786Y028793D01*
X081859Y028841D01*
X081907Y028914D01*
X081924Y029D01*
X081907Y029086D01*
X081859Y029159D01*
X081837Y029173D01*
X081852Y029223D01*
X081868D01*
Y029502D01*
X082097Y029731D01*
X082147Y02971D01*
Y029223D01*
X082583D01*
Y02928D01*
X082633Y029301D01*
X083397Y028537D01*
Y025313D01*
X083357Y025273D01*
X08335Y025274D01*
X083264Y025257D01*
X083247Y025246D01*
X083203Y025269D01*
Y028139D01*
X083191Y028198D01*
X083158Y028247D01*
X082547Y028858D01*
X082498Y028891D01*
X082439Y028903D01*
X0822D01*
X082141Y028891D01*
X082092Y028858D01*
X081892Y028658D01*
X081859Y028609D01*
X081847Y02855D01*
Y02847D01*
X081843Y028467D01*
X081795Y028395D01*
X081778Y02831D01*
Y027877D01*
X081795Y027792D01*
X081843Y02772D01*
X081915Y027671D01*
X082Y027654D01*
X082085Y027671D01*
X082157Y02772D01*
X082205Y027792D01*
X082222Y027877D01*
Y02831D01*
X082205Y028395D01*
X082157Y028467D01*
X082178Y028512D01*
X082263Y028597D01*
X082376D01*
X082411Y028562D01*
X082398Y028504D01*
X082343Y028467D01*
X082295Y028395D01*
X082278Y02831D01*
Y027877D01*
X082295Y027792D01*
X082343Y02772D01*
X082347Y027717D01*
Y02695D01*
X082359Y026891D01*
X082392Y026842D01*
X082697Y026537D01*
Y026204D01*
X082647Y026187D01*
X082585Y026228D01*
X0825Y026245D01*
X082415Y026228D01*
X082343Y02618D01*
X082295Y026108D01*
X082278Y026023D01*
Y02559D01*
X082295Y025505D01*
X082343Y025433D01*
X082347Y02543D01*
Y024985D01*
X082301Y024965D01*
X082153Y025113D01*
Y02543D01*
X082157Y025433D01*
X082205Y025505D01*
X082222Y02559D01*
Y026023D01*
X082205Y026108D01*
X082157Y02618D01*
X082085Y026229D01*
X082Y026246D01*
X081915Y026229D01*
X081843Y02618D01*
X081795Y026108D01*
X081778Y026023D01*
Y02559D01*
X081795Y025505D01*
X081843Y025433D01*
X081847Y02543D01*
Y02509D01*
X081797Y025069D01*
X081653Y025213D01*
Y02543D01*
X081657Y025433D01*
X081705Y025505D01*
X081722Y02559D01*
Y026023D01*
X081705Y026108D01*
X081657Y02618D01*
X081585Y026229D01*
X0815Y026246D01*
X081415Y026229D01*
X081343Y02618D01*
X081295Y026108D01*
X081278Y026023D01*
Y02559D01*
X081295Y025505D01*
X081343Y025433D01*
X081347Y02543D01*
Y02515D01*
X081359Y025091D01*
X081392Y025042D01*
X082662Y023772D01*
Y023677D01*
X082597D01*
Y023286D01*
X082547Y023281D01*
X082541Y023309D01*
X082508Y023358D01*
X082358Y023508D01*
X082318Y023535D01*
Y023677D01*
X081882D01*
Y023553D01*
X080618D01*
Y023677D01*
X080203D01*
Y024087D01*
X080713Y024597D01*
X080888D01*
X080891Y024591D01*
X080964Y024543D01*
X08105Y024526D01*
X081136Y024543D01*
X081209Y024591D01*
X081257Y024664D01*
X081274Y02475D01*
X081257Y024836D01*
X081209Y024909D01*
X081136Y024957D01*
X08105Y024974D01*
X080964Y024957D01*
X080891Y024909D01*
X080888Y024903D01*
X08065D01*
X080591Y024891D01*
X080542Y024858D01*
X080203Y024519D01*
X080153Y02454D01*
Y02543D01*
X080157Y025433D01*
X080205Y025505D01*
X080222Y02559D01*
Y026023D01*
X080205Y026108D01*
X080157Y02618D01*
X080085Y026229D01*
X08Y026246D01*
X079915Y026229D01*
X079843Y02618D01*
X079795Y026108D01*
X079778Y026023D01*
Y02559D01*
X079795Y025505D01*
X079843Y025433D01*
X079847Y02543D01*
Y024563D01*
X079697Y024413D01*
X07965Y024437D01*
X079653Y02445D01*
Y02543D01*
X079657Y025433D01*
X079705Y025505D01*
X079722Y02559D01*
Y026023D01*
X079705Y026108D01*
X079657Y02618D01*
X079585Y026229D01*
X0795Y026246D01*
X079415Y026229D01*
X079397Y026217D01*
X079353Y02624D01*
Y026887D01*
X079608Y027142D01*
X079641Y027191D01*
X079653Y02725D01*
Y027717D01*
X079657Y02772D01*
X079705Y027792D01*
X079722Y027877D01*
Y02831D01*
X079705Y028395D01*
X079657Y028467D01*
X079653Y02847D01*
Y028673D01*
X079718D01*
Y029223D01*
Y029765D01*
X079923D01*
Y030515D01*
X079759D01*
Y03095D01*
X080803D01*
Y03245D01*
X080803D01*
X080809Y032497D01*
X080937D01*
X081147Y032287D01*
D02*
G37*
G36*
X04845Y02935D02*
X0478Y0287D01*
X04715D01*
X04695Y0289D01*
Y0295D01*
X0478Y03035D01*
Y0322D01*
X04845D01*
Y02935D01*
D02*
G37*
G36*
X033095Y0328D02*
Y029956D01*
X033033Y029893D01*
X032989Y02992D01*
X033021Y030025D01*
X033034Y030161D01*
X033021Y030297D01*
X032981Y030427D01*
X032917Y030547D01*
X03283Y030653D01*
X032725Y030739D01*
X032605Y030804D01*
X032474Y030843D01*
X032339Y030856D01*
X032203Y030843D01*
X032072Y030804D01*
X031952Y030739D01*
X031847Y030653D01*
X03176Y030547D01*
X031696Y030427D01*
X031656Y030297D01*
X031643Y030161D01*
X031656Y030025D01*
X031696Y029895D01*
X03176Y029775D01*
X031847Y029669D01*
X031952Y029583D01*
X032072Y029518D01*
X032203Y029479D01*
X032339Y029466D01*
X032474Y029479D01*
X03258Y029511D01*
X032606Y029467D01*
X032444Y029305D01*
X02815D01*
X028052Y029286D01*
X02797Y02923D01*
X02617Y02743D01*
X026114Y027348D01*
X026095Y02725D01*
Y026843D01*
X02607Y026811D01*
X026038Y026734D01*
X026027Y02665D01*
X026038Y026566D01*
X02607Y026489D01*
X026122Y026422D01*
X026189Y02637D01*
X026266Y026338D01*
X02635Y026327D01*
X026434Y026338D01*
X026511Y02637D01*
X026578Y026422D01*
X02663Y026489D01*
X026662Y026566D01*
X026673Y02665D01*
X026662Y026734D01*
X02663Y026811D01*
X026605Y026843D01*
Y027144D01*
X028256Y028795D01*
X03255D01*
X032648Y028814D01*
X03273Y02887D01*
X033211Y02935D01*
X033265Y029334D01*
X033267Y029327D01*
X030994Y027055D01*
X030267D01*
X030265Y027105D01*
X030385Y027117D01*
X030515Y027156D01*
X030635Y027221D01*
X030741Y027307D01*
X030827Y027412D01*
X030891Y027533D01*
X030931Y027663D01*
X030944Y027799D01*
X030931Y027935D01*
X030891Y028065D01*
X030827Y028185D01*
X030741Y028291D01*
X030635Y028377D01*
X030515Y028441D01*
X030385Y028481D01*
X030249Y028494D01*
X030113Y028481D01*
X029983Y028441D01*
X029862Y028377D01*
X029772Y028303D01*
X028999D01*
X028868Y028286D01*
X028747Y028236D01*
X028642Y028155D01*
X025393Y024907D01*
X025313Y024802D01*
X025263Y024681D01*
X025246Y02455D01*
Y024391D01*
X025196Y024373D01*
X02513Y024453D01*
X025025Y024539D01*
X024905Y024604D01*
X024774Y024643D01*
X024639Y024657D01*
X024503Y024643D01*
X024372Y024604D01*
X024252Y024539D01*
X024147Y024453D01*
X02406Y024347D01*
X023996Y024227D01*
X023956Y024097D01*
X023943Y023961D01*
X023956Y023825D01*
X023996Y023695D01*
X02406Y023575D01*
X024147Y023469D01*
X024252Y023383D01*
X024372Y023318D01*
X024503Y023279D01*
X024639Y023266D01*
X024774Y023279D01*
X024905Y023318D01*
X025025Y023383D01*
X02513Y023469D01*
X025196Y023549D01*
X025246Y023531D01*
Y019667D01*
X025196Y019649D01*
X02513Y019728D01*
X025025Y019815D01*
X024905Y019879D01*
X024774Y019919D01*
X024639Y019932D01*
X024503Y019919D01*
X024372Y019879D01*
X024252Y019815D01*
X024147Y019728D01*
X02406Y019623D01*
X023996Y019503D01*
X023956Y019372D01*
X023943Y019237D01*
X023956Y019101D01*
X023996Y01897D01*
X02406Y01885D01*
X024147Y018745D01*
X024252Y018658D01*
X024372Y018594D01*
X024503Y018555D01*
X024639Y018541D01*
X024774Y018555D01*
X024905Y018594D01*
X025025Y018658D01*
X02513Y018745D01*
X025196Y018824D01*
X025246Y018807D01*
Y0178D01*
X025263Y017669D01*
X025313Y017548D01*
X025393Y017443D01*
X026306Y01653D01*
Y015958D01*
X027494D01*
Y017342D01*
X026921D01*
X026254Y018009D01*
Y020222D01*
X026304Y020247D01*
X026339Y02022D01*
X026416Y020188D01*
X0265Y020177D01*
X026584Y020188D01*
X026661Y02022D01*
X026728Y020272D01*
X02678Y020339D01*
X026812Y020416D01*
X026823Y0205D01*
X026812Y020584D01*
X02678Y020661D01*
X026755Y020693D01*
Y024044D01*
X029256Y026545D01*
X0311D01*
X031198Y026565D01*
X03128Y02662D01*
X033695Y029035D01*
X033745Y029014D01*
Y026843D01*
X03372Y026811D01*
X033688Y026734D01*
X033677Y02665D01*
X033688Y026566D01*
X03372Y026489D01*
X033772Y026422D01*
X033839Y02637D01*
X033916Y026338D01*
X034Y026327D01*
X034084Y026338D01*
X034161Y02637D01*
X034228Y026422D01*
X03428Y026489D01*
X034312Y026566D01*
X034323Y02665D01*
X034312Y026734D01*
X03428Y026811D01*
X034255Y026843D01*
Y0328D01*
X044274Y0328D01*
X044293Y032754D01*
X038394Y026855D01*
X0367D01*
X036602Y026835D01*
X03652Y02678D01*
X03557Y02583D01*
X035515Y025748D01*
X035495Y02565D01*
Y023906D01*
X03357Y02198D01*
X033514Y021898D01*
X033495Y0218D01*
Y020893D01*
X03347Y020861D01*
X033438Y020784D01*
X033427Y0207D01*
X033438Y020616D01*
X03347Y020539D01*
X033522Y020472D01*
X033589Y02042D01*
X033666Y020388D01*
X03375Y020377D01*
X033834Y020388D01*
X033911Y02042D01*
X033978Y020472D01*
X03403Y020539D01*
X034062Y020616D01*
X034073Y0207D01*
X034062Y020784D01*
X03403Y020861D01*
X034005Y020893D01*
Y021694D01*
X03593Y02362D01*
X035986Y023702D01*
X036005Y0238D01*
Y025544D01*
X036806Y026345D01*
X0385D01*
X038598Y026365D01*
X03868Y02642D01*
X041399Y029138D01*
X041445Y029119D01*
Y026793D01*
X04142Y026761D01*
X041388Y026684D01*
X041377Y0266D01*
X041388Y026516D01*
X04142Y026439D01*
X041472Y026372D01*
X041539Y02632D01*
X041616Y026288D01*
X041694Y026278D01*
X041716Y026244D01*
X041721Y026234D01*
X041193Y025707D01*
X041113Y025602D01*
X041063Y025481D01*
X041046Y02535D01*
Y023209D01*
X038691Y020854D01*
X037961D01*
X037959Y020904D01*
X037987Y020907D01*
X038084Y020917D01*
X038215Y020956D01*
X038335Y021021D01*
X038441Y021107D01*
X038527Y021212D01*
X038591Y021333D01*
X038631Y021463D01*
X038644Y021599D01*
X038631Y021734D01*
X038591Y021865D01*
X038527Y021985D01*
X038441Y022091D01*
X038335Y022177D01*
X038215Y022241D01*
X038084Y022281D01*
X037949Y022294D01*
X037813Y022281D01*
X037683Y022241D01*
X037562Y022177D01*
X037472Y022103D01*
X036199D01*
X036068Y022086D01*
X035947Y022036D01*
X035842Y021955D01*
X033493Y019607D01*
X033413Y019502D01*
X033363Y019381D01*
X033346Y01925D01*
Y017709D01*
X032979Y017342D01*
X032406D01*
Y015958D01*
X033594D01*
Y01653D01*
X034207Y017143D01*
X034287Y017248D01*
X034337Y017369D01*
X034354Y0175D01*
X034354Y0175D01*
Y019041D01*
X036408Y021095D01*
X037472D01*
X037562Y021021D01*
X037683Y020956D01*
X037813Y020917D01*
X037911Y020907D01*
X037939Y020904D01*
X037937Y020854D01*
X0366D01*
X036469Y020837D01*
X036348Y020787D01*
X036243Y020707D01*
X034843Y019307D01*
X034763Y019202D01*
X034713Y019081D01*
X034696Y01895D01*
Y017392D01*
X034506D01*
Y016008D01*
X035694D01*
Y016719D01*
X035704Y0168D01*
Y018741D01*
X036439Y019475D01*
X036483Y019449D01*
X03646Y019372D01*
X036446Y019237D01*
X03646Y019101D01*
X036499Y01897D01*
X036563Y01885D01*
X03665Y018745D01*
X036755Y018658D01*
X036876Y018594D01*
X037006Y018555D01*
X037142Y018541D01*
X037277Y018555D01*
X037408Y018594D01*
X037528Y018658D01*
X037634Y018745D01*
X03772Y01885D01*
X037784Y01897D01*
X037824Y019101D01*
X037837Y019237D01*
X037824Y019372D01*
X037784Y019503D01*
X03772Y019623D01*
X037634Y019728D01*
X037552Y019796D01*
X037569Y019846D01*
X0389D01*
X039031Y019863D01*
X039152Y019913D01*
X039257Y019993D01*
X041907Y022643D01*
X041987Y022748D01*
X042037Y022869D01*
X042054Y023D01*
Y025141D01*
X043195Y026282D01*
X043245Y026261D01*
Y023656D01*
X04147Y02188D01*
X041414Y021798D01*
X041395Y0217D01*
Y020743D01*
X04137Y020711D01*
X041338Y020634D01*
X041327Y02055D01*
X041338Y020466D01*
X04137Y020389D01*
X041422Y020322D01*
X041489Y02027D01*
X041566Y020238D01*
X04165Y020227D01*
X041734Y020238D01*
X041811Y02027D01*
X041878Y020322D01*
X04193Y020389D01*
X041962Y020466D01*
X041973Y02055D01*
X041962Y020634D01*
X04193Y020711D01*
X041905Y020743D01*
Y021594D01*
X04368Y02337D01*
X043735Y023452D01*
X043755Y02355D01*
Y026194D01*
X044056Y026495D01*
X04615D01*
X046248Y026514D01*
X04633Y02657D01*
X04688Y02712D01*
X046936Y027202D01*
X046955Y0273D01*
Y028541D01*
X047001Y028561D01*
X047006Y028556D01*
X047072Y028512D01*
X04715Y028496D01*
X0478D01*
X047878Y028512D01*
X047944Y028556D01*
X048594Y029206D01*
X048638Y029272D01*
X048654Y02935D01*
Y0322D01*
X048638Y032278D01*
X048636Y032281D01*
Y03237D01*
X048556D01*
X048528Y032388D01*
X04845Y032404D01*
X0478D01*
X047722Y032388D01*
X047694Y03237D01*
X047636D01*
Y032315D01*
X047612Y032278D01*
X047596Y0322D01*
Y030434D01*
X047001Y029839D01*
X046955Y029859D01*
Y03235D01*
X046936Y032448D01*
X04688Y03253D01*
X046657Y032754D01*
X046676Y0328D01*
X054646Y0328D01*
X054679Y032762D01*
X054677Y03275D01*
X054649Y032718D01*
X054623D01*
Y032082D01*
X055377D01*
Y032718D01*
X055351D01*
X055323Y03275D01*
X055321Y032762D01*
X055354Y0328D01*
X059596Y0328D01*
X05962Y032795D01*
X059745D01*
X059778Y032758D01*
X059777Y03275D01*
X059749Y032718D01*
X059723D01*
Y032082D01*
X060477D01*
Y032718D01*
X060451D01*
X060423Y03275D01*
X060422Y032758D01*
X060455Y032795D01*
X064675D01*
X064706Y032751D01*
X064691Y032718D01*
X064673D01*
Y032082D01*
X065427D01*
Y032718D01*
X065409D01*
X065394Y032751D01*
X065425Y032795D01*
X069795D01*
X069828Y032758D01*
X069827Y03275D01*
X069799Y032718D01*
X069773D01*
Y032082D01*
X070527D01*
Y032718D01*
X070501D01*
X070473Y03275D01*
X070472Y032758D01*
X070505Y032795D01*
X074895D01*
X074928Y032758D01*
X074927Y03275D01*
X074899Y032718D01*
X074873D01*
Y032082D01*
X075627D01*
Y032718D01*
X075601D01*
X075573Y03275D01*
X075572Y032758D01*
X075605Y032795D01*
X077494D01*
X0775Y03279D01*
X0775Y0259D01*
X07635Y0259D01*
X05105D01*
X04925Y0241D01*
X04635D01*
X0457Y02345D01*
X0457Y022322D01*
X045663Y022288D01*
X045599Y022294D01*
X045463Y022281D01*
X045333Y022241D01*
X045212Y022177D01*
X045122Y022103D01*
X043949D01*
X043818Y022086D01*
X043697Y022036D01*
X043592Y021955D01*
X040731Y019095D01*
X040674Y019102D01*
X040671Y019105D01*
X040684Y019237D01*
X040671Y019372D01*
X040631Y019503D01*
X040567Y019623D01*
X04048Y019728D01*
X040375Y019815D01*
X040255Y019879D01*
X040124Y019919D01*
X039989Y019932D01*
X039853Y019919D01*
X039722Y019879D01*
X039602Y019815D01*
X039497Y019728D01*
X03941Y019623D01*
X039346Y019503D01*
X039306Y019372D01*
X039293Y019237D01*
X039306Y019101D01*
X039346Y01897D01*
X03941Y01885D01*
X039497Y018745D01*
X039602Y018658D01*
X039613Y018653D01*
X0396Y018604D01*
X0385D01*
X038369Y018587D01*
X038248Y018537D01*
X038143Y018457D01*
X037079Y017392D01*
X036506D01*
Y016008D01*
X037694D01*
Y01658D01*
X038709Y017596D01*
X04045D01*
X040581Y017613D01*
X040702Y017663D01*
X040807Y017743D01*
X044158Y021095D01*
X045122D01*
X045212Y021021D01*
X045333Y020956D01*
X045463Y020917D01*
X045599Y020903D01*
X045663Y02091D01*
X0457Y020876D01*
X0457Y01549D01*
X02344D01*
Y0328D01*
X033095Y0328D01*
D02*
G37*
G36*
X085446Y020084D02*
X086297D01*
Y02005D01*
X086309Y019991D01*
X086342Y019942D01*
X086492Y019792D01*
X086541Y019759D01*
X0866Y019747D01*
X086737D01*
X086973Y019511D01*
Y019232D01*
X087527D01*
Y019297D01*
X088D01*
X088059Y019309D01*
X088108Y019342D01*
X088901Y020135D01*
X088947Y020115D01*
Y019913D01*
X087922Y018888D01*
X087527D01*
Y018953D01*
X086423D01*
Y018674D01*
X086292Y018543D01*
X086263Y0185D01*
X08472D01*
X084677Y018517D01*
Y018953D01*
X083573D01*
Y018517D01*
X08353Y0185D01*
X08307D01*
X083027Y018517D01*
Y018582D01*
X083035D01*
X083094Y018594D01*
X083143Y018627D01*
X083408Y018892D01*
X083441Y018941D01*
X083453Y019D01*
Y019604D01*
X083527Y019678D01*
X083573Y019653D01*
Y019232D01*
X084677D01*
Y019668D01*
X084553D01*
Y02005D01*
X084581Y020084D01*
X085304D01*
Y020346D01*
X085446D01*
Y020084D01*
D02*
G37*
G36*
X078141Y032309D02*
X0782Y032297D01*
X079017D01*
X079103Y032211D01*
Y03095D01*
X079453D01*
Y030515D01*
X07929D01*
Y029777D01*
X079282D01*
Y029223D01*
Y028673D01*
X079347D01*
Y02847D01*
X079343Y028467D01*
X079295Y028395D01*
X079278Y02831D01*
Y027877D01*
X079295Y027792D01*
X079343Y02772D01*
X079347Y027717D01*
Y027313D01*
X079092Y027058D01*
X079059Y027009D01*
X079047Y02695D01*
Y024496D01*
X078642Y024091D01*
X078609Y024041D01*
X078597Y023983D01*
Y0203D01*
X078609Y020241D01*
X078642Y020192D01*
X078992Y019842D01*
X079034Y019814D01*
X079045Y019761D01*
X079041Y019759D01*
X078993Y019686D01*
X078976Y0196D01*
X078993Y019514D01*
X079041Y019441D01*
X079114Y019393D01*
X0792Y019376D01*
X079286Y019393D01*
X079323Y019417D01*
X079373Y019391D01*
Y019232D01*
X080477D01*
Y019668D01*
X080335D01*
X080308Y019708D01*
X079982Y020034D01*
X080003Y020084D01*
X080104D01*
Y020346D01*
X080246D01*
Y020084D01*
X081154D01*
X081154Y020084D01*
X081199Y020072D01*
X081204Y020046D01*
X081238Y019996D01*
X081442Y019792D01*
X081491Y019759D01*
X08155Y019747D01*
X082287D01*
X082473Y019561D01*
Y019232D01*
X083027D01*
Y019461D01*
X083101Y019535D01*
X083147Y019515D01*
Y019063D01*
X083064Y018981D01*
X083027Y018953D01*
Y018953D01*
X083027Y018953D01*
X081923D01*
Y018517D01*
X08188Y0185D01*
X08052D01*
X080477Y018517D01*
Y018953D01*
X079373D01*
Y018517D01*
X07933Y0185D01*
X07809D01*
Y032283D01*
X07814Y03231D01*
X078141Y032309D01*
D02*
G37*
%LPC*%
G36*
X089365Y04019D02*
X088615D01*
Y039968D01*
X088567Y039963D01*
Y039963D01*
X088013D01*
Y039963D01*
X087967D01*
Y039963D01*
X087413D01*
Y039527D01*
X087967D01*
Y039527D01*
X088013D01*
Y039527D01*
X088567D01*
Y039541D01*
X088861D01*
X088939Y039556D01*
X08894Y039557D01*
X089365D01*
Y04019D01*
D02*
G37*
G36*
Y039403D02*
X088615D01*
Y039253D01*
X088567Y039248D01*
X088565Y039248D01*
X088017D01*
X088013Y039248D01*
X087967D01*
X087963Y039248D01*
X087413D01*
Y038812D01*
X087555D01*
X087582Y038772D01*
X087959Y038395D01*
X087935Y038359D01*
X087918Y038274D01*
Y037348D01*
X087935Y037263D01*
X087983Y037191D01*
X088055Y037143D01*
X08814Y037126D01*
X088225Y037143D01*
X088297Y037191D01*
X088337Y037251D01*
X088349Y037254D01*
X088381D01*
X088393Y037251D01*
X088433Y037191D01*
X088505Y037143D01*
X08859Y037126D01*
X088675Y037143D01*
X088747Y037191D01*
X088795Y037263D01*
X088812Y037348D01*
Y038274D01*
X088795Y038359D01*
X088747Y038431D01*
X088742Y038434D01*
X088731Y038489D01*
X088698Y038538D01*
X088474Y038762D01*
X088495Y038812D01*
X088565D01*
X088567Y038812D01*
X088615Y038806D01*
Y03877D01*
X088937D01*
Y038434D01*
X088933Y038431D01*
X088885Y038359D01*
X088868Y038274D01*
Y037348D01*
X088885Y037263D01*
X088933Y037191D01*
X089005Y037143D01*
X08909Y037126D01*
X089175Y037143D01*
X089247Y037191D01*
X089295Y037263D01*
X089312Y037348D01*
Y038274D01*
X089295Y038359D01*
X089247Y038431D01*
X089243Y038434D01*
Y03877D01*
X089365D01*
Y039403D01*
D02*
G37*
G36*
X08709Y038496D02*
X087005Y038479D01*
X086933Y038431D01*
X086885Y038359D01*
X086868Y038274D01*
Y037348D01*
X086885Y037263D01*
X086933Y037191D01*
X087005Y037143D01*
X08709Y037126D01*
X087175Y037143D01*
X087247Y037191D01*
X087295Y037263D01*
X087312Y037348D01*
Y038274D01*
X087295Y038359D01*
X087247Y038431D01*
X087175Y038479D01*
X08709Y038496D01*
D02*
G37*
G36*
X08659D02*
X086505Y038479D01*
X086433Y038431D01*
X086385Y038359D01*
X086368Y038274D01*
Y037348D01*
X086385Y037263D01*
X086433Y037191D01*
X086505Y037143D01*
X08659Y037126D01*
X086675Y037143D01*
X086747Y037191D01*
X086795Y037263D01*
X086812Y037348D01*
Y038274D01*
X086795Y038359D01*
X086747Y038431D01*
X086675Y038479D01*
X08659Y038496D01*
D02*
G37*
G36*
X08809Y036134D02*
X088005Y036117D01*
X087933Y036069D01*
X087885Y035997D01*
X087868Y035912D01*
Y034986D01*
X087885Y034901D01*
X087933Y034829D01*
X088005Y034781D01*
X08809Y034764D01*
X088175Y034781D01*
X088247Y034829D01*
X088295Y034901D01*
X088312Y034986D01*
Y035912D01*
X088295Y035997D01*
X088247Y036069D01*
X088175Y036117D01*
X08809Y036134D01*
D02*
G37*
G36*
X08709D02*
X087005Y036117D01*
X086933Y036069D01*
X086885Y035997D01*
X086868Y035912D01*
Y034986D01*
X086885Y034901D01*
X086933Y034829D01*
X087005Y034781D01*
X08709Y034764D01*
X087175Y034781D01*
X087247Y034829D01*
X087295Y034901D01*
X087312Y034986D01*
Y035912D01*
X087295Y035997D01*
X087247Y036069D01*
X087175Y036117D01*
X08709Y036134D01*
D02*
G37*
G36*
X08659D02*
X086505Y036117D01*
X086433Y036069D01*
X086385Y035997D01*
X086368Y035912D01*
Y034986D01*
X086385Y034901D01*
X086433Y034829D01*
X086505Y034781D01*
X08659Y034764D01*
X086675Y034781D01*
X086747Y034829D01*
X086795Y034901D01*
X086812Y034986D01*
Y035912D01*
X086795Y035997D01*
X086747Y036069D01*
X086675Y036117D01*
X08659Y036134D01*
D02*
G37*
G36*
X08609D02*
X086005Y036117D01*
X085933Y036069D01*
X085885Y035997D01*
X085868Y035912D01*
Y034986D01*
X085885Y034901D01*
X085933Y034829D01*
X086005Y034781D01*
X08609Y034764D01*
X086175Y034781D01*
X086247Y034829D01*
X086295Y034901D01*
X086312Y034986D01*
Y035912D01*
X086295Y035997D01*
X086247Y036069D01*
X086175Y036117D01*
X08609Y036134D01*
D02*
G37*
G36*
X08559D02*
X085505Y036117D01*
X085433Y036069D01*
X085385Y035997D01*
X085368Y035912D01*
Y034986D01*
X085385Y034901D01*
X085433Y034829D01*
X085505Y034781D01*
X08559Y034764D01*
X085675Y034781D01*
X085747Y034829D01*
X085795Y034901D01*
X085812Y034986D01*
Y035912D01*
X085795Y035997D01*
X085747Y036069D01*
X085675Y036117D01*
X08559Y036134D01*
D02*
G37*
G36*
X08759Y038496D02*
X087505Y038479D01*
X087433Y038431D01*
X087385Y038359D01*
X087368Y038274D01*
Y037348D01*
X087385Y037263D01*
X087433Y037191D01*
X087437Y037188D01*
Y03708D01*
X087449Y037021D01*
X087482Y036972D01*
X087982Y036472D01*
X088031Y036439D01*
X08809Y036427D01*
X088677D01*
X088937Y036167D01*
Y036072D01*
X088933Y036069D01*
X088885Y035997D01*
X088868Y035912D01*
Y034986D01*
X088885Y034901D01*
X088933Y034829D01*
X088937Y034826D01*
Y03439D01*
X088682D01*
X088663Y034436D01*
X088698Y034472D01*
X088731Y034521D01*
X088743Y03458D01*
Y034826D01*
X088747Y034829D01*
X088795Y034901D01*
X088812Y034986D01*
Y035912D01*
X088795Y035997D01*
X088747Y036069D01*
X088675Y036117D01*
X08859Y036134D01*
X088505Y036117D01*
X088433Y036069D01*
X088385Y035997D01*
X088368Y035912D01*
Y034986D01*
X088385Y034901D01*
X088433Y034829D01*
X088437Y034826D01*
Y034643D01*
X088232Y034438D01*
X088199Y034388D01*
X088187Y03433D01*
Y034113D01*
X087993D01*
Y03443D01*
X087981Y034489D01*
X087948Y034538D01*
X087743Y034743D01*
Y034826D01*
X087747Y034829D01*
X087795Y034901D01*
X087812Y034986D01*
Y035912D01*
X087795Y035997D01*
X087747Y036069D01*
X087675Y036117D01*
X08759Y036134D01*
X087505Y036117D01*
X087433Y036069D01*
X087385Y035997D01*
X087368Y035912D01*
Y034986D01*
X087385Y034901D01*
X087433Y034829D01*
X087437Y034826D01*
Y03468D01*
X087449Y034621D01*
X087482Y034572D01*
X087687Y034367D01*
Y034113D01*
X087563D01*
Y033677D01*
X088617D01*
Y033757D01*
X089365D01*
Y03439D01*
X089243D01*
Y034826D01*
X089247Y034829D01*
X089295Y034901D01*
X089312Y034986D01*
Y035912D01*
X089295Y035997D01*
X089247Y036069D01*
X089243Y036072D01*
Y03623D01*
X089231Y036289D01*
X089198Y036338D01*
X088848Y036688D01*
X088799Y036721D01*
X08874Y036733D01*
X088153D01*
X087745Y037142D01*
X087747Y037191D01*
X087795Y037263D01*
X087812Y037348D01*
Y038274D01*
X087795Y038359D01*
X087747Y038431D01*
X087675Y038479D01*
X08759Y038496D01*
D02*
G37*
G36*
X08655Y028794D02*
X086464Y028777D01*
X086391Y028729D01*
X086343Y028656D01*
X086326Y02857D01*
X086343Y028484D01*
X086373Y028438D01*
X086345Y028395D01*
X086328Y02831D01*
Y027877D01*
X086345Y027792D01*
X086393Y02772D01*
X086465Y027671D01*
X08655Y027654D01*
X086635Y027671D01*
X086707Y02772D01*
X086755Y027792D01*
X086772Y027877D01*
Y02831D01*
X086755Y028395D01*
X086727Y028438D01*
X086757Y028484D01*
X086774Y02857D01*
X086757Y028656D01*
X086709Y028729D01*
X086636Y028777D01*
X08655Y028794D01*
D02*
G37*
G36*
Y026246D02*
X086465Y026229D01*
X086393Y02618D01*
X086345Y026108D01*
X086328Y026023D01*
Y02559D01*
X086345Y025505D01*
X08639Y025437D01*
X086343Y025366D01*
X086326Y02528D01*
X086343Y025194D01*
X086391Y025121D01*
X086464Y025073D01*
X08655Y025056D01*
X086636Y025073D01*
X086709Y025121D01*
X086757Y025194D01*
X086774Y02528D01*
X086757Y025366D01*
X08671Y025437D01*
X086755Y025505D01*
X086772Y02559D01*
Y026023D01*
X086755Y026108D01*
X086707Y02618D01*
X086635Y026229D01*
X08655Y026246D01*
D02*
G37*
G36*
X064048Y036346D02*
X06394Y036332D01*
X063839Y03629D01*
X063752Y036224D01*
X063686Y036137D01*
X063644Y036036D01*
X06363Y035928D01*
X063644Y035819D01*
X063686Y035719D01*
X063752Y035632D01*
X063839Y035565D01*
X06394Y035524D01*
X064048Y035509D01*
X064157Y035524D01*
X064258Y035565D01*
X064344Y035632D01*
X064411Y035719D01*
X064453Y035819D01*
X064467Y035928D01*
X064453Y036036D01*
X064411Y036137D01*
X064344Y036224D01*
X064258Y03629D01*
X064157Y036332D01*
X064048Y036346D01*
D02*
G37*
G36*
X054265Y034393D02*
X053553D01*
Y033681D01*
X054265D01*
Y034393D01*
D02*
G37*
G36*
X057846Y034396D02*
X057753Y034384D01*
X057666Y034348D01*
X057592Y034291D01*
X057535Y034217D01*
X057499Y03413D01*
X057487Y034037D01*
X057499Y033944D01*
X057535Y033858D01*
X057592Y033784D01*
X057666Y033727D01*
X057753Y033691D01*
X057846Y033678D01*
X057939Y033691D01*
X058025Y033727D01*
X0581Y033784D01*
X058157Y033858D01*
X058192Y033944D01*
X058205Y034037D01*
X058192Y03413D01*
X058157Y034217D01*
X0581Y034291D01*
X058025Y034348D01*
X057939Y034384D01*
X057846Y034396D01*
D02*
G37*
G36*
X057058D02*
X056965Y034384D01*
X056879Y034348D01*
X056804Y034291D01*
X056747Y034217D01*
X056712Y03413D01*
X056699Y034037D01*
X056712Y033944D01*
X056747Y033858D01*
X056804Y033784D01*
X056879Y033727D01*
X056965Y033691D01*
X057058Y033678D01*
X057151Y033691D01*
X057238Y033727D01*
X057312Y033784D01*
X057369Y033858D01*
X057405Y033944D01*
X057417Y034037D01*
X057405Y03413D01*
X057369Y034217D01*
X057312Y034291D01*
X057238Y034348D01*
X057151Y034384D01*
X057058Y034396D01*
D02*
G37*
G36*
X056271D02*
X056178Y034384D01*
X056091Y034348D01*
X056017Y034291D01*
X05596Y034217D01*
X055924Y03413D01*
X055912Y034037D01*
X055924Y033944D01*
X05596Y033858D01*
X056017Y033784D01*
X056091Y033727D01*
X056178Y033691D01*
X056271Y033678D01*
X056364Y033691D01*
X05645Y033727D01*
X056525Y033784D01*
X056582Y033858D01*
X056618Y033944D01*
X05663Y034037D01*
X056618Y03413D01*
X056582Y034217D01*
X056525Y034291D01*
X05645Y034348D01*
X056364Y034384D01*
X056271Y034396D01*
D02*
G37*
G36*
X055483D02*
X055391Y034384D01*
X055304Y034348D01*
X05523Y034291D01*
X055173Y034217D01*
X055137Y03413D01*
X055125Y034037D01*
X055137Y033944D01*
X055173Y033858D01*
X05523Y033784D01*
X055304Y033727D01*
X055391Y033691D01*
X055483Y033678D01*
X055576Y033691D01*
X055663Y033727D01*
X055737Y033784D01*
X055794Y033858D01*
X05583Y033944D01*
X055842Y034037D01*
X05583Y03413D01*
X055794Y034217D01*
X055737Y034291D01*
X055663Y034348D01*
X055576Y034384D01*
X055483Y034396D01*
D02*
G37*
G36*
X054696D02*
X054603Y034384D01*
X054517Y034348D01*
X054442Y034291D01*
X054385Y034217D01*
X054349Y03413D01*
X054337Y034037D01*
X054349Y033944D01*
X054385Y033858D01*
X054442Y033784D01*
X054517Y033727D01*
X054603Y033691D01*
X054696Y033678D01*
X054789Y033691D01*
X054876Y033727D01*
X05495Y033784D01*
X055007Y033858D01*
X055043Y033944D01*
X055055Y034037D01*
X055043Y03413D01*
X055007Y034217D01*
X05495Y034291D01*
X054876Y034348D01*
X054789Y034384D01*
X054696Y034396D01*
D02*
G37*
G36*
X05194D02*
X051847Y034384D01*
X051761Y034348D01*
X051686Y034291D01*
X051629Y034217D01*
X051593Y03413D01*
X051581Y034037D01*
X051593Y033944D01*
X051629Y033858D01*
X051686Y033784D01*
X051761Y033727D01*
X051847Y033691D01*
X05194Y033678D01*
X052033Y033691D01*
X05212Y033727D01*
X052194Y033784D01*
X052251Y033858D01*
X052287Y033944D01*
X052299Y034037D01*
X052287Y03413D01*
X052251Y034217D01*
X052194Y034291D01*
X05212Y034348D01*
X052033Y034384D01*
X05194Y034396D01*
D02*
G37*
G36*
X051153D02*
X05106Y034384D01*
X050973Y034348D01*
X050899Y034291D01*
X050842Y034217D01*
X050806Y03413D01*
X050794Y034037D01*
X050806Y033944D01*
X050842Y033858D01*
X050899Y033784D01*
X050973Y033727D01*
X05106Y033691D01*
X051153Y033678D01*
X051246Y033691D01*
X051332Y033727D01*
X051407Y033784D01*
X051464Y033858D01*
X0515Y033944D01*
X051512Y034037D01*
X0515Y03413D01*
X051464Y034217D01*
X051407Y034291D01*
X051332Y034348D01*
X051246Y034384D01*
X051153Y034396D01*
D02*
G37*
G36*
X050365D02*
X050272Y034384D01*
X050186Y034348D01*
X050112Y034291D01*
X050054Y034217D01*
X050019Y03413D01*
X050006Y034037D01*
X050019Y033944D01*
X050054Y033858D01*
X050112Y033784D01*
X050186Y033727D01*
X050272Y033691D01*
X050365Y033678D01*
X050458Y033691D01*
X050545Y033727D01*
X050619Y033784D01*
X050676Y033858D01*
X050712Y033944D01*
X050724Y034037D01*
X050712Y03413D01*
X050676Y034217D01*
X050619Y034291D01*
X050545Y034348D01*
X050458Y034384D01*
X050365Y034396D01*
D02*
G37*
G36*
X049578D02*
X049485Y034384D01*
X049398Y034348D01*
X049324Y034291D01*
X049267Y034217D01*
X049231Y03413D01*
X049219Y034037D01*
X049231Y033944D01*
X049267Y033858D01*
X049324Y033784D01*
X049398Y033727D01*
X049485Y033691D01*
X049578Y033678D01*
X049671Y033691D01*
X049757Y033727D01*
X049832Y033784D01*
X049889Y033858D01*
X049925Y033944D01*
X049937Y034037D01*
X049925Y03413D01*
X049889Y034217D01*
X049832Y034291D01*
X049757Y034348D01*
X049671Y034384D01*
X049578Y034396D01*
D02*
G37*
G36*
X048791D02*
X048698Y034384D01*
X048611Y034348D01*
X048537Y034291D01*
X04848Y034217D01*
X048444Y03413D01*
X048432Y034037D01*
X048444Y033944D01*
X04848Y033858D01*
X048537Y033784D01*
X048611Y033727D01*
X048698Y033691D01*
X048791Y033678D01*
X048883Y033691D01*
X04897Y033727D01*
X049044Y033784D01*
X049101Y033858D01*
X049137Y033944D01*
X04915Y034037D01*
X049137Y03413D01*
X049101Y034217D01*
X049044Y034291D01*
X04897Y034348D01*
X048883Y034384D01*
X048791Y034396D01*
D02*
G37*
G36*
X048003D02*
X04791Y034384D01*
X047824Y034348D01*
X047749Y034291D01*
X047692Y034217D01*
X047656Y03413D01*
X047644Y034037D01*
X047656Y033944D01*
X047692Y033858D01*
X047749Y033784D01*
X047824Y033727D01*
X04791Y033691D01*
X048003Y033678D01*
X048096Y033691D01*
X048183Y033727D01*
X048257Y033784D01*
X048314Y033858D01*
X04835Y033944D01*
X048362Y034037D01*
X04835Y03413D01*
X048314Y034217D01*
X048257Y034291D01*
X048183Y034348D01*
X048096Y034384D01*
X048003Y034396D01*
D02*
G37*
G36*
X047216D02*
X047123Y034384D01*
X047036Y034348D01*
X046962Y034291D01*
X046905Y034217D01*
X046869Y03413D01*
X046857Y034037D01*
X046869Y033944D01*
X046905Y033858D01*
X046962Y033784D01*
X047036Y033727D01*
X047123Y033691D01*
X047216Y033678D01*
X047309Y033691D01*
X047395Y033727D01*
X04747Y033784D01*
X047527Y033858D01*
X047563Y033944D01*
X047575Y034037D01*
X047563Y03413D01*
X047527Y034217D01*
X04747Y034291D01*
X047395Y034348D01*
X047309Y034384D01*
X047216Y034396D01*
D02*
G37*
G36*
X04446D02*
X044367Y034384D01*
X04428Y034348D01*
X044206Y034291D01*
X044149Y034217D01*
X044113Y03413D01*
X044101Y034037D01*
X044113Y033944D01*
X044149Y033858D01*
X044206Y033784D01*
X04428Y033727D01*
X044367Y033691D01*
X04446Y033678D01*
X044553Y033691D01*
X044639Y033727D01*
X044714Y033784D01*
X044771Y033858D01*
X044807Y033944D01*
X044819Y034037D01*
X044807Y03413D01*
X044771Y034217D01*
X044714Y034291D01*
X044639Y034348D01*
X044553Y034384D01*
X04446Y034396D01*
D02*
G37*
G36*
X081Y026246D02*
X080915Y026229D01*
X080843Y02618D01*
X080795Y026108D01*
X080778Y026023D01*
Y02559D01*
X080795Y025505D01*
X080832Y025449D01*
X080831Y025449D01*
X080783Y025376D01*
X080766Y02529D01*
X080783Y025204D01*
X080831Y025131D01*
X080904Y025083D01*
X08099Y025066D01*
X081076Y025083D01*
X081149Y025131D01*
X081197Y025204D01*
X081214Y02529D01*
X081197Y025376D01*
X081158Y025434D01*
X081205Y025505D01*
X081222Y02559D01*
Y026023D01*
X081205Y026108D01*
X081157Y02618D01*
X081085Y026229D01*
X081Y026246D01*
D02*
G37*
G36*
X05045Y032723D02*
X050377Y032713D01*
X050327Y032718D01*
X050327Y032718D01*
X050327Y032718D01*
X049573D01*
Y032082D01*
X050327D01*
X050327Y032082D01*
X050377Y032087D01*
X05045Y032077D01*
X050534Y032088D01*
X050611Y03212D01*
X050678Y032172D01*
X05073Y032239D01*
X050762Y032316D01*
X050773Y0324D01*
X050762Y032484D01*
X05073Y032561D01*
X050678Y032628D01*
X050611Y03268D01*
X050534Y032712D01*
X05045Y032723D01*
D02*
G37*
G36*
X075627Y032003D02*
X074873D01*
Y031996D01*
X074064D01*
Y031356D01*
X075064D01*
Y031367D01*
X075627D01*
Y032003D01*
D02*
G37*
G36*
X070527D02*
X069773D01*
Y031996D01*
X069014D01*
Y031356D01*
X070014D01*
Y031367D01*
X070527D01*
Y032003D01*
D02*
G37*
G36*
X065427D02*
X064673D01*
Y031996D01*
X063914D01*
Y031356D01*
X064914D01*
Y031367D01*
X065427D01*
Y032003D01*
D02*
G37*
G36*
X060477D02*
X059723D01*
Y031996D01*
X058864D01*
Y031356D01*
X059864D01*
Y031367D01*
X060477D01*
Y032003D01*
D02*
G37*
G36*
X055377D02*
X054623D01*
Y031996D01*
X053814D01*
Y031356D01*
X054814D01*
Y031367D01*
X055377D01*
Y032003D01*
D02*
G37*
G36*
X050327D02*
X049573D01*
Y031996D01*
X048764D01*
Y031356D01*
X049764D01*
Y031367D01*
X050327D01*
Y032003D01*
D02*
G37*
G36*
X039989Y030856D02*
X039853Y030843D01*
X039722Y030804D01*
X039602Y030739D01*
X039497Y030653D01*
X03941Y030547D01*
X039346Y030427D01*
X039306Y030297D01*
X039293Y030161D01*
X039306Y030025D01*
X039346Y029895D01*
X03941Y029775D01*
X039497Y029669D01*
X039602Y029583D01*
X039722Y029518D01*
X039853Y029479D01*
X039989Y029466D01*
X040124Y029479D01*
X040255Y029518D01*
X040375Y029583D01*
X04048Y029669D01*
X040567Y029775D01*
X040631Y029895D01*
X040671Y030025D01*
X040684Y030161D01*
X040671Y030297D01*
X040631Y030427D01*
X040567Y030547D01*
X04048Y030653D01*
X040375Y030739D01*
X040255Y030804D01*
X040124Y030843D01*
X039989Y030856D01*
D02*
G37*
G36*
X037142D02*
X037006Y030843D01*
X036876Y030804D01*
X036755Y030739D01*
X03665Y030653D01*
X036563Y030547D01*
X036499Y030427D01*
X03646Y030297D01*
X036446Y030161D01*
X03646Y030025D01*
X036499Y029895D01*
X036563Y029775D01*
X03665Y029669D01*
X036755Y029583D01*
X036876Y029518D01*
X037006Y029479D01*
X037142Y029466D01*
X037277Y029479D01*
X037408Y029518D01*
X037528Y029583D01*
X037634Y029669D01*
X03772Y029775D01*
X037784Y029895D01*
X037824Y030025D01*
X037837Y030161D01*
X037824Y030297D01*
X037784Y030427D01*
X03772Y030547D01*
X037634Y030653D01*
X037528Y030739D01*
X037408Y030804D01*
X037277Y030843D01*
X037142Y030856D01*
D02*
G37*
G36*
X029442D02*
X029306Y030843D01*
X029176Y030804D01*
X029055Y030739D01*
X02895Y030653D01*
X028863Y030547D01*
X028799Y030427D01*
X02876Y030297D01*
X028746Y030161D01*
X02876Y030025D01*
X028799Y029895D01*
X028863Y029775D01*
X02895Y029669D01*
X029055Y029583D01*
X029176Y029518D01*
X029306Y029479D01*
X029442Y029466D01*
X029577Y029479D01*
X029708Y029518D01*
X029828Y029583D01*
X029934Y029669D01*
X03002Y029775D01*
X030084Y029895D01*
X030124Y030025D01*
X030137Y030161D01*
X030124Y030297D01*
X030084Y030427D01*
X03002Y030547D01*
X029934Y030653D01*
X029828Y030739D01*
X029708Y030804D01*
X029577Y030843D01*
X029442Y030856D01*
D02*
G37*
G36*
X024639D02*
X024503Y030843D01*
X024372Y030804D01*
X024252Y030739D01*
X024147Y030653D01*
X02406Y030547D01*
X023996Y030427D01*
X023956Y030297D01*
X023943Y030161D01*
X023956Y030025D01*
X023996Y029895D01*
X02406Y029775D01*
X024147Y029669D01*
X024252Y029583D01*
X024372Y029518D01*
X024503Y029479D01*
X024639Y029466D01*
X024774Y029479D01*
X024905Y029518D01*
X025025Y029583D01*
X02513Y029669D01*
X025217Y029775D01*
X025281Y029895D01*
X025321Y030025D01*
X025334Y030161D01*
X025321Y030297D01*
X025281Y030427D01*
X025217Y030547D01*
X02513Y030653D01*
X025025Y030739D01*
X024905Y030804D01*
X024774Y030843D01*
X024639Y030856D01*
D02*
G37*
G36*
X07375Y032404D02*
X0731D01*
X073022Y032388D01*
X072994Y03237D01*
X072936D01*
Y032315D01*
X072912Y032278D01*
X072896Y0322D01*
Y030434D01*
X072106Y029644D01*
X072062Y029578D01*
X072046Y0295D01*
Y0289D01*
X072062Y028822D01*
X072106Y028756D01*
X072306Y028556D01*
X072372Y028512D01*
X07245Y028496D01*
X0731D01*
X073178Y028512D01*
X073244Y028556D01*
X073894Y029206D01*
X073938Y029272D01*
X073954Y02935D01*
Y0322D01*
X073938Y032278D01*
X073936Y032281D01*
Y03237D01*
X073856D01*
X073828Y032388D01*
X07375Y032404D01*
D02*
G37*
G36*
X0687D02*
X06805D01*
X067972Y032388D01*
X067944Y03237D01*
X067886D01*
Y032315D01*
X067862Y032278D01*
X067846Y0322D01*
Y030434D01*
X067056Y029644D01*
X067012Y029578D01*
X066996Y0295D01*
Y0289D01*
X067012Y028822D01*
X067056Y028756D01*
X067256Y028556D01*
X067322Y028512D01*
X0674Y028496D01*
X06805D01*
X068128Y028512D01*
X068194Y028556D01*
X068844Y029206D01*
X068888Y029272D01*
X068904Y02935D01*
Y0322D01*
X068888Y032278D01*
X068886Y032281D01*
Y03237D01*
X068806D01*
X068778Y032388D01*
X0687Y032404D01*
D02*
G37*
G36*
X0636D02*
X06295D01*
X062872Y032388D01*
X062844Y03237D01*
X062786D01*
Y032315D01*
X062762Y032278D01*
X062746Y0322D01*
Y030434D01*
X061956Y029644D01*
X061912Y029578D01*
X061896Y0295D01*
Y0289D01*
X061912Y028822D01*
X061956Y028756D01*
X062156Y028556D01*
X062222Y028512D01*
X0623Y028496D01*
X06295D01*
X063028Y028512D01*
X063094Y028556D01*
X063744Y029206D01*
X063788Y029272D01*
X063804Y02935D01*
Y0322D01*
X063788Y032278D01*
X063786Y032281D01*
Y03237D01*
X063706D01*
X063678Y032388D01*
X0636Y032404D01*
D02*
G37*
G36*
X05855D02*
X0579D01*
X057822Y032388D01*
X057794Y03237D01*
X057736D01*
Y032315D01*
X057712Y032278D01*
X057696Y0322D01*
Y030434D01*
X056906Y029644D01*
X056862Y029578D01*
X056846Y0295D01*
Y0289D01*
X056862Y028822D01*
X056906Y028756D01*
X057106Y028556D01*
X057172Y028512D01*
X05725Y028496D01*
X0579D01*
X057978Y028512D01*
X058044Y028556D01*
X058694Y029206D01*
X058738Y029272D01*
X058754Y02935D01*
Y0322D01*
X058738Y032278D01*
X058736Y032281D01*
Y03237D01*
X058656D01*
X058628Y032388D01*
X05855Y032404D01*
D02*
G37*
G36*
X0535D02*
X05285D01*
X052772Y032388D01*
X052744Y03237D01*
X052686D01*
Y032315D01*
X052662Y032278D01*
X052646Y0322D01*
Y031181D01*
X052646D01*
Y030434D01*
X051856Y029644D01*
X051812Y029578D01*
X051796Y0295D01*
Y0289D01*
X051812Y028822D01*
X051856Y028756D01*
X052056Y028556D01*
X052122Y028512D01*
X0522Y028496D01*
X05285D01*
X052928Y028512D01*
X052994Y028556D01*
X053644Y029206D01*
X053688Y029272D01*
X053704Y02935D01*
Y0322D01*
X053688Y032278D01*
X053686Y032281D01*
Y03237D01*
X053606D01*
X053578Y032388D01*
X0535Y032404D01*
D02*
G37*
G36*
X0755Y031254D02*
X0749D01*
X074822Y031238D01*
X074756Y031194D01*
X074712Y031128D01*
X074696Y03105D01*
Y02925D01*
Y028154D01*
X071454D01*
Y02965D01*
X071438Y029728D01*
X071394Y029794D01*
X071244Y029944D01*
X070654Y030534D01*
Y03105D01*
X070638Y031128D01*
X070594Y031194D01*
X070528Y031238D01*
X07045Y031254D01*
X06985D01*
X069772Y031238D01*
X069706Y031194D01*
X069662Y031128D01*
X069646Y03105D01*
Y02925D01*
Y028154D01*
X066354D01*
Y02965D01*
X066338Y029728D01*
X066294Y029794D01*
X066144Y029944D01*
X065554Y030534D01*
Y03105D01*
X065538Y031128D01*
X065494Y031194D01*
X065428Y031238D01*
X06535Y031254D01*
X06475D01*
X064672Y031238D01*
X064606Y031194D01*
X064562Y031128D01*
X064546Y03105D01*
Y02925D01*
Y028154D01*
X061304Y028154D01*
Y02965D01*
X061288Y029728D01*
X061244Y029794D01*
X061094Y029944D01*
X060504Y030534D01*
Y03105D01*
X060488Y031128D01*
X060465Y031163D01*
Y031181D01*
X060453D01*
X060444Y031194D01*
X060378Y031238D01*
X0603Y031254D01*
X0597D01*
X059622Y031238D01*
X059556Y031194D01*
X059512Y031128D01*
X059496Y03105D01*
Y02925D01*
Y028154D01*
X056254D01*
Y02965D01*
X056238Y029728D01*
X056194Y029794D01*
X056044Y029944D01*
X055454Y030534D01*
Y03105D01*
X055438Y031128D01*
X055394Y031194D01*
X055328Y031238D01*
X05525Y031254D01*
X05465D01*
X054572Y031238D01*
X054506Y031194D01*
X054497Y031181D01*
X054462D01*
Y031129D01*
X054462Y031128D01*
X054446Y03105D01*
Y02925D01*
Y028154D01*
X051204D01*
Y02965D01*
X051188Y029728D01*
X051144Y029794D01*
X050994Y029944D01*
X050404Y030534D01*
Y03105D01*
X050388Y031128D01*
X050365Y031163D01*
Y031181D01*
X050353D01*
X050344Y031194D01*
X050278Y031238D01*
X0502Y031254D01*
X0496D01*
X049522Y031238D01*
X049456Y031194D01*
X049412Y031128D01*
X049396Y03105D01*
Y02925D01*
Y028034D01*
X047666Y026304D01*
X04455Y026304D01*
X044472Y026288D01*
X044406Y026244D01*
X044056Y025894D01*
X044012Y025828D01*
X043996Y02575D01*
Y0251D01*
X044012Y025022D01*
X044056Y024956D01*
X044306Y024706D01*
X044372Y024662D01*
X04445Y024646D01*
X044499D01*
X044512Y024596D01*
X044405Y024539D01*
X0443Y024453D01*
X044213Y024347D01*
X044149Y024227D01*
X04411Y024097D01*
X044096Y023961D01*
X04411Y023825D01*
X044149Y023695D01*
X044213Y023575D01*
X0443Y023469D01*
X044405Y023383D01*
X044526Y023318D01*
X044656Y023279D01*
X044792Y023266D01*
X044927Y023279D01*
X045058Y023318D01*
X045178Y023383D01*
X045284Y023469D01*
X04537Y023575D01*
X045434Y023695D01*
X045474Y023825D01*
X045487Y023961D01*
X045474Y024097D01*
X045434Y024227D01*
X04537Y024347D01*
X045284Y024453D01*
X045178Y024539D01*
X045072Y024596D01*
X045084Y024646D01*
X0488Y024646D01*
X048878Y024662D01*
X048944Y024706D01*
X050884Y026646D01*
X0758Y026646D01*
X075878Y026662D01*
X075944Y026706D01*
X076444Y027206D01*
X076488Y027272D01*
X076504Y02735D01*
Y02965D01*
X076488Y029728D01*
X076444Y029794D01*
X076294Y029944D01*
X075704Y030534D01*
Y03105D01*
X075688Y031128D01*
X075644Y031194D01*
X075578Y031238D01*
X0755Y031254D01*
D02*
G37*
G36*
X037949Y028494D02*
X037813Y028481D01*
X037683Y028441D01*
X037562Y028377D01*
X037472Y028303D01*
X036399D01*
X036268Y028286D01*
X036147Y028236D01*
X036042Y028155D01*
X033893Y026007D01*
X033813Y025902D01*
X033763Y025781D01*
X033746Y02565D01*
Y023709D01*
X030393Y020357D01*
X030313Y020252D01*
X030263Y020131D01*
X030246Y02D01*
Y0169D01*
X030263Y016769D01*
X030313Y016648D01*
X030393Y016543D01*
X030406Y01653D01*
Y015958D01*
X031594D01*
Y017342D01*
X031254D01*
Y019791D01*
X034607Y023143D01*
X034687Y023248D01*
X034737Y023369D01*
X034754Y0235D01*
Y025441D01*
X036608Y027294D01*
X037472D01*
X037562Y027221D01*
X037683Y027156D01*
X037813Y027117D01*
X037949Y027103D01*
X038084Y027117D01*
X038215Y027156D01*
X038335Y027221D01*
X038441Y027307D01*
X038527Y027412D01*
X038591Y027533D01*
X038631Y027663D01*
X038644Y027799D01*
X038631Y027935D01*
X038591Y028065D01*
X038527Y028185D01*
X038441Y028291D01*
X038335Y028377D01*
X038215Y028441D01*
X038084Y028481D01*
X037949Y028494D01*
D02*
G37*
G36*
X039989Y026132D02*
X039853Y026119D01*
X039722Y026079D01*
X039602Y026015D01*
X039497Y025928D01*
X03941Y025823D01*
X039346Y025703D01*
X039306Y025572D01*
X039293Y025437D01*
X039306Y025301D01*
X039346Y02517D01*
X03941Y02505D01*
X039497Y024945D01*
X039602Y024858D01*
X039722Y024794D01*
X039853Y024755D01*
X039989Y024741D01*
X040124Y024755D01*
X040255Y024794D01*
X040375Y024858D01*
X04048Y024945D01*
X040567Y02505D01*
X040631Y02517D01*
X040671Y025301D01*
X040684Y025437D01*
X040671Y025572D01*
X040631Y025703D01*
X040567Y025823D01*
X04048Y025928D01*
X040375Y026015D01*
X040255Y026079D01*
X040124Y026119D01*
X039989Y026132D01*
D02*
G37*
G36*
X037142D02*
X037006Y026119D01*
X036876Y026079D01*
X036755Y026015D01*
X03665Y025928D01*
X036563Y025823D01*
X036499Y025703D01*
X03646Y025572D01*
X036446Y025437D01*
X03646Y025301D01*
X036499Y02517D01*
X036563Y02505D01*
X03665Y024945D01*
X036755Y024858D01*
X036876Y024794D01*
X037006Y024755D01*
X037142Y024741D01*
X037277Y024755D01*
X037408Y024794D01*
X037528Y024858D01*
X037634Y024945D01*
X03772Y02505D01*
X037784Y02517D01*
X037824Y025301D01*
X037837Y025437D01*
X037824Y025572D01*
X037784Y025703D01*
X03772Y025823D01*
X037634Y025928D01*
X037528Y026015D01*
X037408Y026079D01*
X037277Y026119D01*
X037142Y026132D01*
D02*
G37*
G36*
X032339D02*
X032203Y026119D01*
X032072Y026079D01*
X031952Y026015D01*
X031847Y025928D01*
X03176Y025823D01*
X031696Y025703D01*
X031656Y025572D01*
X031643Y025437D01*
X031656Y025301D01*
X031696Y02517D01*
X03176Y02505D01*
X031847Y024945D01*
X031952Y024858D01*
X032072Y024794D01*
X032203Y024755D01*
X032339Y024741D01*
X032474Y024755D01*
X032605Y024794D01*
X032725Y024858D01*
X03283Y024945D01*
X032917Y02505D01*
X032981Y02517D01*
X033021Y025301D01*
X033034Y025437D01*
X033021Y025572D01*
X032981Y025703D01*
X032917Y025823D01*
X03283Y025928D01*
X032725Y026015D01*
X032605Y026079D01*
X032474Y026119D01*
X032339Y026132D01*
D02*
G37*
G36*
X029442D02*
X029306Y026119D01*
X029176Y026079D01*
X029055Y026015D01*
X02895Y025928D01*
X028863Y025823D01*
X028799Y025703D01*
X02876Y025572D01*
X028746Y025437D01*
X02876Y025301D01*
X028799Y02517D01*
X028863Y02505D01*
X02895Y024945D01*
X029055Y024858D01*
X029176Y024794D01*
X029306Y024755D01*
X029442Y024741D01*
X029577Y024755D01*
X029708Y024794D01*
X029828Y024858D01*
X029934Y024945D01*
X03002Y02505D01*
X030084Y02517D01*
X030124Y025301D01*
X030137Y025437D01*
X030124Y025572D01*
X030084Y025703D01*
X03002Y025823D01*
X029934Y025928D01*
X029828Y026015D01*
X029708Y026079D01*
X029577Y026119D01*
X029442Y026132D01*
D02*
G37*
G36*
X024639D02*
X024503Y026119D01*
X024372Y026079D01*
X024252Y026015D01*
X024147Y025928D01*
X02406Y025823D01*
X023996Y025703D01*
X023956Y025572D01*
X023943Y025437D01*
X023956Y025301D01*
X023996Y02517D01*
X02406Y02505D01*
X024147Y024945D01*
X024252Y024858D01*
X024372Y024794D01*
X024503Y024755D01*
X024639Y024741D01*
X024774Y024755D01*
X024905Y024794D01*
X025025Y024858D01*
X02513Y024945D01*
X025217Y02505D01*
X025281Y02517D01*
X025321Y025301D01*
X025334Y025437D01*
X025321Y025572D01*
X025281Y025703D01*
X025217Y025823D01*
X02513Y025928D01*
X025025Y026015D01*
X024905Y026079D01*
X024774Y026119D01*
X024639Y026132D01*
D02*
G37*
G36*
X039989Y024657D02*
X039853Y024643D01*
X039722Y024604D01*
X039602Y024539D01*
X039497Y024453D01*
X03941Y024347D01*
X039346Y024227D01*
X039306Y024097D01*
X039293Y023961D01*
X039306Y023825D01*
X039346Y023695D01*
X03941Y023575D01*
X039497Y023469D01*
X039602Y023383D01*
X039722Y023318D01*
X039853Y023279D01*
X039989Y023266D01*
X040124Y023279D01*
X040255Y023318D01*
X040375Y023383D01*
X04048Y023469D01*
X040567Y023575D01*
X040631Y023695D01*
X040671Y023825D01*
X040684Y023961D01*
X040671Y024097D01*
X040631Y024227D01*
X040567Y024347D01*
X04048Y024453D01*
X040375Y024539D01*
X040255Y024604D01*
X040124Y024643D01*
X039989Y024657D01*
D02*
G37*
G36*
X037142D02*
X037006Y024643D01*
X036876Y024604D01*
X036755Y024539D01*
X03665Y024453D01*
X036563Y024347D01*
X036499Y024227D01*
X03646Y024097D01*
X036446Y023961D01*
X03646Y023825D01*
X036499Y023695D01*
X036563Y023575D01*
X03665Y023469D01*
X036755Y023383D01*
X036876Y023318D01*
X037006Y023279D01*
X037142Y023266D01*
X037277Y023279D01*
X037408Y023318D01*
X037528Y023383D01*
X037634Y023469D01*
X03772Y023575D01*
X037784Y023695D01*
X037824Y023825D01*
X037837Y023961D01*
X037824Y024097D01*
X037784Y024227D01*
X03772Y024347D01*
X037634Y024453D01*
X037528Y024539D01*
X037408Y024604D01*
X037277Y024643D01*
X037142Y024657D01*
D02*
G37*
G36*
X032339D02*
X032203Y024643D01*
X032072Y024604D01*
X031952Y024539D01*
X031847Y024453D01*
X03176Y024347D01*
X031696Y024227D01*
X031656Y024097D01*
X031643Y023961D01*
X031656Y023825D01*
X031696Y023695D01*
X03176Y023575D01*
X031847Y023469D01*
X031952Y023383D01*
X032072Y023318D01*
X032203Y023279D01*
X032339Y023266D01*
X032474Y023279D01*
X032605Y023318D01*
X032725Y023383D01*
X03283Y023469D01*
X032917Y023575D01*
X032981Y023695D01*
X033021Y023825D01*
X033034Y023961D01*
X033021Y024097D01*
X032981Y024227D01*
X032917Y024347D01*
X03283Y024453D01*
X032725Y024539D01*
X032605Y024604D01*
X032474Y024643D01*
X032339Y024657D01*
D02*
G37*
G36*
X029442D02*
X029306Y024643D01*
X029176Y024604D01*
X029055Y024539D01*
X02895Y024453D01*
X028863Y024347D01*
X028799Y024227D01*
X02876Y024097D01*
X028746Y023961D01*
X02876Y023825D01*
X028799Y023695D01*
X028863Y023575D01*
X02895Y023469D01*
X029055Y023383D01*
X029176Y023318D01*
X029306Y023279D01*
X029442Y023266D01*
X029577Y023279D01*
X029708Y023318D01*
X029828Y023383D01*
X029934Y023469D01*
X03002Y023575D01*
X030084Y023695D01*
X030124Y023825D01*
X030137Y023961D01*
X030124Y024097D01*
X030084Y024227D01*
X03002Y024347D01*
X029934Y024453D01*
X029828Y024539D01*
X029708Y024604D01*
X029577Y024643D01*
X029442Y024657D01*
D02*
G37*
G36*
X030249Y022294D02*
X030113Y022281D01*
X029983Y022241D01*
X029862Y022177D01*
X029772Y022103D01*
X029049D01*
X028918Y022086D01*
X028797Y022036D01*
X028692Y021955D01*
X027843Y021107D01*
X027763Y021002D01*
X027713Y020881D01*
X027696Y02075D01*
Y01735D01*
X027713Y017219D01*
X027763Y017098D01*
X027843Y016993D01*
X028306Y01653D01*
Y015958D01*
X029494D01*
Y017342D01*
X028921D01*
X028704Y017559D01*
Y019152D01*
X028754Y019155D01*
X02876Y019101D01*
X028799Y01897D01*
X028863Y01885D01*
X02895Y018745D01*
X029055Y018658D01*
X029176Y018594D01*
X029306Y018555D01*
X029442Y018541D01*
X029577Y018555D01*
X029708Y018594D01*
X029828Y018658D01*
X029934Y018745D01*
X03002Y01885D01*
X030084Y01897D01*
X030124Y019101D01*
X030137Y019237D01*
X030124Y019372D01*
X030084Y019503D01*
X03002Y019623D01*
X029934Y019728D01*
X029828Y019815D01*
X029708Y019879D01*
X029577Y019919D01*
X029442Y019932D01*
X029306Y019919D01*
X029176Y019879D01*
X029055Y019815D01*
X02895Y019728D01*
X028863Y019623D01*
X028799Y019503D01*
X02876Y019372D01*
X028754Y019318D01*
X028704Y019321D01*
Y020541D01*
X029258Y021095D01*
X029772D01*
X029862Y021021D01*
X029983Y020956D01*
X030113Y020917D01*
X030249Y020903D01*
X030385Y020917D01*
X030515Y020956D01*
X030635Y021021D01*
X030741Y021107D01*
X030827Y021212D01*
X030891Y021333D01*
X030931Y021463D01*
X030944Y021599D01*
X030931Y021734D01*
X030891Y021865D01*
X030827Y021985D01*
X030741Y022091D01*
X030635Y022177D01*
X030515Y022241D01*
X030385Y022281D01*
X030249Y022294D01*
D02*
G37*
G36*
X044792Y019932D02*
X044656Y019919D01*
X044526Y019879D01*
X044405Y019815D01*
X0443Y019728D01*
X044213Y019623D01*
X044149Y019503D01*
X04411Y019372D01*
X044096Y019237D01*
X04411Y019101D01*
X044149Y01897D01*
X044213Y01885D01*
X0443Y018745D01*
X044405Y018658D01*
X044526Y018594D01*
X044656Y018555D01*
X044792Y018541D01*
X044927Y018555D01*
X045058Y018594D01*
X045178Y018658D01*
X045284Y018745D01*
X04537Y01885D01*
X045434Y01897D01*
X045474Y019101D01*
X045487Y019237D01*
X045474Y019372D01*
X045434Y019503D01*
X04537Y019623D01*
X045284Y019728D01*
X045178Y019815D01*
X045058Y019879D01*
X044927Y019919D01*
X044792Y019932D01*
D02*
G37*
G36*
X032339D02*
X032203Y019919D01*
X032072Y019879D01*
X031952Y019815D01*
X031847Y019728D01*
X03176Y019623D01*
X031696Y019503D01*
X031656Y019372D01*
X031643Y019237D01*
X031656Y019101D01*
X031696Y01897D01*
X03176Y01885D01*
X031847Y018745D01*
X031952Y018658D01*
X032072Y018594D01*
X032203Y018555D01*
X032339Y018541D01*
X032474Y018555D01*
X032605Y018594D01*
X032725Y018658D01*
X03283Y018745D01*
X032917Y01885D01*
X032981Y01897D01*
X033021Y019101D01*
X033034Y019237D01*
X033021Y019372D01*
X032981Y019503D01*
X032917Y019623D01*
X03283Y019728D01*
X032725Y019815D01*
X032605Y019879D01*
X032474Y019919D01*
X032339Y019932D01*
D02*
G37*
G36*
X024775Y017343D02*
X024601Y017326D01*
X024433Y017275D01*
X024279Y017193D01*
X024143Y017082D01*
X024032Y016946D01*
X02395Y016792D01*
X023899Y016624D01*
X023882Y01645D01*
X023899Y016276D01*
X02395Y016108D01*
X024032Y015954D01*
X024143Y015818D01*
X024279Y015707D01*
X024433Y015625D01*
X024601Y015574D01*
X024775Y015557D01*
X024949Y015574D01*
X025117Y015625D01*
X025271Y015707D01*
X025406Y015818D01*
X025518Y015954D01*
X0256Y016108D01*
X025651Y016276D01*
X025668Y01645D01*
X025651Y016624D01*
X0256Y016792D01*
X025518Y016946D01*
X025406Y017082D01*
X025271Y017193D01*
X025117Y017275D01*
X024949Y017326D01*
X024775Y017343D01*
D02*
G37*
%LPD*%
G36*
X07375Y02935D02*
X0731Y0287D01*
X07245D01*
X07225Y0289D01*
Y0295D01*
X0731Y03035D01*
Y0322D01*
X07375D01*
Y02935D01*
D02*
G37*
G36*
X0687D02*
X06805Y0287D01*
X0674D01*
X0672Y0289D01*
Y0295D01*
X06805Y03035D01*
Y0322D01*
X0687D01*
Y02935D01*
D02*
G37*
G36*
X0636D02*
X06295Y0287D01*
X0623D01*
X0621Y0289D01*
Y0295D01*
X06295Y03035D01*
Y0322D01*
X0636D01*
Y02935D01*
D02*
G37*
G36*
X05855D02*
X0579Y0287D01*
X05725D01*
X05705Y0289D01*
Y0295D01*
X0579Y03035D01*
Y0322D01*
X05855D01*
Y02935D01*
D02*
G37*
G36*
X0535D02*
X05285Y0287D01*
X0522D01*
X052Y0289D01*
Y0295D01*
X05285Y03035D01*
Y0322D01*
X0535D01*
Y02935D01*
D02*
G37*
G36*
X0755Y03045D02*
X07615Y0298D01*
X0763Y02965D01*
Y02735D01*
X0758Y02685D01*
X0758D01*
X0508Y02685D01*
X0488Y02485D01*
X04445Y02485D01*
X0442Y0251D01*
Y02575D01*
X04455Y0261D01*
X04775Y0261D01*
X0496Y02795D01*
X0496D01*
Y02925D01*
Y03105D01*
X0502D01*
Y03045D01*
X05085Y0298D01*
X051Y02965D01*
Y02795D01*
X05465D01*
Y02925D01*
Y03105D01*
X05525D01*
Y03045D01*
X0559Y0298D01*
X05605Y02965D01*
Y02795D01*
X0597D01*
Y02925D01*
Y03105D01*
X0603D01*
Y03045D01*
X06095Y0298D01*
X0611Y02965D01*
Y02795D01*
X06475Y02795D01*
Y02925D01*
Y03105D01*
X06535D01*
Y03045D01*
X066Y0298D01*
X06615Y02965D01*
Y02795D01*
X06985D01*
Y02925D01*
Y03105D01*
X07045D01*
Y03045D01*
X0711Y0298D01*
X07125Y02965D01*
Y02795D01*
X0749D01*
Y02925D01*
Y03105D01*
X0755D01*
Y03045D01*
D02*
G37*
D10*
X0811Y050414D02*
D03*
Y049666D02*
D03*
X0828Y049666D02*
D03*
Y050414D02*
D03*
X0845Y049666D02*
D03*
Y050414D02*
D03*
X08195Y050414D02*
D03*
Y049666D02*
D03*
X08365Y050414D02*
D03*
Y049666D02*
D03*
X08278Y033874D02*
D03*
Y033126D02*
D03*
X0805D02*
D03*
Y033874D02*
D03*
X08485Y041674D02*
D03*
Y040926D02*
D03*
X08393Y041674D02*
D03*
Y040926D02*
D03*
D11*
X080526Y0455D02*
D03*
X081274D02*
D03*
X080526Y04715D02*
D03*
X081274D02*
D03*
X080526Y04635D02*
D03*
X081274D02*
D03*
X077926Y04135D02*
D03*
X078674D02*
D03*
X078826Y04375D02*
D03*
X079574D02*
D03*
D12*
X0795Y028093D02*
D03*
X0805D02*
D03*
X081D02*
D03*
X0815D02*
D03*
X082D02*
D03*
X0825D02*
D03*
X0815Y025807D02*
D03*
X082D02*
D03*
X0825Y025806D02*
D03*
X08Y028093D02*
D03*
X081Y025807D02*
D03*
X0805D02*
D03*
X08D02*
D03*
X0795D02*
D03*
X08505D02*
D03*
X08555D02*
D03*
X08605D02*
D03*
X08655D02*
D03*
X08555Y028093D02*
D03*
X08805Y025806D02*
D03*
X08755Y025807D02*
D03*
X08705D02*
D03*
X08805Y028093D02*
D03*
X08755D02*
D03*
X08705D02*
D03*
X08655D02*
D03*
X08605D02*
D03*
X08505D02*
D03*
X08035Y037157D02*
D03*
X08085D02*
D03*
X08135D02*
D03*
X08185D02*
D03*
X08035Y039443D02*
D03*
X08085D02*
D03*
X08135D02*
D03*
X08185D02*
D03*
D13*
X08784Y03318D02*
D03*
X08784Y033895D02*
D03*
X07965Y01945D02*
D03*
X07965Y018735D02*
D03*
X0822Y01945D02*
D03*
X0822Y018735D02*
D03*
X08275Y01945D02*
D03*
X08275Y018735D02*
D03*
X0802Y01945D02*
D03*
X0802Y018735D02*
D03*
X08725D02*
D03*
X08725Y01945D02*
D03*
X0867Y018735D02*
D03*
X0867Y01945D02*
D03*
X0844Y018735D02*
D03*
X0844Y01945D02*
D03*
X08385Y018735D02*
D03*
X08385Y01945D02*
D03*
X08834Y033895D02*
D03*
X08834Y03318D02*
D03*
X08769Y039745D02*
D03*
X08769Y03903D02*
D03*
X08829Y039745D02*
D03*
X08829Y03903D02*
D03*
X07525Y031685D02*
D03*
X07525Y0324D02*
D03*
X07015Y031685D02*
D03*
X07015Y0324D02*
D03*
X06505Y031685D02*
D03*
X06505Y0324D02*
D03*
X0601Y031685D02*
D03*
X0601Y0324D02*
D03*
X055Y031685D02*
D03*
X055Y0324D02*
D03*
X04995Y031685D02*
D03*
X04995Y0324D02*
D03*
X08265Y039965D02*
D03*
X08265Y03925D02*
D03*
D14*
X0795Y02895D02*
D03*
X080215Y02895D02*
D03*
X0828Y02285D02*
D03*
X082085Y02285D02*
D03*
X0821Y0234D02*
D03*
X082815Y0234D02*
D03*
X0804Y0234D02*
D03*
X079685Y0234D02*
D03*
X0804Y02285D02*
D03*
X079685Y02285D02*
D03*
X08165Y0295D02*
D03*
X082365Y0295D02*
D03*
X0795Y0295D02*
D03*
X080215Y0295D02*
D03*
X084885Y02285D02*
D03*
X0856Y02285D02*
D03*
X084885Y0234D02*
D03*
X0856Y0234D02*
D03*
X087035Y02285D02*
D03*
X08775Y02285D02*
D03*
X087765Y0234D02*
D03*
X08705Y0234D02*
D03*
X085615Y02895D02*
D03*
X0849Y02895D02*
D03*
X085615Y0295D02*
D03*
X0849Y0295D02*
D03*
X087415Y0295D02*
D03*
X0867Y0295D02*
D03*
D15*
X08185Y020499D02*
D03*
Y021851D02*
D03*
X0829D02*
D03*
Y020499D02*
D03*
X07965Y021851D02*
D03*
Y020499D02*
D03*
X0807D02*
D03*
Y021851D02*
D03*
X08805Y020499D02*
D03*
Y021851D02*
D03*
X087D02*
D03*
Y020499D02*
D03*
X0859Y021851D02*
D03*
Y020499D02*
D03*
X08485D02*
D03*
Y021851D02*
D03*
X08265Y041831D02*
D03*
Y040769D02*
D03*
D16*
X079953Y0317D02*
D03*
X085353D02*
D03*
D17*
X082647D02*
D03*
X088047D02*
D03*
D18*
X082244Y03015D02*
D03*
X081456D02*
D03*
X079606Y03014D02*
D03*
X080394D02*
D03*
X085794Y03015D02*
D03*
X085006D02*
D03*
X086506Y03015D02*
D03*
X087294D02*
D03*
X080406Y04794D02*
D03*
X081194D02*
D03*
X080406Y04864D02*
D03*
X081194D02*
D03*
D19*
X081519Y03545D02*
D03*
X079681D02*
D03*
X081519Y04115D02*
D03*
X079681D02*
D03*
D20*
X0796Y038806D02*
D03*
Y039594D02*
D03*
X08899Y033286D02*
D03*
Y034074D02*
D03*
X08574Y039874D02*
D03*
Y039086D02*
D03*
X08654Y039874D02*
D03*
Y039086D02*
D03*
X08899Y039086D02*
D03*
Y039874D02*
D03*
D21*
X08909Y037811D02*
D03*
X08859D02*
D03*
X08814D02*
D03*
X08759D02*
D03*
X08709D02*
D03*
X08659D02*
D03*
X08609D02*
D03*
X08559D02*
D03*
X08909Y035449D02*
D03*
X08859D02*
D03*
X08809D02*
D03*
X08759D02*
D03*
X08709D02*
D03*
X08659D02*
D03*
X08609D02*
D03*
X08559D02*
D03*
D22*
X08215Y045817D02*
D03*
X08265D02*
D03*
X08315D02*
D03*
X08365D02*
D03*
X08215Y047963D02*
D03*
X08265D02*
D03*
X08315D02*
D03*
X08365D02*
D03*
D23*
X073436Y03205D02*
D03*
X074564Y032424D02*
D03*
Y031676D02*
D03*
X068386Y03205D02*
D03*
X069514Y032424D02*
D03*
Y031676D02*
D03*
X063286Y03205D02*
D03*
X064414Y032424D02*
D03*
Y031676D02*
D03*
X058236Y03205D02*
D03*
X059364Y032424D02*
D03*
Y031676D02*
D03*
X053186Y03205D02*
D03*
X054314Y032424D02*
D03*
Y031676D02*
D03*
X048136Y03205D02*
D03*
X049264Y032424D02*
D03*
Y031676D02*
D03*
D24*
X075188Y030641D02*
D03*
X073372D02*
D03*
X070139D02*
D03*
X068322D02*
D03*
X065038D02*
D03*
X063222D02*
D03*
X060038D02*
D03*
X058222D02*
D03*
X054889D02*
D03*
X053072D02*
D03*
X049939D02*
D03*
X048122D02*
D03*
D25*
X080331Y04374D02*
X08259D01*
X080414Y04394D02*
X08199D01*
X080497Y04414D02*
X08159D01*
X079621Y04445D02*
X080331Y04374D01*
X0783Y04445D02*
X079621D01*
X079704Y04465D02*
X080414Y04394D01*
X078383Y04465D02*
X079704D01*
X079787Y04485D02*
X080497Y04414D01*
X078466Y04485D02*
X079787D01*
X08058Y04434D02*
X08129D01*
X07987Y04505D02*
X08058Y04434D01*
X078549Y04505D02*
X07987D01*
X081591Y045817D02*
X08215D01*
X081274Y0455D02*
X081591Y045817D01*
X08655Y028093D02*
Y02857D01*
X08723Y02912D02*
X0874Y02895D01*
X085785Y02912D02*
X08723D01*
X085615Y02895D02*
X085785Y02912D01*
X08104Y02865D02*
X08109D01*
X081Y02861D02*
X08104Y02865D01*
X081Y028093D02*
Y02861D01*
X08655Y02528D02*
Y025807D01*
X08099Y02529D02*
X081Y0253D01*
Y025807D01*
X0776Y03305D02*
X0782Y03245D01*
X07983Y0317D02*
X079953D01*
X07908Y03245D02*
X07983Y0317D01*
X0782Y03245D02*
X07908D01*
X075678Y038928D02*
X075859Y038747D01*
X064048Y038928D02*
X075678D01*
Y039928D02*
X075859Y039747D01*
X064048Y039928D02*
X075678D01*
X047422Y047548D02*
X061579D01*
X04446Y05051D02*
X047422Y047548D01*
X04446Y05051D02*
Y053722D01*
X05893Y052548D02*
X061579D01*
X055912Y04953D02*
X05893Y052548D01*
X049203Y04953D02*
X055912D01*
X048397Y050336D02*
X049203Y04953D01*
X048397Y050336D02*
Y053722D01*
X047609Y050841D02*
Y053722D01*
X04912Y04933D02*
X056932D01*
X047609Y050841D02*
X04912Y04933D01*
X046822Y051218D02*
Y053722D01*
X04891Y04913D02*
X057882D01*
X046822Y051218D02*
X04891Y04913D01*
X04779Y04855D02*
X060192D01*
X045247Y051093D02*
X04779Y04855D01*
X045247Y051093D02*
Y053722D01*
X05915Y051548D02*
X067098D01*
X056932Y04933D02*
X05915Y051548D01*
X0593Y050548D02*
X061579D01*
X057882Y04913D02*
X0593Y050548D01*
X060208Y03325D02*
X077683D01*
X078283Y03265D02*
X081D01*
X077683Y03325D02*
X078283Y03265D01*
X05962Y03305D02*
X0776D01*
X0757Y04755D02*
X0761Y04715D01*
X075202Y048548D02*
X0762Y04755D01*
X060194Y048548D02*
X075202D01*
X06158Y04655D02*
X077049D01*
X066383Y05055D02*
X067983Y05215D01*
X06158Y05055D02*
X066383D01*
X067983Y05215D02*
X0718D01*
X067098Y051548D02*
X0679Y05235D01*
X0726D01*
X072663Y049013D02*
X0743Y05065D01*
X061386Y049013D02*
X072663D01*
X06158Y04955D02*
X0722D01*
X0733Y05065D01*
X0718Y05215D02*
X0723Y05165D01*
X061579Y050548D02*
X06158Y05055D01*
X071663Y050013D02*
X0723Y05065D01*
X061386Y050013D02*
X071663D01*
X0726Y05235D02*
X0733Y05165D01*
X0734Y05255D02*
X0743Y05165D01*
X06158Y05255D02*
X0734D01*
X061579Y052548D02*
X06158Y05255D01*
X061579Y049548D02*
X06158Y04955D01*
X060921Y049548D02*
X061579D01*
X060386Y049013D02*
X060921Y049548D01*
X061579Y047548D02*
X06158Y04755D01*
X060192Y04855D02*
X060194Y048548D01*
X06158Y04755D02*
X0757D01*
X08215Y0452D02*
Y045817D01*
X08129Y04434D02*
X08215Y0452D01*
X077049Y04655D02*
X078549Y04505D01*
X061579Y046548D02*
X06158Y04655D01*
X060921Y046548D02*
X061579D01*
X060386Y046013D02*
X060921Y046548D01*
X081274Y04635D02*
X0825D01*
X08265Y0462D01*
Y045817D02*
Y0462D01*
Y0452D02*
Y045817D01*
X08159Y04414D02*
X08265Y0452D01*
X077302Y046013D02*
X078466Y04485D01*
X061386Y046013D02*
X077302D01*
X081274Y04715D02*
X0825D01*
X08315Y0465D01*
Y045817D02*
Y0465D01*
Y0451D02*
Y045817D01*
X08199Y04394D02*
X08315Y0451D01*
X077483Y04555D02*
X078383Y04465D01*
X06158Y04555D02*
X077483D01*
X061579Y045548D02*
X06158Y04555D01*
X060921Y045548D02*
X061579D01*
X060386Y045013D02*
X060921Y045548D01*
X08365Y0448D02*
Y045817D01*
X08259Y04374D02*
X08365Y0448D01*
X077737Y045013D02*
X0783Y04445D01*
X061386Y045013D02*
X077737D01*
X07525Y0324D02*
Y03275D01*
X07015Y0324D02*
Y03275D01*
X06505Y0324D02*
Y0327D01*
X0601Y0324D02*
Y03275D01*
X055Y0324D02*
Y03275D01*
X05045Y0324D02*
X05045Y0324D01*
X04995Y0324D02*
X05045D01*
X058633Y034037D02*
X05962Y03305D01*
X05942Y034037D02*
X060208Y03325D01*
X08784Y03268D02*
Y03318D01*
X080215Y02895D02*
X080215Y02895D01*
X08885Y0294D02*
X08925Y0298D01*
Y032089D01*
X08945Y02955D02*
Y0323D01*
X08885Y02895D02*
X08945Y02955D01*
X03255Y02905D02*
X03335Y02985D01*
X02815Y02905D02*
X03255D01*
X02635Y02725D02*
X02815Y02905D01*
X02635Y02665D02*
Y02725D01*
X0609Y0445D02*
X061386Y044013D01*
X054319Y0445D02*
X0609D01*
X054115Y044013D02*
X060386D01*
X0609Y0435D02*
X061386Y043013D01*
X053884Y0435D02*
X0609D01*
X053681Y043013D02*
X060386D01*
X0385Y0266D02*
X0454Y0335D01*
X05345Y0425D02*
X0609D01*
X0456Y03315D02*
Y036783D01*
X0609Y0425D02*
X061386Y042013D01*
X0417Y02925D02*
X0456Y03315D01*
X0417Y0266D02*
Y02925D01*
X0459Y03315D02*
X0467Y03235D01*
Y0273D02*
Y03235D01*
X04615Y02675D02*
X0467Y0273D01*
X04395Y02675D02*
X04615D01*
X0435Y0263D02*
X04395Y02675D01*
X0435Y02355D02*
Y0263D01*
X04165Y0217D02*
X0435Y02355D01*
X04165Y02055D02*
Y0217D01*
X0367Y0266D02*
X0385D01*
X03575Y02565D02*
X0367Y0266D01*
X03575Y0238D02*
Y02565D01*
X03375Y0218D02*
X03575Y0238D01*
X03375Y0207D02*
Y0218D01*
X0311Y0268D02*
X03355Y02925D01*
X02915Y0268D02*
X0311D01*
X0265Y02415D02*
X02915Y0268D01*
X0265Y0205D02*
Y02415D01*
X08784Y033895D02*
Y03443D01*
X08759Y03468D02*
X08784Y03443D01*
X08759Y03468D02*
Y035449D01*
X08834Y033895D02*
Y03433D01*
X08859Y03458D01*
Y035449D01*
X08899Y034074D02*
X08909Y034174D01*
Y035449D01*
Y03623D01*
X08874Y03658D02*
X08909Y03623D01*
X08809Y03658D02*
X08874D01*
X08759Y03708D02*
X08809Y03658D01*
X08759Y03708D02*
Y037811D01*
X08899Y039086D02*
X08909Y038986D01*
Y037811D02*
Y038986D01*
X08829Y03873D02*
Y03903D01*
Y03873D02*
X08859Y03843D01*
Y037811D02*
Y03843D01*
X08769Y03888D02*
Y03903D01*
Y03888D02*
X08814Y03843D01*
Y037811D02*
Y03843D01*
X08335Y02505D02*
X08355Y02525D01*
Y0286D01*
X08265Y0295D02*
X08355Y0286D01*
X0802Y02285D02*
X0804D01*
X08005Y023D02*
X0802Y02285D01*
X08005Y023D02*
Y02415D01*
X082365Y0295D02*
X08265D01*
X08165D02*
X08165Y0295D01*
X080215Y0295D02*
X08165D01*
X082244Y030094D02*
Y03015D01*
X08165Y0295D02*
X082244Y030094D01*
X079606Y031354D02*
X079953Y0317D01*
X079606Y03014D02*
Y031354D01*
X0795Y030034D02*
X079606Y03014D01*
X0795Y0295D02*
Y030034D01*
Y02895D02*
X0795Y02895D01*
Y028093D02*
Y02895D01*
X08Y028735D02*
X080215Y02895D01*
X08Y028093D02*
Y028735D01*
X0802Y01945D02*
Y0196D01*
X07985Y01995D02*
X0802Y0196D01*
X0791Y01995D02*
X07985D01*
X07875Y0203D02*
X0791Y01995D01*
X07875Y0203D02*
Y023983D01*
X0792Y024433D01*
Y02695D01*
X0795Y02725D01*
Y028093D01*
X07965Y020499D02*
X0807D01*
X079Y021149D02*
X07965Y020499D01*
X079Y021149D02*
Y02395D01*
X0795Y02445D01*
Y025807D01*
X07965Y021851D02*
X079685Y021886D01*
Y02285D01*
Y0234D01*
Y024185D01*
X08Y0245D01*
Y025807D01*
X08185Y021851D02*
X082085Y022086D01*
Y02285D01*
X0807Y021851D02*
X08185D01*
X0804Y022151D02*
X0807Y021851D01*
X0804Y022151D02*
Y02285D01*
X08275Y018735D02*
X083035D01*
X0833Y019D01*
Y019667D01*
X08385Y020217D01*
Y024066D01*
X08305Y024866D02*
X08385Y024066D01*
X08305Y024866D02*
Y028139D01*
X082439Y02875D02*
X08305Y028139D01*
X0822Y02875D02*
X082439D01*
X082Y02855D02*
X0822Y02875D01*
X082Y028093D02*
Y02855D01*
X08275Y01945D02*
Y0195D01*
X08235Y0199D02*
X08275Y0195D01*
X08155Y0199D02*
X08235D01*
X081346Y020104D02*
X08155Y0199D01*
X081346Y020104D02*
Y020896D01*
X08165Y0212D01*
X08215D01*
X082396Y021446D01*
Y022228D01*
X0824Y022233D01*
Y02325D01*
X08225Y0234D02*
X0824Y02325D01*
X0821Y0234D02*
X08225D01*
X0804D02*
X0821D01*
X08275Y01945D02*
X0828D01*
X08365Y0203D01*
Y023983D01*
X08285Y024783D02*
X08365Y023983D01*
X08285Y024783D02*
Y0266D01*
X0825Y02695D02*
X08285Y0266D01*
X0825Y02695D02*
Y028093D01*
X082815Y0234D02*
Y023835D01*
X0815Y02515D02*
X082815Y023835D01*
X0815Y02515D02*
Y025807D01*
X0828Y021951D02*
X0829Y021851D01*
X0828Y021951D02*
Y02285D01*
X08315Y0232D01*
Y0239D01*
X082Y02505D02*
X08315Y0239D01*
X082Y02505D02*
Y025807D01*
X08345Y02095D02*
Y0239D01*
X082999Y020499D02*
X08345Y02095D01*
X08185Y020499D02*
X082999D01*
X0825Y02485D02*
X08345Y0239D01*
X0825Y02485D02*
Y025806D01*
X07965Y018735D02*
X0802D01*
X0802Y018735D02*
X0802Y018735D01*
X0802Y01665D02*
Y018735D01*
X0822Y018735D02*
X08275D01*
X0822Y018735D02*
X0822Y018735D01*
X0822Y01665D02*
Y018735D01*
X0864Y018435D02*
X0867Y018735D01*
X0864Y01665D02*
Y018435D01*
X08385Y018735D02*
X0844D01*
Y01665D02*
Y018735D01*
X084146Y020304D02*
X0844Y02005D01*
Y01945D02*
Y02005D01*
X08915Y0251D02*
Y0265D01*
X08895Y0249D02*
X08915Y0251D01*
X0886Y02705D02*
X08915Y0265D01*
X0854Y02285D02*
X0856D01*
X0853Y02295D02*
X0854Y02285D01*
X0853Y02295D02*
Y0242D01*
X0886Y02705D02*
Y02865D01*
X08775Y0295D02*
X0886Y02865D01*
X087415Y0295D02*
X08775D01*
X08775Y02285D02*
X08815Y02325D01*
Y02425D01*
X08755Y02485D02*
X08815Y02425D01*
X08755Y02485D02*
Y025807D01*
X087294Y030094D02*
Y03015D01*
X0867Y0295D02*
X087294Y030094D01*
X0867Y0295D02*
X0867Y0295D01*
X085615Y0295D02*
X0867D01*
X0849Y030044D02*
X085006Y03015D01*
X0849Y0295D02*
Y030044D01*
X08555Y028885D02*
X085615Y02895D01*
X08555Y028093D02*
Y028885D01*
X0849Y02895D02*
X08505Y0288D01*
Y028093D02*
Y0288D01*
X0868Y0199D02*
X08725Y01945D01*
X0866Y0199D02*
X0868D01*
X08645Y02005D02*
X0866Y0199D01*
X08645Y02005D02*
Y02085D01*
X0868Y0212D01*
X08735D01*
X087504Y021354D01*
Y022228D01*
X087404Y022328D02*
X087504Y022228D01*
X087404Y022328D02*
Y023046D01*
X0886Y021D02*
Y02415D01*
X088099Y020499D02*
X0886Y021D01*
X0869Y020499D02*
X088099D01*
X08845Y024667D02*
Y0264D01*
X0889Y02035D02*
Y024217D01*
X08845Y024667D02*
X0889Y024217D01*
X0891Y01985D02*
Y0243D01*
X08865Y02475D02*
X0891Y0243D01*
X08865Y02475D02*
Y0265D01*
X08725Y018735D02*
X087985D01*
X0891Y01985D01*
X0884Y02675D02*
X08865Y0265D01*
X0884Y02675D02*
Y02845D01*
X08815Y0287D02*
X0884Y02845D01*
X0877Y0287D02*
X08815D01*
X08755Y02855D02*
X0877Y0287D01*
X08755Y028093D02*
Y02855D01*
X08725Y01945D02*
X088D01*
X0889Y02035D01*
X08805Y0268D02*
X08845Y0264D01*
X08805Y0268D02*
Y028093D01*
X084146Y020304D02*
Y024196D01*
X08465Y0247D01*
Y0268D01*
X08505Y0272D01*
Y028093D01*
X0856Y0234D02*
X08705D01*
X0856Y022151D02*
X0859Y021851D01*
X0856Y022151D02*
Y02285D01*
X08485Y020499D02*
X0859D01*
X084346Y021003D02*
X08485Y020499D01*
X084346Y021003D02*
Y024046D01*
X08505Y02475D01*
Y025807D01*
X08485Y021851D02*
X084885Y021886D01*
Y02285D01*
Y0234D01*
Y024235D01*
X08555Y0249D01*
Y025807D01*
X08805Y0247D02*
X0886Y02415D01*
X08805Y0247D02*
Y025806D01*
X087765Y0234D02*
Y024285D01*
X08705Y025D02*
X087765Y024285D01*
X08705Y025D02*
Y025807D01*
X0859Y021851D02*
X0869D01*
X087035Y021986D01*
Y02285D01*
X08775Y022051D02*
X08795Y021851D01*
X08775Y022051D02*
Y02285D01*
X08705Y0234D02*
X087404Y023046D01*
X0867Y018735D02*
X08725D01*
X08315Y047963D02*
Y04834D01*
X08365Y04884D01*
Y049666D01*
X08265Y047963D02*
Y04844D01*
X08195Y04914D02*
X08265Y04844D01*
X08195Y04914D02*
Y049666D01*
X0811Y050414D02*
X08195D01*
X08195Y050414D01*
X0828D01*
Y049666D02*
X082902D01*
X08365Y050414D01*
X08365Y050414D02*
X0845D01*
X080215Y02895D02*
X080265Y029D01*
X0817D01*
X08065Y02475D02*
X08105D01*
X08005Y02415D02*
X08065Y02475D01*
X0853Y0242D02*
X0858Y0247D01*
X0867D01*
X0795Y0196D02*
X07965Y01945D01*
X0792Y0196D02*
X0795D01*
X08385Y01945D02*
Y0198D01*
X0459Y03315D02*
Y0368D01*
X0508Y03985D02*
X05345Y0425D01*
X050717Y04005D02*
X053681Y043013D01*
X050634Y04025D02*
X053884Y0435D01*
X050551Y04045D02*
X054115Y044013D01*
X050469Y04065D02*
X054319Y0445D01*
X0454Y0335D02*
Y036866D01*
X048584Y04005D01*
X050717D01*
X0456Y036783D02*
X048667Y03985D01*
X0508D01*
X0459Y0368D02*
X04875Y03965D01*
X050883D01*
X053246Y042013D01*
X060386D01*
X08265Y039965D02*
Y040769D01*
X08265Y039965D02*
X08265Y039965D01*
X034Y02665D02*
Y0343D01*
X03995Y04025D01*
X050634D01*
X039867Y04045D02*
X050551D01*
X039784Y04065D02*
X050469D01*
X03335Y02985D02*
Y034216D01*
X039784Y04065D01*
X03355Y02925D02*
Y034133D01*
X039867Y04045D01*
X081769Y041831D02*
X08265D01*
X081519Y041582D02*
X081769Y041831D01*
X081519Y04115D02*
Y041582D01*
X0813Y0312D02*
Y03235D01*
Y0312D02*
X0818Y0307D01*
X085006Y031354D02*
X085353Y0317D01*
X085006Y03015D02*
Y031354D01*
X0818Y0307D02*
X08425D01*
X084904Y031354D01*
X085006D01*
X081Y03265D02*
X0813Y03235D01*
X08784Y03268D02*
X08798Y03254D01*
X0888D01*
X08925Y032089D01*
X08834Y03293D02*
Y03318D01*
Y03293D02*
X088485Y032785D01*
X088965D01*
X08945Y0323D01*
D26*
X075678Y037928D02*
X075859Y037747D01*
X064048Y037928D02*
X075678D01*
X060386Y053013D02*
X061386D01*
X04645Y020177D02*
X047484Y021211D01*
X04645Y0176D02*
Y020177D01*
Y0176D02*
X0474Y01665D01*
X0704D02*
X0718D01*
X0744Y01925D01*
Y019835D01*
X075776Y021211D01*
X0684Y01665D02*
X0698Y01805D01*
X071D01*
X0718Y01885D01*
Y020227D01*
X072784Y021211D01*
X0662Y01665D02*
X0674Y01785D01*
X0682D01*
X0692Y01885D01*
Y019685D01*
X070726Y021211D01*
X0666Y020077D02*
X067734Y021211D01*
X0666Y01845D02*
Y020077D01*
X0662Y01805D02*
X0666Y01845D01*
X0642Y01665D02*
X0656Y01805D01*
X0662D01*
X062Y01665D02*
X0642Y01885D01*
Y019785D01*
X065626Y021211D01*
X06Y01665D02*
X0616Y01825D01*
Y020177D01*
X062634Y021211D01*
X0578Y01665D02*
X0592Y01805D01*
Y019835D01*
X060576Y021211D01*
X0558Y01665D02*
X0566Y01745D01*
Y020227D01*
X057584Y021211D01*
X0536Y01665D02*
X054Y01705D01*
Y019685D01*
X055526Y021211D01*
X0516Y01665D02*
Y020277D01*
X052534Y021211D01*
X0494Y01665D02*
Y020135D01*
X050476Y021211D01*
X061386Y053013D02*
X078023D01*
D27*
X02575Y0178D02*
Y02455D01*
Y0178D02*
X0269Y01665D01*
X0282Y01735D02*
Y02075D01*
Y01735D02*
X0289Y01665D01*
X03075Y0169D02*
Y02D01*
Y0169D02*
X031Y01665D01*
X03385Y0175D02*
Y01925D01*
X033Y01665D02*
X03385Y0175D01*
X0352Y0168D02*
Y01895D01*
X0351Y0167D02*
X0352Y0168D01*
X0371Y0167D02*
X0385Y0181D01*
X04045D01*
X0366Y02035D02*
X0389D01*
X0352Y01895D02*
X0366Y02035D01*
X036199Y021599D02*
X037949D01*
X03385Y01925D02*
X036199Y021599D01*
X02575Y02455D02*
X028999Y027799D01*
X04045Y0181D02*
X043949Y021599D01*
X045599D01*
X0389Y02035D02*
X04155Y023D01*
Y02535D01*
X043999Y027799D01*
X045599D01*
X03075Y02D02*
X03425Y0235D01*
Y02565D01*
X036399Y027799D01*
X037949D01*
X0282Y02075D02*
X029049Y021599D01*
X030249D01*
X028999Y027799D02*
X030249D01*
D28*
X0844Y01665D02*
X0844Y01665D01*
X088861Y039745D02*
X08899Y039874D01*
X08829Y039745D02*
X088861D01*
X08769D02*
X08829D01*
X075241Y031676D02*
X07525Y031685D01*
X074564Y031676D02*
X075241D01*
X069514D02*
X070141D01*
X064414D02*
X065041D01*
X059364D02*
X060041D01*
X054314D02*
X054991D01*
X049941D02*
X04995Y031685D01*
X049264Y031676D02*
X049941D01*
X08085Y039443D02*
Y03995D01*
X0806Y0402D02*
X08085Y03995D01*
X080206Y0402D02*
X0806D01*
X0796Y039594D02*
X080206Y0402D01*
X08035Y03892D02*
Y039443D01*
X08034Y03891D02*
X08036D01*
X08034D02*
X08035Y03892D01*
X08025Y0455D02*
X080526D01*
X08Y04575D02*
X08025Y0455D01*
X08Y04575D02*
Y046624D01*
X080526Y04715D01*
X0811Y048034D02*
X081194Y04794D01*
X080526Y04715D02*
Y047272D01*
X081194Y04794D01*
X0826Y03925D02*
X08265D01*
X0824Y03945D02*
X0826Y03925D01*
D29*
X0828Y050414D02*
X0831Y050714D01*
X08335Y050714D02*
X08365Y050414D01*
X0831Y050714D02*
Y0522D01*
X08215Y05315D02*
X0831Y0522D01*
X08335Y05235D02*
X08415Y05315D01*
X08335Y050714D02*
Y05235D01*
D30*
X0703Y05165D02*
D03*
X0713D02*
D03*
X0723D02*
D03*
X0733D02*
D03*
X0743D02*
D03*
Y05065D02*
D03*
X0733D02*
D03*
X0723D02*
D03*
X0713D02*
D03*
X060386Y036013D02*
D03*
Y037013D02*
D03*
Y038013D02*
D03*
Y039013D02*
D03*
Y040013D02*
D03*
Y041013D02*
D03*
Y042013D02*
D03*
Y043013D02*
D03*
Y044013D02*
D03*
Y045013D02*
D03*
Y046013D02*
D03*
Y047013D02*
D03*
Y048013D02*
D03*
Y049013D02*
D03*
Y050013D02*
D03*
Y051013D02*
D03*
Y052013D02*
D03*
Y053013D02*
D03*
X061386D02*
D03*
Y052013D02*
D03*
Y051013D02*
D03*
Y050013D02*
D03*
Y049013D02*
D03*
Y048013D02*
D03*
Y047013D02*
D03*
Y046013D02*
D03*
Y045013D02*
D03*
Y044013D02*
D03*
Y043013D02*
D03*
Y042013D02*
D03*
Y041013D02*
D03*
Y040013D02*
D03*
Y039013D02*
D03*
Y038013D02*
D03*
Y037013D02*
D03*
X075859Y036747D02*
D03*
Y037747D02*
D03*
Y038747D02*
D03*
Y039747D02*
D03*
X064048Y035928D02*
D03*
Y036928D02*
D03*
Y037928D02*
D03*
Y038928D02*
D03*
Y040928D02*
D03*
Y039928D02*
D03*
D31*
X0703Y05065D02*
D03*
D32*
X089Y051864D02*
D03*
Y01645D02*
D03*
X024775D02*
D03*
X028712Y034234D02*
D03*
X061389D02*
D03*
X050168Y051274D02*
D03*
X029499Y053526D02*
D03*
D33*
X08215Y05315D02*
D03*
X08415D02*
D03*
X080155D02*
D03*
X07816D02*
D03*
X0822Y01665D02*
D03*
X0802D02*
D03*
X0371Y0167D02*
D03*
X0351D02*
D03*
X039095D02*
D03*
X0864Y01665D02*
D03*
X0844D02*
D03*
X0289D02*
D03*
X0269D02*
D03*
X033D02*
D03*
X031D02*
D03*
X0758D02*
D03*
X0738D02*
D03*
X0704D02*
D03*
X0684D02*
D03*
X0494D02*
D03*
X0474D02*
D03*
X0536D02*
D03*
X0516D02*
D03*
X0578D02*
D03*
X0558D02*
D03*
X062D02*
D03*
X06D02*
D03*
X0662D02*
D03*
X0642D02*
D03*
D34*
X025684Y035778D02*
D03*
D35*
X024184Y037778D02*
D03*
X026684D02*
D03*
D36*
X057452Y053722D02*
D03*
X036783D02*
D03*
X03757D02*
D03*
X038358D02*
D03*
X039145D02*
D03*
X039932D02*
D03*
X04072D02*
D03*
X041507D02*
D03*
X042294D02*
D03*
X043082D02*
D03*
X052728D02*
D03*
X053515D02*
D03*
X054302D02*
D03*
X05509D02*
D03*
X055877D02*
D03*
X056665D02*
D03*
X045247D02*
D03*
X046035D02*
D03*
X046822D02*
D03*
X047609D02*
D03*
X048397D02*
D03*
X049184D02*
D03*
X049972D02*
D03*
X054696Y034037D02*
D03*
X055483D02*
D03*
X056271D02*
D03*
X057058D02*
D03*
X057846D02*
D03*
X058633D02*
D03*
X047216D02*
D03*
X048003D02*
D03*
X048791D02*
D03*
X049578D02*
D03*
X050365D02*
D03*
X051153D02*
D03*
X039735D02*
D03*
X040523D02*
D03*
X04131D02*
D03*
X042098D02*
D03*
X042885D02*
D03*
X043672D02*
D03*
X04446D02*
D03*
X05942D02*
D03*
X05194D02*
D03*
D37*
X035995Y053722D02*
D03*
X05194D02*
D03*
X04446D02*
D03*
X053909Y034037D02*
D03*
X046428D02*
D03*
X038948D02*
D03*
D38*
X061386Y036013D02*
D03*
X075859Y040747D02*
D03*
X064048Y041928D02*
D03*
D39*
X049578Y04388D02*
D03*
Y044667D02*
D03*
X048791D02*
D03*
Y04388D02*
D03*
Y043093D02*
D03*
D40*
X049578D02*
D03*
D41*
X029442Y023961D02*
D03*
Y019237D02*
D03*
X024639D02*
D03*
Y023961D02*
D03*
X030249Y021599D02*
D03*
X037142Y030161D02*
D03*
Y025437D02*
D03*
X032339D02*
D03*
Y030161D02*
D03*
X037949Y027799D02*
D03*
X029442Y030161D02*
D03*
Y025437D02*
D03*
X024639D02*
D03*
Y030161D02*
D03*
X030249Y027799D02*
D03*
X044792Y030161D02*
D03*
Y025437D02*
D03*
X039989D02*
D03*
Y030161D02*
D03*
X045599Y027799D02*
D03*
X037142Y023961D02*
D03*
Y019237D02*
D03*
X032339D02*
D03*
Y023961D02*
D03*
X037949Y021599D02*
D03*
X044792Y023961D02*
D03*
Y019237D02*
D03*
X039989D02*
D03*
Y023961D02*
D03*
X045599Y021599D02*
D03*
X047484Y029211D02*
D03*
X050476D02*
D03*
X047484Y019211D02*
D03*
Y021211D02*
D03*
Y023211D02*
D03*
X050476Y019211D02*
D03*
Y021211D02*
D03*
Y023211D02*
D03*
X052534Y029211D02*
D03*
X055526D02*
D03*
X052534Y019211D02*
D03*
Y021211D02*
D03*
Y023211D02*
D03*
X055526Y019211D02*
D03*
Y021211D02*
D03*
Y023211D02*
D03*
X057584Y029211D02*
D03*
X060576D02*
D03*
X057584Y019211D02*
D03*
Y021211D02*
D03*
Y023211D02*
D03*
X060576Y019211D02*
D03*
Y021211D02*
D03*
Y023211D02*
D03*
X062634Y029211D02*
D03*
X065626D02*
D03*
X062634Y019211D02*
D03*
Y021211D02*
D03*
Y023211D02*
D03*
X065626Y019211D02*
D03*
Y021211D02*
D03*
Y023211D02*
D03*
X067734Y029211D02*
D03*
X070726D02*
D03*
X067734Y019211D02*
D03*
Y021211D02*
D03*
Y023211D02*
D03*
X070726Y019211D02*
D03*
Y021211D02*
D03*
Y023211D02*
D03*
X072784Y029211D02*
D03*
X075776D02*
D03*
X072784Y019211D02*
D03*
Y021211D02*
D03*
Y023211D02*
D03*
X075776Y019211D02*
D03*
Y021211D02*
D03*
Y023211D02*
D03*
D42*
X076Y032D02*
D03*
X0765Y031D02*
D03*
Y027D02*
D03*
X0745Y031D02*
D03*
Y029D02*
D03*
X072Y032D02*
D03*
X0725Y031D02*
D03*
X072Y03D02*
D03*
X071Y032D02*
D03*
X0715Y031D02*
D03*
X0695D02*
D03*
Y029D02*
D03*
X067Y032D02*
D03*
X0675Y031D02*
D03*
X067Y03D02*
D03*
X066Y032D02*
D03*
X0665Y031D02*
D03*
Y029D02*
D03*
X064Y03D02*
D03*
X062Y032D02*
D03*
X0625Y031D02*
D03*
X062Y03D02*
D03*
X061Y032D02*
D03*
X0615Y031D02*
D03*
Y029D02*
D03*
X059Y03D02*
D03*
X057Y032D02*
D03*
X0575Y031D02*
D03*
X057Y03D02*
D03*
X056Y032D02*
D03*
X0565Y031D02*
D03*
Y029D02*
D03*
X054Y03D02*
D03*
X052Y032D02*
D03*
X0525Y031D02*
D03*
X052Y03D02*
D03*
X051Y032D02*
D03*
X0515Y029D02*
D03*
X049Y03D02*
D03*
Y028D02*
D03*
X0495Y025D02*
D03*
X048Y028D02*
D03*
X0475Y027D02*
D03*
X046Y024D02*
D03*
X0455Y023D02*
D03*
X045Y018D02*
D03*
X0455Y017D02*
D03*
X045Y016D02*
D03*
X044Y018D02*
D03*
X0445Y017D02*
D03*
X044Y016D02*
D03*
X043Y032D02*
D03*
Y024D02*
D03*
Y018D02*
D03*
X0435Y017D02*
D03*
X043Y016D02*
D03*
X042Y032D02*
D03*
Y018D02*
D03*
X0425Y017D02*
D03*
X042Y016D02*
D03*
X041Y032D02*
D03*
X0415Y031D02*
D03*
X041Y03D02*
D03*
Y028D02*
D03*
X0415Y017D02*
D03*
X041Y016D02*
D03*
X04Y032D02*
D03*
X0405Y031D02*
D03*
Y027D02*
D03*
Y023D02*
D03*
Y021D02*
D03*
Y017D02*
D03*
X04Y016D02*
D03*
X039Y032D02*
D03*
X0395Y031D02*
D03*
X039Y03D02*
D03*
X0395Y029D02*
D03*
X039Y028D02*
D03*
X0395Y027D02*
D03*
X039Y024D02*
D03*
X0395Y023D02*
D03*
X039Y022D02*
D03*
X038Y032D02*
D03*
X0385Y031D02*
D03*
Y029D02*
D03*
Y023D02*
D03*
X038Y016D02*
D03*
X037Y032D02*
D03*
X0375Y029D02*
D03*
Y027D02*
D03*
X037Y018D02*
D03*
X036Y032D02*
D03*
Y018D02*
D03*
Y016D02*
D03*
X035Y032D02*
D03*
X0355Y031D02*
D03*
X035Y03D02*
D03*
Y024D02*
D03*
X0345Y031D02*
D03*
X034Y016D02*
D03*
X033Y028D02*
D03*
X0335Y027D02*
D03*
X033Y018D02*
D03*
X032Y032D02*
D03*
X0325Y031D02*
D03*
Y027D02*
D03*
Y023D02*
D03*
X032Y018D02*
D03*
Y016D02*
D03*
X031Y032D02*
D03*
X0315Y031D02*
D03*
X031Y03D02*
D03*
Y024D02*
D03*
X0315Y023D02*
D03*
X031Y022D02*
D03*
X03Y032D02*
D03*
X0305Y031D02*
D03*
Y023D02*
D03*
X03Y018D02*
D03*
Y016D02*
D03*
X029Y032D02*
D03*
Y018D02*
D03*
X028Y032D02*
D03*
X0285Y031D02*
D03*
X028Y016D02*
D03*
X027Y024D02*
D03*
Y018D02*
D03*
X026Y032D02*
D03*
X0265Y029D02*
D03*
X026Y028D02*
D03*
Y016D02*
D03*
X025Y032D02*
D03*
X0255Y031D02*
D03*
X025Y022D02*
D03*
Y018D02*
D03*
X024Y032D02*
D03*
X0245Y031D02*
D03*
Y023D02*
D03*
X024Y022D02*
D03*
X0245Y021D02*
D03*
X024Y018D02*
D03*
X0855Y053D02*
D03*
X085Y052D02*
D03*
X0855Y051D02*
D03*
Y049D02*
D03*
X085Y048D02*
D03*
X0855Y047D02*
D03*
X085Y046D02*
D03*
X0855Y045D02*
D03*
X085Y044D02*
D03*
X084Y052D02*
D03*
X0845Y051D02*
D03*
Y049D02*
D03*
Y047D02*
D03*
X084Y046D02*
D03*
X0845Y045D02*
D03*
X084Y044D02*
D03*
X0835Y047D02*
D03*
X082Y052D02*
D03*
X0825Y051D02*
D03*
Y049D02*
D03*
X0815Y053D02*
D03*
X081Y052D02*
D03*
X0815Y051D02*
D03*
Y045D02*
D03*
X08Y052D02*
D03*
X0805Y051D02*
D03*
Y045D02*
D03*
X0775Y043D02*
D03*
X077Y042D02*
D03*
Y04D02*
D03*
X0775Y039D02*
D03*
X077Y038D02*
D03*
X0775Y037D02*
D03*
X077Y036D02*
D03*
X0775Y035D02*
D03*
X077Y034D02*
D03*
X0765Y037D02*
D03*
X076Y036D02*
D03*
X0765Y035D02*
D03*
X076Y034D02*
D03*
X075Y036D02*
D03*
X0755Y035D02*
D03*
X075Y034D02*
D03*
X0745Y037D02*
D03*
X074Y036D02*
D03*
X0745Y035D02*
D03*
X0735Y037D02*
D03*
X073Y036D02*
D03*
X0735Y035D02*
D03*
X0725Y037D02*
D03*
X072Y036D02*
D03*
X0725Y035D02*
D03*
X0715Y037D02*
D03*
X071Y036D02*
D03*
X0715Y035D02*
D03*
X0705Y037D02*
D03*
X07Y036D02*
D03*
X0705Y035D02*
D03*
X0695Y037D02*
D03*
X069Y036D02*
D03*
X0695Y035D02*
D03*
X0685Y037D02*
D03*
X068Y036D02*
D03*
X0685Y035D02*
D03*
X0675Y037D02*
D03*
X067Y036D02*
D03*
X0675Y035D02*
D03*
X0665Y037D02*
D03*
X066Y036D02*
D03*
X0665Y035D02*
D03*
X0655Y037D02*
D03*
X065Y036D02*
D03*
X0655Y035D02*
D03*
X0645D02*
D03*
X063Y034D02*
D03*
X0625Y035D02*
D03*
X0605D02*
D03*
X059Y036D02*
D03*
X058D02*
D03*
X0585Y035D02*
D03*
X057Y036D02*
D03*
X0575Y035D02*
D03*
X056Y036D02*
D03*
X0565Y035D02*
D03*
X055Y036D02*
D03*
X0555Y035D02*
D03*
X054Y036D02*
D03*
X0545Y035D02*
D03*
X053Y036D02*
D03*
X0535Y035D02*
D03*
X053Y034D02*
D03*
X052Y036D02*
D03*
X0525Y035D02*
D03*
X051Y036D02*
D03*
X0515Y035D02*
D03*
X05Y036D02*
D03*
X0505Y035D02*
D03*
X049Y036D02*
D03*
X0495Y035D02*
D03*
X048Y036D02*
D03*
X0485Y035D02*
D03*
X0475D02*
D03*
X0465D02*
D03*
X045Y036D02*
D03*
Y034D02*
D03*
X044Y036D02*
D03*
X0445Y035D02*
D03*
X043Y036D02*
D03*
X0435Y035D02*
D03*
X0889Y0301D02*
D03*
Y0273D02*
D03*
X08925Y0196D02*
D03*
X0889Y0189D02*
D03*
X0882Y0301D02*
D03*
X08785Y0364D02*
D03*
X0875Y0343D02*
D03*
Y0273D02*
D03*
X08785Y0266D02*
D03*
X08715Y0364D02*
D03*
X0868Y0343D02*
D03*
X08715Y0336D02*
D03*
X0868Y0329D02*
D03*
Y0315D02*
D03*
X08715Y0266D02*
D03*
Y0238D02*
D03*
X08645Y0364D02*
D03*
X0861Y0343D02*
D03*
X08645Y0336D02*
D03*
X0861Y0329D02*
D03*
X08645Y0322D02*
D03*
Y0308D02*
D03*
Y0238D02*
D03*
X0861Y0189D02*
D03*
X08575Y0364D02*
D03*
X0854Y0343D02*
D03*
X08575Y0336D02*
D03*
X0854Y0329D02*
D03*
X08575Y0308D02*
D03*
Y0238D02*
D03*
Y0196D02*
D03*
X0854Y0189D02*
D03*
X08505Y0364D02*
D03*
X0847Y0357D02*
D03*
X08505Y035D02*
D03*
X0847Y0343D02*
D03*
X08505Y0336D02*
D03*
X0847Y0329D02*
D03*
X08505Y0196D02*
D03*
X084Y0329D02*
D03*
X08435Y0322D02*
D03*
X084Y0315D02*
D03*
X0819Y0329D02*
D03*
X08225Y0238D02*
D03*
X0812Y0329D02*
D03*
X08155Y0238D02*
D03*
Y0196D02*
D03*
X0812Y0189D02*
D03*
X08085Y0308D02*
D03*
X0805Y0273D02*
D03*
X08085Y0238D02*
D03*
Y0196D02*
D03*
X08015Y0308D02*
D03*
X0798Y0273D02*
D03*
X08015Y0266D02*
D03*
X0791Y0301D02*
D03*
Y0287D02*
D03*
Y0273D02*
D03*
Y0189D02*
D03*
X0784Y0315D02*
D03*
X07875Y0308D02*
D03*
X0784Y0301D02*
D03*
X07875Y0294D02*
D03*
X0784Y0287D02*
D03*
X07875Y028D02*
D03*
X0784Y0273D02*
D03*
X07875Y0266D02*
D03*
X0784Y0259D02*
D03*
X07875Y0252D02*
D03*
X0784Y0245D02*
D03*
Y0231D02*
D03*
X07875Y0196D02*
D03*
X0784Y0189D02*
D03*
X08655Y02857D02*
D03*
X08109Y02865D02*
D03*
X08655Y02528D02*
D03*
X08099Y02529D02*
D03*
X04681Y03607D02*
D03*
X0761Y04715D02*
D03*
X0762Y04755D02*
D03*
X05155Y03045D02*
D03*
Y03095D02*
D03*
Y0315D02*
D03*
Y032D02*
D03*
X07525Y03275D02*
D03*
X07015D02*
D03*
X06505Y0327D02*
D03*
X0601Y03275D02*
D03*
X055D02*
D03*
X05045Y0324D02*
D03*
X08885Y0294D02*
D03*
X0874Y02895D02*
D03*
X08885D02*
D03*
X04165Y02055D02*
D03*
X0417Y0266D02*
D03*
X03375Y0207D02*
D03*
X034Y02665D02*
D03*
X0265Y0205D02*
D03*
X02635Y02665D02*
D03*
X08335Y02505D02*
D03*
X08895Y0249D02*
D03*
X0817Y029D02*
D03*
X08105Y02475D02*
D03*
X0867Y0247D02*
D03*
X0792Y0196D02*
D03*
X08385Y0198D02*
D03*
X0804Y046D02*
D03*
X08298Y03265D02*
D03*
X08258D02*
D03*
X08464Y03985D02*
D03*
X08503D02*
D03*
X08036Y03891D02*
D03*
X0837Y03985D02*
D03*
X0841D02*
D03*
X0838Y04255D02*
D03*
X0842D02*
D03*
X0846D02*
D03*
X085D02*
D03*
X0824Y03945D02*
D03*
X0787Y04135D02*
D03*
M02*
