M48
;Layer_Color=9474304
;FILE_FORMAT=2:4
INCH,LZ
;TYPE=PLATED
T1F00S00C0.0120
T2F00S00C0.0315
T3F00S00C0.0335
T4F00S00C0.0433
T5F00S00C0.0472
T7F00S00C0.0669
T8F00S00C0.1181
%
T01
X0784Y0189
X0791
X0792Y0196
X07875
X08085
X08155
X0812Y0189
X08385Y0198
X08505Y0196
X08575
X0861Y0189
X0854
X0889
X08925Y0196
X08895Y0249
X0889Y0273
X0875
X08785Y0266
X08715
X08655Y02528
X0867Y0247
X08645Y0238
X08715
X08575
X08225
X08155
X08085
X08105Y02475
X08099Y02529
X08015Y0266
X0805Y0273
X0798
X0791
X0784
X07875Y028
X0791Y0287
X0784
X07875Y0294
X0791Y0301
X0784
X07875Y0308
X08015
X08085
X08109Y02865
X0817Y029
X08655Y02857
X0874Y02895
X08885
Y0294
X0889Y0301
X0882
X08645Y0308
X08575
X08335Y02505
X07875Y0252
X0784Y0259
X07875Y0266
X0784Y0245
Y0231
X0765Y027
Y031
X0745
Y029
X072Y03
X0725Y031
X0715
X0695
Y029
X0665
X067Y03
X0675Y031
X0665
X064Y03
X0625Y031
X0615
X062Y03
X0615Y029
X059Y03
X057
X0575Y031
X0565
Y029
X054Y03
X052
X05155Y03045
Y03095
X0525Y031
X0515Y029
X049Y03
Y028
X048
X0475Y027
X0495Y025
X046Y024
X0455Y023
X043Y024
X0405Y023
X0395
X0385
X039Y024
Y022
X0405Y021
X04165Y02055
X042Y018
X043
X044
X045
X0455Y017
X0445
X0435
X0425
X0415
X0405
X041Y016
X042
X043
X044
X045
X04
X038
X036
Y018
X037
X033
X032
Y016
X034
X03375Y0207
X0325Y023
X0315
X035Y024
X034Y02665
X0335Y027
X0325
X033Y028
X0325Y031
X0315
X0345
X0355
X035Y03
X0375Y029
X0385
X0395
X039Y03
X0395Y031
X0405
X0415
X041Y03
Y028
X0405Y027
X0395
X039Y028
X0375Y027
X0417Y0266
X0385Y031
X0305
X031Y03
X0285Y031
X0255
X0245
X0265Y029
X026Y028
X02635Y02665
X027Y024
X0245Y023
X025Y022
X024
X0245Y021
X0265Y0205
X027Y018
X029
X03
Y016
X028
X026
X025Y018
X024
X031Y022
X0305Y023
X031Y024
Y032
X03
X029
X028
X026
X025
X024
X032
X035
X036
X037
X038
X039
X04
X041
X042
X043
X0435Y035
X0445
X045Y036
X044
X043
X04681Y03607
X0465Y035
X045Y034
X0475Y035
X0485
X0495
X0505
X0515
X0525
X0535
X0545
X0555
X0565
X0575
X0585
X059Y036
X058
X057
X056
X055
X054
X053
X052
X051
X05
X049
X048
X05045Y0324
X051Y032
X05155
X052
X05155Y0315
X053Y034
X055Y03275
X056Y032
X057
X0601Y03275
X061Y032
X062
X0605Y035
X0625
X063Y034
X0645Y035
X0655
X0665
X0675
X0685
X0695
X0705
X0715
X0725
X0735
X0745
X0755
X0765
X0775
X077Y036
X076
X075
X074
X073
X072
X071
X07
X069
X068
X067
X066
X065
X0655Y037
X0665
X0675
X0685
X0695
X0705
X0715
X0725
X0735
X0745
X0765
X0775
X077Y038
X0775Y039
X077Y04
Y042
X0775Y043
X077Y034
X076
X075
X07525Y03275
X076Y032
X072
X071
X07015Y03275
X067Y032
X066
X06505Y0327
X0784Y0315
X0812Y0329
X0819
X08258Y03265
X08298
X084Y0329
X0847
X0854
X0861
X0868
X08715Y0336
X08645
X08575
X08505
X0854Y0343
X0861
X0868
X0875
X08785Y0364
X08715
X08645
X08575
X08505
X0847Y0357
X08505Y035
X0847Y0343
X08435Y0322
X084Y0315
X0868
X08645Y0322
X08503Y03985
X08464
X0841
X0837
X0824Y03945
X08036Y03891
X0787Y04135
X0805Y045
X0815
X0804Y046
X084
X085
X0855Y045
X0845
X085Y044
X084
X0838Y04255
X0842
X0846
X085
X0855Y047
X0845
X0835
X085Y048
X0855Y049
X0845
Y051
X0855
X085Y052
X084
X082
X081
X08
X0805Y051
X0815
X0825
Y049
X0815Y053
X0855
X0762Y04755
X0761Y04715
T02
X038948Y034037
X039735
X040523
X04131
X042098
X042885
X043672
X04446
X046428
X047216
X048003
X048791
X049578
X050365
X051153
X05194
X053909
X054696
X055483
X056271
X057058
X057846
X058633
X05942
X057452Y053722
X056665
X055877
X05509
X054302
X053515
X052728
X05194
X049972
X049184
X048397
X047609
X046822
X046035
X045247
X04446
X043082
X042294
X041507
X04072
X039932
X039145
X038358
X03757
X036783
X035995
T03
X048791Y043093
Y04388
X049578
Y044667
X048791
X049578Y043093
T04
X060386Y036013
Y037013
Y038013
Y039013
Y040013
Y041013
Y042013
Y043013
Y044013
Y045013
Y046013
X061386
Y045013
Y044013
Y043013
Y042013
Y041013
Y040013
Y039013
Y038013
Y037013
Y036013
X064048Y035928
Y036928
Y037928
Y038928
Y039928
Y040928
Y041928
X075859Y040747
Y039747
Y038747
Y037747
Y036747
X0743Y05065
Y05165
X0733
X0723
X0713
X0703
Y05065
X0713
X0723
X0733
X061386Y051013
X060386
Y050013
Y049013
Y048013
Y047013
X061386
Y048013
Y049013
Y050013
Y052013
X060386
Y053013
X061386
T05
X0802Y01665
X0822
X0844
X0864
X0758
X0738
X0704
X0684
X0662
X0642
X062
X06
X0578
X0558
X0536
X0516
X0494
X0474
X039095Y0167
X0371
X0351
X033Y01665
X031
X0289
X0269
X07816Y05315
X080155
X08215
X08415
T07
X062634Y019211
Y021211
Y023211
X065626
Y021211
Y019211
X067734
Y021211
Y023211
X070726
Y021211
Y019211
X072784
Y021211
Y023211
X075776
Y021211
Y019211
Y029211
X072784
X070726
X067734
X065626
X062634
X060576
X057584
X055526
X052534
X050476
X047484
Y023211
Y021211
Y019211
X050476
Y021211
Y023211
X052534
Y021211
Y019211
X055526
Y021211
Y023211
X057584
Y021211
Y019211
X060576
Y021211
Y023211
X044792Y023961
Y025437
X045599Y027799
X044792Y030161
X039989
X037142
X037949Y027799
X037142Y025437
Y023961
X039989
Y025437
X037949Y021599
X037142Y019237
X039989
X044792
X045599Y021599
X032339Y019237
Y023961
Y025437
Y030161
X029442
X030249Y027799
X029442Y025437
Y023961
X030249Y021599
X029442Y019237
X024639
Y023961
Y025437
Y030161
T08
X089Y01645
X024775
X028712Y034234
X061389
X089Y051864
X050168Y051274
X029499Y053526
M30
