G04 Layer_Color=2752767*
%FSTAX24Y24*%
%MOIN*%
G70*
G01*
G75*
%ADD84C,0.0020*%
%ADD85C,0.0027*%
D84*
X07022Y05157D02*
Y05173D01*
X07038D01*
Y05157D01*
X07022D01*
X07122D02*
Y05173D01*
X07138D01*
Y05157D01*
X07122D01*
X07222D02*
Y05173D01*
X07238D01*
Y05157D01*
X07222D01*
X07322D02*
Y05173D01*
X07338D01*
Y05157D01*
X07322D01*
X07422D02*
Y05173D01*
X07438D01*
Y05157D01*
X07422D01*
Y05057D02*
Y05073D01*
X07438D01*
Y05057D01*
X07422D01*
X07322D02*
Y05073D01*
X07338D01*
Y05057D01*
X07322D01*
X07222D02*
Y05073D01*
X07238D01*
Y05057D01*
X07222D01*
X07122D02*
Y05073D01*
X07138D01*
Y05057D01*
X07122D01*
X07022D02*
Y05073D01*
X07038D01*
Y05057D01*
X07022D01*
X08215Y05307D02*
X08207Y05323D01*
X08223D01*
X08215Y05307D01*
X08415D02*
X08407Y05323D01*
X08423D01*
X08415Y05307D01*
X080155D02*
X080075Y05323D01*
X080235D01*
X080155Y05307D01*
X07816D02*
X07808Y05323D01*
X07824D01*
X07816Y05307D01*
X0822Y01657D02*
X08212Y01673D01*
X08228D01*
X0822Y01657D01*
X0802D02*
X08012Y01673D01*
X08028D01*
X0802Y01657D01*
X0371Y01662D02*
X03702Y01678D01*
X03718D01*
X0371Y01662D01*
X0351D02*
X03502Y01678D01*
X03518D01*
X0351Y01662D01*
X039095D02*
X039015Y01678D01*
X039175D01*
X039095Y01662D01*
X025684Y035698D02*
X025724Y035738D01*
X025764D01*
X025724Y035778D01*
X025764Y035818D01*
X025724D01*
X025684Y035858D01*
X025644Y035818D01*
X025604D01*
X025644Y035778D01*
X025604Y035738D01*
X025644D01*
X025684Y035698D01*
X024184Y037698D02*
X024224Y037738D01*
X024264D01*
X024224Y037778D01*
X024264Y037818D01*
X024224D01*
X024184Y037858D01*
X024144Y037818D01*
X024104D01*
X024144Y037778D01*
X024104Y037738D01*
X024144D01*
X024184Y037698D01*
X026684D02*
X026724Y037738D01*
X026764D01*
X026724Y037778D01*
X026764Y037818D01*
X026724D01*
X026684Y037858D01*
X026644Y037818D01*
X026604D01*
X026644Y037778D01*
X026604Y037738D01*
X026644D01*
X026684Y037698D01*
X057372Y053642D02*
X057412Y053722D01*
X057372Y053802D01*
X057452Y053762D01*
X057532Y053802D01*
X057492Y053722D01*
X057532Y053642D01*
X057452Y053682D01*
X057372Y053642D01*
X035915D02*
X035955Y053722D01*
X035915Y053802D01*
X035995Y053762D01*
X036075Y053802D01*
X036035Y053722D01*
X036075Y053642D01*
X035995Y053682D01*
X035915Y053642D01*
X036703D02*
X036743Y053722D01*
X036703Y053802D01*
X036783Y053762D01*
X036863Y053802D01*
X036823Y053722D01*
X036863Y053642D01*
X036783Y053682D01*
X036703Y053642D01*
X03749D02*
X03753Y053722D01*
X03749Y053802D01*
X03757Y053762D01*
X03765Y053802D01*
X03761Y053722D01*
X03765Y053642D01*
X03757Y053682D01*
X03749Y053642D01*
X038277D02*
X038317Y053722D01*
X038277Y053802D01*
X038358Y053762D01*
X038438Y053802D01*
X038398Y053722D01*
X038438Y053642D01*
X038358Y053682D01*
X038277Y053642D01*
X039065D02*
X039105Y053722D01*
X039065Y053802D01*
X039145Y053762D01*
X039225Y053802D01*
X039185Y053722D01*
X039225Y053642D01*
X039145Y053682D01*
X039065Y053642D01*
X039852D02*
X039892Y053722D01*
X039852Y053802D01*
X039932Y053762D01*
X040012Y053802D01*
X039972Y053722D01*
X040012Y053642D01*
X039932Y053682D01*
X039852Y053642D01*
X04064D02*
X04068Y053722D01*
X04064Y053802D01*
X04072Y053762D01*
X0408Y053802D01*
X04076Y053722D01*
X0408Y053642D01*
X04072Y053682D01*
X04064Y053642D01*
X041427D02*
X041467Y053722D01*
X041427Y053802D01*
X041507Y053762D01*
X041587Y053802D01*
X041547Y053722D01*
X041587Y053642D01*
X041507Y053682D01*
X041427Y053642D01*
X042214D02*
X042254Y053722D01*
X042214Y053802D01*
X042294Y053762D01*
X042374Y053802D01*
X042334Y053722D01*
X042374Y053642D01*
X042294Y053682D01*
X042214Y053642D01*
X043002D02*
X043042Y053722D01*
X043002Y053802D01*
X043082Y053762D01*
X043162Y053802D01*
X043122Y053722D01*
X043162Y053642D01*
X043082Y053682D01*
X043002Y053642D01*
X060306Y035933D02*
Y036093D01*
X060466D01*
Y035933D01*
X060306D01*
Y036933D02*
Y037093D01*
X060466D01*
Y036933D01*
X060306D01*
Y037933D02*
Y038093D01*
X060466D01*
Y037933D01*
X060306D01*
Y038933D02*
Y039093D01*
X060466D01*
Y038933D01*
X060306D01*
Y039933D02*
Y040093D01*
X060466D01*
Y039933D01*
X060306D01*
Y040933D02*
Y041093D01*
X060466D01*
Y040933D01*
X060306D01*
Y041933D02*
Y042093D01*
X060466D01*
Y041933D01*
X060306D01*
Y042933D02*
Y043093D01*
X060466D01*
Y042933D01*
X060306D01*
Y043933D02*
Y044093D01*
X060466D01*
Y043933D01*
X060306D01*
Y044933D02*
Y045093D01*
X060466D01*
Y044933D01*
X060306D01*
Y045933D02*
Y046093D01*
X060466D01*
Y045933D01*
X060306D01*
Y046933D02*
Y047093D01*
X060466D01*
Y046933D01*
X060306D01*
Y047933D02*
Y048093D01*
X060466D01*
Y047933D01*
X060306D01*
Y048933D02*
Y049093D01*
X060466D01*
Y048933D01*
X060306D01*
Y049933D02*
Y050093D01*
X060466D01*
Y049933D01*
X060306D01*
Y050933D02*
Y051093D01*
X060466D01*
Y050933D01*
X060306D01*
Y051933D02*
Y052093D01*
X060466D01*
Y051933D01*
X060306D01*
Y052933D02*
Y053093D01*
X060466D01*
Y052933D01*
X060306D01*
X061306D02*
Y053093D01*
X061466D01*
Y052933D01*
X061306D01*
Y051933D02*
Y052093D01*
X061466D01*
Y051933D01*
X061306D01*
Y050933D02*
Y051093D01*
X061466D01*
Y050933D01*
X061306D01*
Y049933D02*
Y050093D01*
X061466D01*
Y049933D01*
X061306D01*
Y048933D02*
Y049093D01*
X061466D01*
Y048933D01*
X061306D01*
Y047933D02*
Y048093D01*
X061466D01*
Y047933D01*
X061306D01*
Y046933D02*
Y047093D01*
X061466D01*
Y046933D01*
X061306D01*
Y045933D02*
Y046093D01*
X061466D01*
Y045933D01*
X061306D01*
Y044933D02*
Y045093D01*
X061466D01*
Y044933D01*
X061306D01*
Y043933D02*
Y044093D01*
X061466D01*
Y043933D01*
X061306D01*
Y042933D02*
Y043093D01*
X061466D01*
Y042933D01*
X061306D01*
Y041933D02*
Y042093D01*
X061466D01*
Y041933D01*
X061306D01*
Y040933D02*
Y041093D01*
X061466D01*
Y040933D01*
X061306D01*
Y039933D02*
Y040093D01*
X061466D01*
Y039933D01*
X061306D01*
Y038933D02*
Y039093D01*
X061466D01*
Y038933D01*
X061306D01*
Y037933D02*
Y038093D01*
X061466D01*
Y037933D01*
X061306D01*
Y036933D02*
Y037093D01*
X061466D01*
Y036933D01*
X061306D01*
Y035933D02*
Y036093D01*
X061466D01*
Y035933D01*
X061306D01*
X05186Y053642D02*
X0519Y053722D01*
X05186Y053802D01*
X05194Y053762D01*
X05202Y053802D01*
X05198Y053722D01*
X05202Y053642D01*
X05194Y053682D01*
X05186Y053642D01*
X052648D02*
X052688Y053722D01*
X052648Y053802D01*
X052728Y053762D01*
X052808Y053802D01*
X052768Y053722D01*
X052808Y053642D01*
X052728Y053682D01*
X052648Y053642D01*
X053435D02*
X053475Y053722D01*
X053435Y053802D01*
X053515Y053762D01*
X053595Y053802D01*
X053555Y053722D01*
X053595Y053642D01*
X053515Y053682D01*
X053435Y053642D01*
X054222D02*
X054262Y053722D01*
X054222Y053802D01*
X054302Y053762D01*
X054382Y053802D01*
X054342Y053722D01*
X054382Y053642D01*
X054302Y053682D01*
X054222Y053642D01*
X05501D02*
X05505Y053722D01*
X05501Y053802D01*
X05509Y053762D01*
X05517Y053802D01*
X05513Y053722D01*
X05517Y053642D01*
X05509Y053682D01*
X05501Y053642D01*
X055797D02*
X055837Y053722D01*
X055797Y053802D01*
X055877Y053762D01*
X055957Y053802D01*
X055917Y053722D01*
X055957Y053642D01*
X055877Y053682D01*
X055797Y053642D01*
X056585D02*
X056625Y053722D01*
X056585Y053802D01*
X056665Y053762D01*
X056745Y053802D01*
X056705Y053722D01*
X056745Y053642D01*
X056665Y053682D01*
X056585Y053642D01*
X04438D02*
X04442Y053722D01*
X04438Y053802D01*
X04446Y053762D01*
X04454Y053802D01*
X0445Y053722D01*
X04454Y053642D01*
X04446Y053682D01*
X04438Y053642D01*
X045167D02*
X045207Y053722D01*
X045167Y053802D01*
X045247Y053762D01*
X045327Y053802D01*
X045287Y053722D01*
X045327Y053642D01*
X045247Y053682D01*
X045167Y053642D01*
X045955D02*
X045995Y053722D01*
X045955Y053802D01*
X046035Y053762D01*
X046115Y053802D01*
X046075Y053722D01*
X046115Y053642D01*
X046035Y053682D01*
X045955Y053642D01*
X046742D02*
X046782Y053722D01*
X046742Y053802D01*
X046822Y053762D01*
X046902Y053802D01*
X046862Y053722D01*
X046902Y053642D01*
X046822Y053682D01*
X046742Y053642D01*
X047529D02*
X047569Y053722D01*
X047529Y053802D01*
X047609Y053762D01*
X047689Y053802D01*
X047649Y053722D01*
X047689Y053642D01*
X047609Y053682D01*
X047529Y053642D01*
X048317D02*
X048357Y053722D01*
X048317Y053802D01*
X048397Y053762D01*
X048477Y053802D01*
X048437Y053722D01*
X048477Y053642D01*
X048397Y053682D01*
X048317Y053642D01*
X049104D02*
X049144Y053722D01*
X049104Y053802D01*
X049184Y053762D01*
X049264Y053802D01*
X049224Y053722D01*
X049264Y053642D01*
X049184Y053682D01*
X049104Y053642D01*
X049892D02*
X049932Y053722D01*
X049892Y053802D01*
X049972Y053762D01*
X050052Y053802D01*
X050012Y053722D01*
X050052Y053642D01*
X049972Y053682D01*
X049892Y053642D01*
X053829Y033957D02*
X053869Y034037D01*
X053829Y034117D01*
X053909Y034077D01*
X053989Y034117D01*
X053949Y034037D01*
X053989Y033957D01*
X053909Y033997D01*
X053829Y033957D01*
X054616D02*
X054656Y034037D01*
X054616Y034117D01*
X054696Y034077D01*
X054776Y034117D01*
X054736Y034037D01*
X054776Y033957D01*
X054696Y033997D01*
X054616Y033957D01*
X055403D02*
X055443Y034037D01*
X055403Y034117D01*
X055483Y034077D01*
X055563Y034117D01*
X055523Y034037D01*
X055563Y033957D01*
X055483Y033997D01*
X055403Y033957D01*
X056191D02*
X056231Y034037D01*
X056191Y034117D01*
X056271Y034077D01*
X056351Y034117D01*
X056311Y034037D01*
X056351Y033957D01*
X056271Y033997D01*
X056191Y033957D01*
X056978D02*
X057018Y034037D01*
X056978Y034117D01*
X057058Y034077D01*
X057138Y034117D01*
X057098Y034037D01*
X057138Y033957D01*
X057058Y033997D01*
X056978Y033957D01*
X057766D02*
X057806Y034037D01*
X057766Y034117D01*
X057846Y034077D01*
X057926Y034117D01*
X057886Y034037D01*
X057926Y033957D01*
X057846Y033997D01*
X057766Y033957D01*
X058553D02*
X058593Y034037D01*
X058553Y034117D01*
X058633Y034077D01*
X058713Y034117D01*
X058673Y034037D01*
X058713Y033957D01*
X058633Y033997D01*
X058553Y033957D01*
X046348D02*
X046388Y034037D01*
X046348Y034117D01*
X046428Y034077D01*
X046508Y034117D01*
X046468Y034037D01*
X046508Y033957D01*
X046428Y033997D01*
X046348Y033957D01*
X047136D02*
X047176Y034037D01*
X047136Y034117D01*
X047216Y034077D01*
X047296Y034117D01*
X047256Y034037D01*
X047296Y033957D01*
X047216Y033997D01*
X047136Y033957D01*
X047923D02*
X047963Y034037D01*
X047923Y034117D01*
X048003Y034077D01*
X048083Y034117D01*
X048043Y034037D01*
X048083Y033957D01*
X048003Y033997D01*
X047923Y033957D01*
X048711D02*
X048751Y034037D01*
X048711Y034117D01*
X048791Y034077D01*
X048871Y034117D01*
X048831Y034037D01*
X048871Y033957D01*
X048791Y033997D01*
X048711Y033957D01*
X049498D02*
X049538Y034037D01*
X049498Y034117D01*
X049578Y034077D01*
X049658Y034117D01*
X049618Y034037D01*
X049658Y033957D01*
X049578Y033997D01*
X049498Y033957D01*
X050285D02*
X050325Y034037D01*
X050285Y034117D01*
X050365Y034077D01*
X050445Y034117D01*
X050405Y034037D01*
X050445Y033957D01*
X050365Y033997D01*
X050285Y033957D01*
X051073D02*
X051113Y034037D01*
X051073Y034117D01*
X051153Y034077D01*
X051233Y034117D01*
X051193Y034037D01*
X051233Y033957D01*
X051153Y033997D01*
X051073Y033957D01*
X038868D02*
X038908Y034037D01*
X038868Y034117D01*
X038948Y034077D01*
X039028Y034117D01*
X038988Y034037D01*
X039028Y033957D01*
X038948Y033997D01*
X038868Y033957D01*
X039655D02*
X039695Y034037D01*
X039655Y034117D01*
X039735Y034077D01*
X039815Y034117D01*
X039775Y034037D01*
X039815Y033957D01*
X039735Y033997D01*
X039655Y033957D01*
X040443D02*
X040483Y034037D01*
X040443Y034117D01*
X040523Y034077D01*
X040603Y034117D01*
X040563Y034037D01*
X040603Y033957D01*
X040523Y033997D01*
X040443Y033957D01*
X04123D02*
X04127Y034037D01*
X04123Y034117D01*
X04131Y034077D01*
X04139Y034117D01*
X04135Y034037D01*
X04139Y033957D01*
X04131Y033997D01*
X04123Y033957D01*
X042018D02*
X042058Y034037D01*
X042018Y034117D01*
X042098Y034077D01*
X042178Y034117D01*
X042138Y034037D01*
X042178Y033957D01*
X042098Y033997D01*
X042018Y033957D01*
X042805D02*
X042845Y034037D01*
X042805Y034117D01*
X042885Y034077D01*
X042965Y034117D01*
X042925Y034037D01*
X042965Y033957D01*
X042885Y033997D01*
X042805Y033957D01*
X043592D02*
X043632Y034037D01*
X043592Y034117D01*
X043672Y034077D01*
X043752Y034117D01*
X043712Y034037D01*
X043752Y033957D01*
X043672Y033997D01*
X043592Y033957D01*
X04438D02*
X04442Y034037D01*
X04438Y034117D01*
X04446Y034077D01*
X04454Y034117D01*
X0445Y034037D01*
X04454Y033957D01*
X04446Y033997D01*
X04438Y033957D01*
X05934D02*
X05938Y034037D01*
X05934Y034117D01*
X05942Y034077D01*
X0595Y034117D01*
X05946Y034037D01*
X0595Y033957D01*
X05942Y033997D01*
X05934Y033957D01*
X05186D02*
X0519Y034037D01*
X05186Y034117D01*
X05194Y034077D01*
X05202Y034117D01*
X05198Y034037D01*
X05202Y033957D01*
X05194Y033997D01*
X05186Y033957D01*
X049538Y04384D02*
Y0438D01*
X049618D01*
Y04384D01*
X049658D01*
Y04392D01*
X049618D01*
Y04396D01*
X049538D01*
Y04392D01*
X049498D01*
Y04384D01*
X049538D01*
Y044627D02*
Y044587D01*
X049618D01*
Y044627D01*
X049658D01*
Y044707D01*
X049618D01*
Y044747D01*
X049538D01*
Y044707D01*
X049498D01*
Y044627D01*
X049538D01*
X048751D02*
Y044587D01*
X048831D01*
Y044627D01*
X048871D01*
Y044707D01*
X048831D01*
Y044747D01*
X048751D01*
Y044707D01*
X048711D01*
Y044627D01*
X048751D01*
Y04384D02*
Y0438D01*
X048831D01*
Y04384D01*
X048871D01*
Y04392D01*
X048831D01*
Y04396D01*
X048751D01*
Y04392D01*
X048711D01*
Y04384D01*
X048751D01*
Y043053D02*
Y043013D01*
X048831D01*
Y043053D01*
X048871D01*
Y043133D01*
X048831D01*
Y043173D01*
X048751D01*
Y043133D01*
X048711D01*
Y043053D01*
X048751D01*
X049538D02*
Y043013D01*
X049618D01*
Y043053D01*
X049658D01*
Y043133D01*
X049618D01*
Y043173D01*
X049538D01*
Y043133D01*
X049498D01*
Y043053D01*
X049538D01*
X075779Y036667D02*
Y036827D01*
X075939D01*
Y036667D01*
X075779D01*
Y037667D02*
Y037827D01*
X075939D01*
Y037667D01*
X075779D01*
Y038667D02*
Y038827D01*
X075939D01*
Y038667D01*
X075779D01*
Y039667D02*
Y039827D01*
X075939D01*
Y039667D01*
X075779D01*
Y040667D02*
Y040827D01*
X075939D01*
Y040667D01*
X075779D01*
X063968Y035848D02*
Y036008D01*
X064128D01*
Y035848D01*
X063968D01*
Y036848D02*
Y037008D01*
X064128D01*
Y036848D01*
X063968D01*
Y037848D02*
Y038008D01*
X064128D01*
Y037848D01*
X063968D01*
Y038848D02*
Y039008D01*
X064128D01*
Y038848D01*
X063968D01*
Y040848D02*
Y041008D01*
X064128D01*
Y040848D01*
X063968D01*
Y041848D02*
Y042008D01*
X064128D01*
Y041848D01*
X063968D01*
Y039848D02*
Y040008D01*
X064128D01*
Y039848D01*
X063968D01*
X029362Y023881D02*
X029402D01*
X029442Y023921D01*
X029482Y023881D01*
X029522D01*
Y023921D01*
X029482Y023961D01*
X029522Y024001D01*
Y024041D01*
X029482D01*
X029442Y024001D01*
X029402Y024041D01*
X029362D01*
Y024001D01*
X029402Y023961D01*
X029362Y023921D01*
Y023881D01*
Y019157D02*
X029402D01*
X029442Y019197D01*
X029482Y019157D01*
X029522D01*
Y019197D01*
X029482Y019237D01*
X029522Y019277D01*
Y019317D01*
X029482D01*
X029442Y019277D01*
X029402Y019317D01*
X029362D01*
Y019277D01*
X029402Y019237D01*
X029362Y019197D01*
Y019157D01*
X024559D02*
X024599D01*
X024639Y019197D01*
X024679Y019157D01*
X024719D01*
Y019197D01*
X024679Y019237D01*
X024719Y019277D01*
Y019317D01*
X024679D01*
X024639Y019277D01*
X024599Y019317D01*
X024559D01*
Y019277D01*
X024599Y019237D01*
X024559Y019197D01*
Y019157D01*
Y023881D02*
X024599D01*
X024639Y023921D01*
X024679Y023881D01*
X024719D01*
Y023921D01*
X024679Y023961D01*
X024719Y024001D01*
Y024041D01*
X024679D01*
X024639Y024001D01*
X024599Y024041D01*
X024559D01*
Y024001D01*
X024599Y023961D01*
X024559Y023921D01*
Y023881D01*
X030169Y021519D02*
X030209D01*
X030249Y021559D01*
X030289Y021519D01*
X030329D01*
Y021559D01*
X030289Y021599D01*
X030329Y021639D01*
Y021679D01*
X030289D01*
X030249Y021639D01*
X030209Y021679D01*
X030169D01*
Y021639D01*
X030209Y021599D01*
X030169Y021559D01*
Y021519D01*
X037062Y030081D02*
X037102D01*
X037142Y030121D01*
X037182Y030081D01*
X037222D01*
Y030121D01*
X037182Y030161D01*
X037222Y030201D01*
Y030241D01*
X037182D01*
X037142Y030201D01*
X037102Y030241D01*
X037062D01*
Y030201D01*
X037102Y030161D01*
X037062Y030121D01*
Y030081D01*
Y025357D02*
X037102D01*
X037142Y025397D01*
X037182Y025357D01*
X037222D01*
Y025397D01*
X037182Y025437D01*
X037222Y025477D01*
Y025517D01*
X037182D01*
X037142Y025477D01*
X037102Y025517D01*
X037062D01*
Y025477D01*
X037102Y025437D01*
X037062Y025397D01*
Y025357D01*
X032259D02*
X032299D01*
X032339Y025397D01*
X032379Y025357D01*
X032419D01*
Y025397D01*
X032379Y025437D01*
X032419Y025477D01*
Y025517D01*
X032379D01*
X032339Y025477D01*
X032299Y025517D01*
X032259D01*
Y025477D01*
X032299Y025437D01*
X032259Y025397D01*
Y025357D01*
Y030081D02*
X032299D01*
X032339Y030121D01*
X032379Y030081D01*
X032419D01*
Y030121D01*
X032379Y030161D01*
X032419Y030201D01*
Y030241D01*
X032379D01*
X032339Y030201D01*
X032299Y030241D01*
X032259D01*
Y030201D01*
X032299Y030161D01*
X032259Y030121D01*
Y030081D01*
X037869Y027719D02*
X037909D01*
X037949Y027759D01*
X037989Y027719D01*
X038029D01*
Y027759D01*
X037989Y027799D01*
X038029Y027839D01*
Y027879D01*
X037989D01*
X037949Y027839D01*
X037909Y027879D01*
X037869D01*
Y027839D01*
X037909Y027799D01*
X037869Y027759D01*
Y027719D01*
X029362Y030081D02*
X029402D01*
X029442Y030121D01*
X029482Y030081D01*
X029522D01*
Y030121D01*
X029482Y030161D01*
X029522Y030201D01*
Y030241D01*
X029482D01*
X029442Y030201D01*
X029402Y030241D01*
X029362D01*
Y030201D01*
X029402Y030161D01*
X029362Y030121D01*
Y030081D01*
Y025357D02*
X029402D01*
X029442Y025397D01*
X029482Y025357D01*
X029522D01*
Y025397D01*
X029482Y025437D01*
X029522Y025477D01*
Y025517D01*
X029482D01*
X029442Y025477D01*
X029402Y025517D01*
X029362D01*
Y025477D01*
X029402Y025437D01*
X029362Y025397D01*
Y025357D01*
X024559D02*
X024599D01*
X024639Y025397D01*
X024679Y025357D01*
X024719D01*
Y025397D01*
X024679Y025437D01*
X024719Y025477D01*
Y025517D01*
X024679D01*
X024639Y025477D01*
X024599Y025517D01*
X024559D01*
Y025477D01*
X024599Y025437D01*
X024559Y025397D01*
Y025357D01*
Y030081D02*
X024599D01*
X024639Y030121D01*
X024679Y030081D01*
X024719D01*
Y030121D01*
X024679Y030161D01*
X024719Y030201D01*
Y030241D01*
X024679D01*
X024639Y030201D01*
X024599Y030241D01*
X024559D01*
Y030201D01*
X024599Y030161D01*
X024559Y030121D01*
Y030081D01*
X030169Y027719D02*
X030209D01*
X030249Y027759D01*
X030289Y027719D01*
X030329D01*
Y027759D01*
X030289Y027799D01*
X030329Y027839D01*
Y027879D01*
X030289D01*
X030249Y027839D01*
X030209Y027879D01*
X030169D01*
Y027839D01*
X030209Y027799D01*
X030169Y027759D01*
Y027719D01*
X044712Y030081D02*
X044752D01*
X044792Y030121D01*
X044832Y030081D01*
X044872D01*
Y030121D01*
X044832Y030161D01*
X044872Y030201D01*
Y030241D01*
X044832D01*
X044792Y030201D01*
X044752Y030241D01*
X044712D01*
Y030201D01*
X044752Y030161D01*
X044712Y030121D01*
Y030081D01*
Y025357D02*
X044752D01*
X044792Y025397D01*
X044832Y025357D01*
X044872D01*
Y025397D01*
X044832Y025437D01*
X044872Y025477D01*
Y025517D01*
X044832D01*
X044792Y025477D01*
X044752Y025517D01*
X044712D01*
Y025477D01*
X044752Y025437D01*
X044712Y025397D01*
Y025357D01*
X039909D02*
X039949D01*
X039989Y025397D01*
X040029Y025357D01*
X040069D01*
Y025397D01*
X040029Y025437D01*
X040069Y025477D01*
Y025517D01*
X040029D01*
X039989Y025477D01*
X039949Y025517D01*
X039909D01*
Y025477D01*
X039949Y025437D01*
X039909Y025397D01*
Y025357D01*
Y030081D02*
X039949D01*
X039989Y030121D01*
X040029Y030081D01*
X040069D01*
Y030121D01*
X040029Y030161D01*
X040069Y030201D01*
Y030241D01*
X040029D01*
X039989Y030201D01*
X039949Y030241D01*
X039909D01*
Y030201D01*
X039949Y030161D01*
X039909Y030121D01*
Y030081D01*
X045519Y027719D02*
X045559D01*
X045599Y027759D01*
X045639Y027719D01*
X045679D01*
Y027759D01*
X045639Y027799D01*
X045679Y027839D01*
Y027879D01*
X045639D01*
X045599Y027839D01*
X045559Y027879D01*
X045519D01*
Y027839D01*
X045559Y027799D01*
X045519Y027759D01*
Y027719D01*
X037062Y023881D02*
X037102D01*
X037142Y023921D01*
X037182Y023881D01*
X037222D01*
Y023921D01*
X037182Y023961D01*
X037222Y024001D01*
Y024041D01*
X037182D01*
X037142Y024001D01*
X037102Y024041D01*
X037062D01*
Y024001D01*
X037102Y023961D01*
X037062Y023921D01*
Y023881D01*
Y019157D02*
X037102D01*
X037142Y019197D01*
X037182Y019157D01*
X037222D01*
Y019197D01*
X037182Y019237D01*
X037222Y019277D01*
Y019317D01*
X037182D01*
X037142Y019277D01*
X037102Y019317D01*
X037062D01*
Y019277D01*
X037102Y019237D01*
X037062Y019197D01*
Y019157D01*
X032259D02*
X032299D01*
X032339Y019197D01*
X032379Y019157D01*
X032419D01*
Y019197D01*
X032379Y019237D01*
X032419Y019277D01*
Y019317D01*
X032379D01*
X032339Y019277D01*
X032299Y019317D01*
X032259D01*
Y019277D01*
X032299Y019237D01*
X032259Y019197D01*
Y019157D01*
Y023881D02*
X032299D01*
X032339Y023921D01*
X032379Y023881D01*
X032419D01*
Y023921D01*
X032379Y023961D01*
X032419Y024001D01*
Y024041D01*
X032379D01*
X032339Y024001D01*
X032299Y024041D01*
X032259D01*
Y024001D01*
X032299Y023961D01*
X032259Y023921D01*
Y023881D01*
X037869Y021519D02*
X037909D01*
X037949Y021559D01*
X037989Y021519D01*
X038029D01*
Y021559D01*
X037989Y021599D01*
X038029Y021639D01*
Y021679D01*
X037989D01*
X037949Y021639D01*
X037909Y021679D01*
X037869D01*
Y021639D01*
X037909Y021599D01*
X037869Y021559D01*
Y021519D01*
X044712Y023881D02*
X044752D01*
X044792Y023921D01*
X044832Y023881D01*
X044872D01*
Y023921D01*
X044832Y023961D01*
X044872Y024001D01*
Y024041D01*
X044832D01*
X044792Y024001D01*
X044752Y024041D01*
X044712D01*
Y024001D01*
X044752Y023961D01*
X044712Y023921D01*
Y023881D01*
Y019157D02*
X044752D01*
X044792Y019197D01*
X044832Y019157D01*
X044872D01*
Y019197D01*
X044832Y019237D01*
X044872Y019277D01*
Y019317D01*
X044832D01*
X044792Y019277D01*
X044752Y019317D01*
X044712D01*
Y019277D01*
X044752Y019237D01*
X044712Y019197D01*
Y019157D01*
X039909D02*
X039949D01*
X039989Y019197D01*
X040029Y019157D01*
X040069D01*
Y019197D01*
X040029Y019237D01*
X040069Y019277D01*
Y019317D01*
X040029D01*
X039989Y019277D01*
X039949Y019317D01*
X039909D01*
Y019277D01*
X039949Y019237D01*
X039909Y019197D01*
Y019157D01*
Y023881D02*
X039949D01*
X039989Y023921D01*
X040029Y023881D01*
X040069D01*
Y023921D01*
X040029Y023961D01*
X040069Y024001D01*
Y024041D01*
X040029D01*
X039989Y024001D01*
X039949Y024041D01*
X039909D01*
Y024001D01*
X039949Y023961D01*
X039909Y023921D01*
Y023881D01*
X045519Y021519D02*
X045559D01*
X045599Y021559D01*
X045639Y021519D01*
X045679D01*
Y021559D01*
X045639Y021599D01*
X045679Y021639D01*
Y021679D01*
X045639D01*
X045599Y021639D01*
X045559Y021679D01*
X045519D01*
Y021639D01*
X045559Y021599D01*
X045519Y021559D01*
Y021519D01*
X047404Y029131D02*
X047444D01*
X047484Y029171D01*
X047524Y029131D01*
X047564D01*
Y029171D01*
X047524Y029211D01*
X047564Y029251D01*
Y029291D01*
X047524D01*
X047484Y029251D01*
X047444Y029291D01*
X047404D01*
Y029251D01*
X047444Y029211D01*
X047404Y029171D01*
Y029131D01*
X050396D02*
X050436D01*
X050476Y029171D01*
X050516Y029131D01*
X050556D01*
Y029171D01*
X050516Y029211D01*
X050556Y029251D01*
Y029291D01*
X050516D01*
X050476Y029251D01*
X050436Y029291D01*
X050396D01*
Y029251D01*
X050436Y029211D01*
X050396Y029171D01*
Y029131D01*
X047404Y019131D02*
X047444D01*
X047484Y019171D01*
X047524Y019131D01*
X047564D01*
Y019171D01*
X047524Y019211D01*
X047564Y019251D01*
Y019291D01*
X047524D01*
X047484Y019251D01*
X047444Y019291D01*
X047404D01*
Y019251D01*
X047444Y019211D01*
X047404Y019171D01*
Y019131D01*
Y021131D02*
X047444D01*
X047484Y021171D01*
X047524Y021131D01*
X047564D01*
Y021171D01*
X047524Y021211D01*
X047564Y021251D01*
Y021291D01*
X047524D01*
X047484Y021251D01*
X047444Y021291D01*
X047404D01*
Y021251D01*
X047444Y021211D01*
X047404Y021171D01*
Y021131D01*
Y023131D02*
X047444D01*
X047484Y023171D01*
X047524Y023131D01*
X047564D01*
Y023171D01*
X047524Y023211D01*
X047564Y023251D01*
Y023291D01*
X047524D01*
X047484Y023251D01*
X047444Y023291D01*
X047404D01*
Y023251D01*
X047444Y023211D01*
X047404Y023171D01*
Y023131D01*
X050396Y019131D02*
X050436D01*
X050476Y019171D01*
X050516Y019131D01*
X050556D01*
Y019171D01*
X050516Y019211D01*
X050556Y019251D01*
Y019291D01*
X050516D01*
X050476Y019251D01*
X050436Y019291D01*
X050396D01*
Y019251D01*
X050436Y019211D01*
X050396Y019171D01*
Y019131D01*
Y021131D02*
X050436D01*
X050476Y021171D01*
X050516Y021131D01*
X050556D01*
Y021171D01*
X050516Y021211D01*
X050556Y021251D01*
Y021291D01*
X050516D01*
X050476Y021251D01*
X050436Y021291D01*
X050396D01*
Y021251D01*
X050436Y021211D01*
X050396Y021171D01*
Y021131D01*
Y023131D02*
X050436D01*
X050476Y023171D01*
X050516Y023131D01*
X050556D01*
Y023171D01*
X050516Y023211D01*
X050556Y023251D01*
Y023291D01*
X050516D01*
X050476Y023251D01*
X050436Y023291D01*
X050396D01*
Y023251D01*
X050436Y023211D01*
X050396Y023171D01*
Y023131D01*
X052454Y029131D02*
X052494D01*
X052534Y029171D01*
X052574Y029131D01*
X052614D01*
Y029171D01*
X052574Y029211D01*
X052614Y029251D01*
Y029291D01*
X052574D01*
X052534Y029251D01*
X052494Y029291D01*
X052454D01*
Y029251D01*
X052494Y029211D01*
X052454Y029171D01*
Y029131D01*
X055446D02*
X055486D01*
X055526Y029171D01*
X055566Y029131D01*
X055606D01*
Y029171D01*
X055566Y029211D01*
X055606Y029251D01*
Y029291D01*
X055566D01*
X055526Y029251D01*
X055486Y029291D01*
X055446D01*
Y029251D01*
X055486Y029211D01*
X055446Y029171D01*
Y029131D01*
X052454Y019131D02*
X052494D01*
X052534Y019171D01*
X052574Y019131D01*
X052614D01*
Y019171D01*
X052574Y019211D01*
X052614Y019251D01*
Y019291D01*
X052574D01*
X052534Y019251D01*
X052494Y019291D01*
X052454D01*
Y019251D01*
X052494Y019211D01*
X052454Y019171D01*
Y019131D01*
Y021131D02*
X052494D01*
X052534Y021171D01*
X052574Y021131D01*
X052614D01*
Y021171D01*
X052574Y021211D01*
X052614Y021251D01*
Y021291D01*
X052574D01*
X052534Y021251D01*
X052494Y021291D01*
X052454D01*
Y021251D01*
X052494Y021211D01*
X052454Y021171D01*
Y021131D01*
Y023131D02*
X052494D01*
X052534Y023171D01*
X052574Y023131D01*
X052614D01*
Y023171D01*
X052574Y023211D01*
X052614Y023251D01*
Y023291D01*
X052574D01*
X052534Y023251D01*
X052494Y023291D01*
X052454D01*
Y023251D01*
X052494Y023211D01*
X052454Y023171D01*
Y023131D01*
X055446Y019131D02*
X055486D01*
X055526Y019171D01*
X055566Y019131D01*
X055606D01*
Y019171D01*
X055566Y019211D01*
X055606Y019251D01*
Y019291D01*
X055566D01*
X055526Y019251D01*
X055486Y019291D01*
X055446D01*
Y019251D01*
X055486Y019211D01*
X055446Y019171D01*
Y019131D01*
Y021131D02*
X055486D01*
X055526Y021171D01*
X055566Y021131D01*
X055606D01*
Y021171D01*
X055566Y021211D01*
X055606Y021251D01*
Y021291D01*
X055566D01*
X055526Y021251D01*
X055486Y021291D01*
X055446D01*
Y021251D01*
X055486Y021211D01*
X055446Y021171D01*
Y021131D01*
Y023131D02*
X055486D01*
X055526Y023171D01*
X055566Y023131D01*
X055606D01*
Y023171D01*
X055566Y023211D01*
X055606Y023251D01*
Y023291D01*
X055566D01*
X055526Y023251D01*
X055486Y023291D01*
X055446D01*
Y023251D01*
X055486Y023211D01*
X055446Y023171D01*
Y023131D01*
X057504Y029131D02*
X057544D01*
X057584Y029171D01*
X057624Y029131D01*
X057664D01*
Y029171D01*
X057624Y029211D01*
X057664Y029251D01*
Y029291D01*
X057624D01*
X057584Y029251D01*
X057544Y029291D01*
X057504D01*
Y029251D01*
X057544Y029211D01*
X057504Y029171D01*
Y029131D01*
X060496D02*
X060536D01*
X060576Y029171D01*
X060616Y029131D01*
X060656D01*
Y029171D01*
X060616Y029211D01*
X060656Y029251D01*
Y029291D01*
X060616D01*
X060576Y029251D01*
X060536Y029291D01*
X060496D01*
Y029251D01*
X060536Y029211D01*
X060496Y029171D01*
Y029131D01*
X057504Y019131D02*
X057544D01*
X057584Y019171D01*
X057624Y019131D01*
X057664D01*
Y019171D01*
X057624Y019211D01*
X057664Y019251D01*
Y019291D01*
X057624D01*
X057584Y019251D01*
X057544Y019291D01*
X057504D01*
Y019251D01*
X057544Y019211D01*
X057504Y019171D01*
Y019131D01*
Y021131D02*
X057544D01*
X057584Y021171D01*
X057624Y021131D01*
X057664D01*
Y021171D01*
X057624Y021211D01*
X057664Y021251D01*
Y021291D01*
X057624D01*
X057584Y021251D01*
X057544Y021291D01*
X057504D01*
Y021251D01*
X057544Y021211D01*
X057504Y021171D01*
Y021131D01*
Y023131D02*
X057544D01*
X057584Y023171D01*
X057624Y023131D01*
X057664D01*
Y023171D01*
X057624Y023211D01*
X057664Y023251D01*
Y023291D01*
X057624D01*
X057584Y023251D01*
X057544Y023291D01*
X057504D01*
Y023251D01*
X057544Y023211D01*
X057504Y023171D01*
Y023131D01*
X060496Y019131D02*
X060536D01*
X060576Y019171D01*
X060616Y019131D01*
X060656D01*
Y019171D01*
X060616Y019211D01*
X060656Y019251D01*
Y019291D01*
X060616D01*
X060576Y019251D01*
X060536Y019291D01*
X060496D01*
Y019251D01*
X060536Y019211D01*
X060496Y019171D01*
Y019131D01*
Y021131D02*
X060536D01*
X060576Y021171D01*
X060616Y021131D01*
X060656D01*
Y021171D01*
X060616Y021211D01*
X060656Y021251D01*
Y021291D01*
X060616D01*
X060576Y021251D01*
X060536Y021291D01*
X060496D01*
Y021251D01*
X060536Y021211D01*
X060496Y021171D01*
Y021131D01*
Y023131D02*
X060536D01*
X060576Y023171D01*
X060616Y023131D01*
X060656D01*
Y023171D01*
X060616Y023211D01*
X060656Y023251D01*
Y023291D01*
X060616D01*
X060576Y023251D01*
X060536Y023291D01*
X060496D01*
Y023251D01*
X060536Y023211D01*
X060496Y023171D01*
Y023131D01*
X062554Y029131D02*
X062594D01*
X062634Y029171D01*
X062674Y029131D01*
X062714D01*
Y029171D01*
X062674Y029211D01*
X062714Y029251D01*
Y029291D01*
X062674D01*
X062634Y029251D01*
X062594Y029291D01*
X062554D01*
Y029251D01*
X062594Y029211D01*
X062554Y029171D01*
Y029131D01*
X065546D02*
X065586D01*
X065626Y029171D01*
X065666Y029131D01*
X065706D01*
Y029171D01*
X065666Y029211D01*
X065706Y029251D01*
Y029291D01*
X065666D01*
X065626Y029251D01*
X065586Y029291D01*
X065546D01*
Y029251D01*
X065586Y029211D01*
X065546Y029171D01*
Y029131D01*
X062554Y019131D02*
X062594D01*
X062634Y019171D01*
X062674Y019131D01*
X062714D01*
Y019171D01*
X062674Y019211D01*
X062714Y019251D01*
Y019291D01*
X062674D01*
X062634Y019251D01*
X062594Y019291D01*
X062554D01*
Y019251D01*
X062594Y019211D01*
X062554Y019171D01*
Y019131D01*
Y021131D02*
X062594D01*
X062634Y021171D01*
X062674Y021131D01*
X062714D01*
Y021171D01*
X062674Y021211D01*
X062714Y021251D01*
Y021291D01*
X062674D01*
X062634Y021251D01*
X062594Y021291D01*
X062554D01*
Y021251D01*
X062594Y021211D01*
X062554Y021171D01*
Y021131D01*
Y023131D02*
X062594D01*
X062634Y023171D01*
X062674Y023131D01*
X062714D01*
Y023171D01*
X062674Y023211D01*
X062714Y023251D01*
Y023291D01*
X062674D01*
X062634Y023251D01*
X062594Y023291D01*
X062554D01*
Y023251D01*
X062594Y023211D01*
X062554Y023171D01*
Y023131D01*
X065546Y019131D02*
X065586D01*
X065626Y019171D01*
X065666Y019131D01*
X065706D01*
Y019171D01*
X065666Y019211D01*
X065706Y019251D01*
Y019291D01*
X065666D01*
X065626Y019251D01*
X065586Y019291D01*
X065546D01*
Y019251D01*
X065586Y019211D01*
X065546Y019171D01*
Y019131D01*
Y021131D02*
X065586D01*
X065626Y021171D01*
X065666Y021131D01*
X065706D01*
Y021171D01*
X065666Y021211D01*
X065706Y021251D01*
Y021291D01*
X065666D01*
X065626Y021251D01*
X065586Y021291D01*
X065546D01*
Y021251D01*
X065586Y021211D01*
X065546Y021171D01*
Y021131D01*
Y023131D02*
X065586D01*
X065626Y023171D01*
X065666Y023131D01*
X065706D01*
Y023171D01*
X065666Y023211D01*
X065706Y023251D01*
Y023291D01*
X065666D01*
X065626Y023251D01*
X065586Y023291D01*
X065546D01*
Y023251D01*
X065586Y023211D01*
X065546Y023171D01*
Y023131D01*
X067654Y029131D02*
X067694D01*
X067734Y029171D01*
X067774Y029131D01*
X067814D01*
Y029171D01*
X067774Y029211D01*
X067814Y029251D01*
Y029291D01*
X067774D01*
X067734Y029251D01*
X067694Y029291D01*
X067654D01*
Y029251D01*
X067694Y029211D01*
X067654Y029171D01*
Y029131D01*
X070646D02*
X070686D01*
X070726Y029171D01*
X070766Y029131D01*
X070806D01*
Y029171D01*
X070766Y029211D01*
X070806Y029251D01*
Y029291D01*
X070766D01*
X070726Y029251D01*
X070686Y029291D01*
X070646D01*
Y029251D01*
X070686Y029211D01*
X070646Y029171D01*
Y029131D01*
X067654Y019131D02*
X067694D01*
X067734Y019171D01*
X067774Y019131D01*
X067814D01*
Y019171D01*
X067774Y019211D01*
X067814Y019251D01*
Y019291D01*
X067774D01*
X067734Y019251D01*
X067694Y019291D01*
X067654D01*
Y019251D01*
X067694Y019211D01*
X067654Y019171D01*
Y019131D01*
Y021131D02*
X067694D01*
X067734Y021171D01*
X067774Y021131D01*
X067814D01*
Y021171D01*
X067774Y021211D01*
X067814Y021251D01*
Y021291D01*
X067774D01*
X067734Y021251D01*
X067694Y021291D01*
X067654D01*
Y021251D01*
X067694Y021211D01*
X067654Y021171D01*
Y021131D01*
Y023131D02*
X067694D01*
X067734Y023171D01*
X067774Y023131D01*
X067814D01*
Y023171D01*
X067774Y023211D01*
X067814Y023251D01*
Y023291D01*
X067774D01*
X067734Y023251D01*
X067694Y023291D01*
X067654D01*
Y023251D01*
X067694Y023211D01*
X067654Y023171D01*
Y023131D01*
X070646Y019131D02*
X070686D01*
X070726Y019171D01*
X070766Y019131D01*
X070806D01*
Y019171D01*
X070766Y019211D01*
X070806Y019251D01*
Y019291D01*
X070766D01*
X070726Y019251D01*
X070686Y019291D01*
X070646D01*
Y019251D01*
X070686Y019211D01*
X070646Y019171D01*
Y019131D01*
Y021131D02*
X070686D01*
X070726Y021171D01*
X070766Y021131D01*
X070806D01*
Y021171D01*
X070766Y021211D01*
X070806Y021251D01*
Y021291D01*
X070766D01*
X070726Y021251D01*
X070686Y021291D01*
X070646D01*
Y021251D01*
X070686Y021211D01*
X070646Y021171D01*
Y021131D01*
Y023131D02*
X070686D01*
X070726Y023171D01*
X070766Y023131D01*
X070806D01*
Y023171D01*
X070766Y023211D01*
X070806Y023251D01*
Y023291D01*
X070766D01*
X070726Y023251D01*
X070686Y023291D01*
X070646D01*
Y023251D01*
X070686Y023211D01*
X070646Y023171D01*
Y023131D01*
X0864Y01657D02*
X08632Y01673D01*
X08648D01*
X0864Y01657D01*
X0844D02*
X08432Y01673D01*
X08448D01*
X0844Y01657D01*
X072704Y029131D02*
X072744D01*
X072784Y029171D01*
X072824Y029131D01*
X072864D01*
Y029171D01*
X072824Y029211D01*
X072864Y029251D01*
Y029291D01*
X072824D01*
X072784Y029251D01*
X072744Y029291D01*
X072704D01*
Y029251D01*
X072744Y029211D01*
X072704Y029171D01*
Y029131D01*
X075696D02*
X075736D01*
X075776Y029171D01*
X075816Y029131D01*
X075856D01*
Y029171D01*
X075816Y029211D01*
X075856Y029251D01*
Y029291D01*
X075816D01*
X075776Y029251D01*
X075736Y029291D01*
X075696D01*
Y029251D01*
X075736Y029211D01*
X075696Y029171D01*
Y029131D01*
X072704Y019131D02*
X072744D01*
X072784Y019171D01*
X072824Y019131D01*
X072864D01*
Y019171D01*
X072824Y019211D01*
X072864Y019251D01*
Y019291D01*
X072824D01*
X072784Y019251D01*
X072744Y019291D01*
X072704D01*
Y019251D01*
X072744Y019211D01*
X072704Y019171D01*
Y019131D01*
Y021131D02*
X072744D01*
X072784Y021171D01*
X072824Y021131D01*
X072864D01*
Y021171D01*
X072824Y021211D01*
X072864Y021251D01*
Y021291D01*
X072824D01*
X072784Y021251D01*
X072744Y021291D01*
X072704D01*
Y021251D01*
X072744Y021211D01*
X072704Y021171D01*
Y021131D01*
Y023131D02*
X072744D01*
X072784Y023171D01*
X072824Y023131D01*
X072864D01*
Y023171D01*
X072824Y023211D01*
X072864Y023251D01*
Y023291D01*
X072824D01*
X072784Y023251D01*
X072744Y023291D01*
X072704D01*
Y023251D01*
X072744Y023211D01*
X072704Y023171D01*
Y023131D01*
X075696Y019131D02*
X075736D01*
X075776Y019171D01*
X075816Y019131D01*
X075856D01*
Y019171D01*
X075816Y019211D01*
X075856Y019251D01*
Y019291D01*
X075816D01*
X075776Y019251D01*
X075736Y019291D01*
X075696D01*
Y019251D01*
X075736Y019211D01*
X075696Y019171D01*
Y019131D01*
Y021131D02*
X075736D01*
X075776Y021171D01*
X075816Y021131D01*
X075856D01*
Y021171D01*
X075816Y021211D01*
X075856Y021251D01*
Y021291D01*
X075816D01*
X075776Y021251D01*
X075736Y021291D01*
X075696D01*
Y021251D01*
X075736Y021211D01*
X075696Y021171D01*
Y021131D01*
Y023131D02*
X075736D01*
X075776Y023171D01*
X075816Y023131D01*
X075856D01*
Y023171D01*
X075816Y023211D01*
X075856Y023251D01*
Y023291D01*
X075816D01*
X075776Y023251D01*
X075736Y023291D01*
X075696D01*
Y023251D01*
X075736Y023211D01*
X075696Y023171D01*
Y023131D01*
X0289Y01657D02*
X02882Y01673D01*
X02898D01*
X0289Y01657D01*
X0269D02*
X02682Y01673D01*
X02698D01*
X0269Y01657D01*
X033D02*
X03292Y01673D01*
X03308D01*
X033Y01657D01*
X031D02*
X03092Y01673D01*
X03108D01*
X031Y01657D01*
X0758D02*
X07572Y01673D01*
X07588D01*
X0758Y01657D01*
X0738D02*
X07372Y01673D01*
X07388D01*
X0738Y01657D01*
X0704D02*
X07032Y01673D01*
X07048D01*
X0704Y01657D01*
X0684D02*
X06832Y01673D01*
X06848D01*
X0684Y01657D01*
X0494D02*
X04932Y01673D01*
X04948D01*
X0494Y01657D01*
X0474D02*
X04732Y01673D01*
X04748D01*
X0474Y01657D01*
X0536D02*
X05352Y01673D01*
X05368D01*
X0536Y01657D01*
X0516D02*
X05152Y01673D01*
X05168D01*
X0516Y01657D01*
X0578D02*
X05772Y01673D01*
X05788D01*
X0578Y01657D01*
X0558D02*
X05572Y01673D01*
X05588D01*
X0558Y01657D01*
X062D02*
X06192Y01673D01*
X06208D01*
X062Y01657D01*
X06D02*
X05992Y01673D01*
X06008D01*
X06Y01657D01*
X0662D02*
X06612Y01673D01*
X06628D01*
X0662Y01657D01*
X0642D02*
X06412Y01673D01*
X06428D01*
X0642Y01657D01*
X07592Y032D02*
X076Y03208D01*
X07608Y032D01*
X076Y03192D01*
X07592Y032D01*
X07642Y031D02*
X0765Y03108D01*
X07658Y031D01*
X0765Y03092D01*
X07642Y031D01*
Y027D02*
X0765Y02708D01*
X07658Y027D01*
X0765Y02692D01*
X07642Y027D01*
X07442Y031D02*
X0745Y03108D01*
X07458Y031D01*
X0745Y03092D01*
X07442Y031D01*
Y029D02*
X0745Y02908D01*
X07458Y029D01*
X0745Y02892D01*
X07442Y029D01*
X07192Y032D02*
X072Y03208D01*
X07208Y032D01*
X072Y03192D01*
X07192Y032D01*
X07242Y031D02*
X0725Y03108D01*
X07258Y031D01*
X0725Y03092D01*
X07242Y031D01*
X07192Y03D02*
X072Y03008D01*
X07208Y03D01*
X072Y02992D01*
X07192Y03D01*
X07092Y032D02*
X071Y03208D01*
X07108Y032D01*
X071Y03192D01*
X07092Y032D01*
X07142Y031D02*
X0715Y03108D01*
X07158Y031D01*
X0715Y03092D01*
X07142Y031D01*
X06942D02*
X0695Y03108D01*
X06958Y031D01*
X0695Y03092D01*
X06942Y031D01*
Y029D02*
X0695Y02908D01*
X06958Y029D01*
X0695Y02892D01*
X06942Y029D01*
X06692Y032D02*
X067Y03208D01*
X06708Y032D01*
X067Y03192D01*
X06692Y032D01*
X06742Y031D02*
X0675Y03108D01*
X06758Y031D01*
X0675Y03092D01*
X06742Y031D01*
X06692Y03D02*
X067Y03008D01*
X06708Y03D01*
X067Y02992D01*
X06692Y03D01*
X06592Y032D02*
X066Y03208D01*
X06608Y032D01*
X066Y03192D01*
X06592Y032D01*
X06642Y031D02*
X0665Y03108D01*
X06658Y031D01*
X0665Y03092D01*
X06642Y031D01*
Y029D02*
X0665Y02908D01*
X06658Y029D01*
X0665Y02892D01*
X06642Y029D01*
X06392Y03D02*
X064Y03008D01*
X06408Y03D01*
X064Y02992D01*
X06392Y03D01*
X06192Y032D02*
X062Y03208D01*
X06208Y032D01*
X062Y03192D01*
X06192Y032D01*
X06242Y031D02*
X0625Y03108D01*
X06258Y031D01*
X0625Y03092D01*
X06242Y031D01*
X06192Y03D02*
X062Y03008D01*
X06208Y03D01*
X062Y02992D01*
X06192Y03D01*
X06092Y032D02*
X061Y03208D01*
X06108Y032D01*
X061Y03192D01*
X06092Y032D01*
X06142Y031D02*
X0615Y03108D01*
X06158Y031D01*
X0615Y03092D01*
X06142Y031D01*
Y029D02*
X0615Y02908D01*
X06158Y029D01*
X0615Y02892D01*
X06142Y029D01*
X05892Y03D02*
X059Y03008D01*
X05908Y03D01*
X059Y02992D01*
X05892Y03D01*
X05692Y032D02*
X057Y03208D01*
X05708Y032D01*
X057Y03192D01*
X05692Y032D01*
X05742Y031D02*
X0575Y03108D01*
X05758Y031D01*
X0575Y03092D01*
X05742Y031D01*
X05692Y03D02*
X057Y03008D01*
X05708Y03D01*
X057Y02992D01*
X05692Y03D01*
X05592Y032D02*
X056Y03208D01*
X05608Y032D01*
X056Y03192D01*
X05592Y032D01*
X05642Y031D02*
X0565Y03108D01*
X05658Y031D01*
X0565Y03092D01*
X05642Y031D01*
Y029D02*
X0565Y02908D01*
X05658Y029D01*
X0565Y02892D01*
X05642Y029D01*
X05392Y03D02*
X054Y03008D01*
X05408Y03D01*
X054Y02992D01*
X05392Y03D01*
X05192Y032D02*
X052Y03208D01*
X05208Y032D01*
X052Y03192D01*
X05192Y032D01*
X05242Y031D02*
X0525Y03108D01*
X05258Y031D01*
X0525Y03092D01*
X05242Y031D01*
X05192Y03D02*
X052Y03008D01*
X05208Y03D01*
X052Y02992D01*
X05192Y03D01*
X05092Y032D02*
X051Y03208D01*
X05108Y032D01*
X051Y03192D01*
X05092Y032D01*
X05142Y029D02*
X0515Y02908D01*
X05158Y029D01*
X0515Y02892D01*
X05142Y029D01*
X04892Y03D02*
X049Y03008D01*
X04908Y03D01*
X049Y02992D01*
X04892Y03D01*
Y028D02*
X049Y02808D01*
X04908Y028D01*
X049Y02792D01*
X04892Y028D01*
X04942Y025D02*
X0495Y02508D01*
X04958Y025D01*
X0495Y02492D01*
X04942Y025D01*
X04792Y028D02*
X048Y02808D01*
X04808Y028D01*
X048Y02792D01*
X04792Y028D01*
X04742Y027D02*
X0475Y02708D01*
X04758Y027D01*
X0475Y02692D01*
X04742Y027D01*
X04592Y024D02*
X046Y02408D01*
X04608Y024D01*
X046Y02392D01*
X04592Y024D01*
X04542Y023D02*
X0455Y02308D01*
X04558Y023D01*
X0455Y02292D01*
X04542Y023D01*
X04492Y018D02*
X045Y01808D01*
X04508Y018D01*
X045Y01792D01*
X04492Y018D01*
X04542Y017D02*
X0455Y01708D01*
X04558Y017D01*
X0455Y01692D01*
X04542Y017D01*
X04492Y016D02*
X045Y01608D01*
X04508Y016D01*
X045Y01592D01*
X04492Y016D01*
X04392Y018D02*
X044Y01808D01*
X04408Y018D01*
X044Y01792D01*
X04392Y018D01*
X04442Y017D02*
X0445Y01708D01*
X04458Y017D01*
X0445Y01692D01*
X04442Y017D01*
X04392Y016D02*
X044Y01608D01*
X04408Y016D01*
X044Y01592D01*
X04392Y016D01*
X04292Y032D02*
X043Y03208D01*
X04308Y032D01*
X043Y03192D01*
X04292Y032D01*
Y024D02*
X043Y02408D01*
X04308Y024D01*
X043Y02392D01*
X04292Y024D01*
Y018D02*
X043Y01808D01*
X04308Y018D01*
X043Y01792D01*
X04292Y018D01*
X04342Y017D02*
X0435Y01708D01*
X04358Y017D01*
X0435Y01692D01*
X04342Y017D01*
X04292Y016D02*
X043Y01608D01*
X04308Y016D01*
X043Y01592D01*
X04292Y016D01*
X04192Y032D02*
X042Y03208D01*
X04208Y032D01*
X042Y03192D01*
X04192Y032D01*
Y018D02*
X042Y01808D01*
X04208Y018D01*
X042Y01792D01*
X04192Y018D01*
X04242Y017D02*
X0425Y01708D01*
X04258Y017D01*
X0425Y01692D01*
X04242Y017D01*
X04192Y016D02*
X042Y01608D01*
X04208Y016D01*
X042Y01592D01*
X04192Y016D01*
X04092Y032D02*
X041Y03208D01*
X04108Y032D01*
X041Y03192D01*
X04092Y032D01*
X04142Y031D02*
X0415Y03108D01*
X04158Y031D01*
X0415Y03092D01*
X04142Y031D01*
X04092Y03D02*
X041Y03008D01*
X04108Y03D01*
X041Y02992D01*
X04092Y03D01*
Y028D02*
X041Y02808D01*
X04108Y028D01*
X041Y02792D01*
X04092Y028D01*
X04142Y017D02*
X0415Y01708D01*
X04158Y017D01*
X0415Y01692D01*
X04142Y017D01*
X04092Y016D02*
X041Y01608D01*
X04108Y016D01*
X041Y01592D01*
X04092Y016D01*
X03992Y032D02*
X04Y03208D01*
X04008Y032D01*
X04Y03192D01*
X03992Y032D01*
X04042Y031D02*
X0405Y03108D01*
X04058Y031D01*
X0405Y03092D01*
X04042Y031D01*
Y027D02*
X0405Y02708D01*
X04058Y027D01*
X0405Y02692D01*
X04042Y027D01*
Y023D02*
X0405Y02308D01*
X04058Y023D01*
X0405Y02292D01*
X04042Y023D01*
Y021D02*
X0405Y02108D01*
X04058Y021D01*
X0405Y02092D01*
X04042Y021D01*
Y017D02*
X0405Y01708D01*
X04058Y017D01*
X0405Y01692D01*
X04042Y017D01*
X03992Y016D02*
X04Y01608D01*
X04008Y016D01*
X04Y01592D01*
X03992Y016D01*
X03892Y032D02*
X039Y03208D01*
X03908Y032D01*
X039Y03192D01*
X03892Y032D01*
X03942Y031D02*
X0395Y03108D01*
X03958Y031D01*
X0395Y03092D01*
X03942Y031D01*
X03892Y03D02*
X039Y03008D01*
X03908Y03D01*
X039Y02992D01*
X03892Y03D01*
X03942Y029D02*
X0395Y02908D01*
X03958Y029D01*
X0395Y02892D01*
X03942Y029D01*
X03892Y028D02*
X039Y02808D01*
X03908Y028D01*
X039Y02792D01*
X03892Y028D01*
X03942Y027D02*
X0395Y02708D01*
X03958Y027D01*
X0395Y02692D01*
X03942Y027D01*
X03892Y024D02*
X039Y02408D01*
X03908Y024D01*
X039Y02392D01*
X03892Y024D01*
X03942Y023D02*
X0395Y02308D01*
X03958Y023D01*
X0395Y02292D01*
X03942Y023D01*
X03892Y022D02*
X039Y02208D01*
X03908Y022D01*
X039Y02192D01*
X03892Y022D01*
X03792Y032D02*
X038Y03208D01*
X03808Y032D01*
X038Y03192D01*
X03792Y032D01*
X03842Y031D02*
X0385Y03108D01*
X03858Y031D01*
X0385Y03092D01*
X03842Y031D01*
Y029D02*
X0385Y02908D01*
X03858Y029D01*
X0385Y02892D01*
X03842Y029D01*
Y023D02*
X0385Y02308D01*
X03858Y023D01*
X0385Y02292D01*
X03842Y023D01*
X03792Y016D02*
X038Y01608D01*
X03808Y016D01*
X038Y01592D01*
X03792Y016D01*
X03692Y032D02*
X037Y03208D01*
X03708Y032D01*
X037Y03192D01*
X03692Y032D01*
X03742Y029D02*
X0375Y02908D01*
X03758Y029D01*
X0375Y02892D01*
X03742Y029D01*
Y027D02*
X0375Y02708D01*
X03758Y027D01*
X0375Y02692D01*
X03742Y027D01*
X03692Y018D02*
X037Y01808D01*
X03708Y018D01*
X037Y01792D01*
X03692Y018D01*
X03592Y032D02*
X036Y03208D01*
X03608Y032D01*
X036Y03192D01*
X03592Y032D01*
Y018D02*
X036Y01808D01*
X03608Y018D01*
X036Y01792D01*
X03592Y018D01*
Y016D02*
X036Y01608D01*
X03608Y016D01*
X036Y01592D01*
X03592Y016D01*
X03492Y032D02*
X035Y03208D01*
X03508Y032D01*
X035Y03192D01*
X03492Y032D01*
X03542Y031D02*
X0355Y03108D01*
X03558Y031D01*
X0355Y03092D01*
X03542Y031D01*
X03492Y03D02*
X035Y03008D01*
X03508Y03D01*
X035Y02992D01*
X03492Y03D01*
Y024D02*
X035Y02408D01*
X03508Y024D01*
X035Y02392D01*
X03492Y024D01*
X03442Y031D02*
X0345Y03108D01*
X03458Y031D01*
X0345Y03092D01*
X03442Y031D01*
X03392Y016D02*
X034Y01608D01*
X03408Y016D01*
X034Y01592D01*
X03392Y016D01*
X03292Y028D02*
X033Y02808D01*
X03308Y028D01*
X033Y02792D01*
X03292Y028D01*
X03342Y027D02*
X0335Y02708D01*
X03358Y027D01*
X0335Y02692D01*
X03342Y027D01*
X03292Y018D02*
X033Y01808D01*
X03308Y018D01*
X033Y01792D01*
X03292Y018D01*
X03192Y032D02*
X032Y03208D01*
X03208Y032D01*
X032Y03192D01*
X03192Y032D01*
X03242Y031D02*
X0325Y03108D01*
X03258Y031D01*
X0325Y03092D01*
X03242Y031D01*
Y027D02*
X0325Y02708D01*
X03258Y027D01*
X0325Y02692D01*
X03242Y027D01*
Y023D02*
X0325Y02308D01*
X03258Y023D01*
X0325Y02292D01*
X03242Y023D01*
X03192Y018D02*
X032Y01808D01*
X03208Y018D01*
X032Y01792D01*
X03192Y018D01*
Y016D02*
X032Y01608D01*
X03208Y016D01*
X032Y01592D01*
X03192Y016D01*
X03092Y032D02*
X031Y03208D01*
X03108Y032D01*
X031Y03192D01*
X03092Y032D01*
X03142Y031D02*
X0315Y03108D01*
X03158Y031D01*
X0315Y03092D01*
X03142Y031D01*
X03092Y03D02*
X031Y03008D01*
X03108Y03D01*
X031Y02992D01*
X03092Y03D01*
Y024D02*
X031Y02408D01*
X03108Y024D01*
X031Y02392D01*
X03092Y024D01*
X03142Y023D02*
X0315Y02308D01*
X03158Y023D01*
X0315Y02292D01*
X03142Y023D01*
X03092Y022D02*
X031Y02208D01*
X03108Y022D01*
X031Y02192D01*
X03092Y022D01*
X02992Y032D02*
X03Y03208D01*
X03008Y032D01*
X03Y03192D01*
X02992Y032D01*
X03042Y031D02*
X0305Y03108D01*
X03058Y031D01*
X0305Y03092D01*
X03042Y031D01*
Y023D02*
X0305Y02308D01*
X03058Y023D01*
X0305Y02292D01*
X03042Y023D01*
X02992Y018D02*
X03Y01808D01*
X03008Y018D01*
X03Y01792D01*
X02992Y018D01*
Y016D02*
X03Y01608D01*
X03008Y016D01*
X03Y01592D01*
X02992Y016D01*
X02892Y032D02*
X029Y03208D01*
X02908Y032D01*
X029Y03192D01*
X02892Y032D01*
Y018D02*
X029Y01808D01*
X02908Y018D01*
X029Y01792D01*
X02892Y018D01*
X02792Y032D02*
X028Y03208D01*
X02808Y032D01*
X028Y03192D01*
X02792Y032D01*
X02842Y031D02*
X0285Y03108D01*
X02858Y031D01*
X0285Y03092D01*
X02842Y031D01*
X02792Y016D02*
X028Y01608D01*
X02808Y016D01*
X028Y01592D01*
X02792Y016D01*
X02692Y024D02*
X027Y02408D01*
X02708Y024D01*
X027Y02392D01*
X02692Y024D01*
Y018D02*
X027Y01808D01*
X02708Y018D01*
X027Y01792D01*
X02692Y018D01*
X02592Y032D02*
X026Y03208D01*
X02608Y032D01*
X026Y03192D01*
X02592Y032D01*
X02642Y029D02*
X0265Y02908D01*
X02658Y029D01*
X0265Y02892D01*
X02642Y029D01*
X02592Y028D02*
X026Y02808D01*
X02608Y028D01*
X026Y02792D01*
X02592Y028D01*
Y016D02*
X026Y01608D01*
X02608Y016D01*
X026Y01592D01*
X02592Y016D01*
X02492Y032D02*
X025Y03208D01*
X02508Y032D01*
X025Y03192D01*
X02492Y032D01*
X02542Y031D02*
X0255Y03108D01*
X02558Y031D01*
X0255Y03092D01*
X02542Y031D01*
X02492Y022D02*
X025Y02208D01*
X02508Y022D01*
X025Y02192D01*
X02492Y022D01*
Y018D02*
X025Y01808D01*
X02508Y018D01*
X025Y01792D01*
X02492Y018D01*
X02392Y032D02*
X024Y03208D01*
X02408Y032D01*
X024Y03192D01*
X02392Y032D01*
X02442Y031D02*
X0245Y03108D01*
X02458Y031D01*
X0245Y03092D01*
X02442Y031D01*
Y023D02*
X0245Y02308D01*
X02458Y023D01*
X0245Y02292D01*
X02442Y023D01*
X02392Y022D02*
X024Y02208D01*
X02408Y022D01*
X024Y02192D01*
X02392Y022D01*
X02442Y021D02*
X0245Y02108D01*
X02458Y021D01*
X0245Y02092D01*
X02442Y021D01*
X02392Y018D02*
X024Y01808D01*
X02408Y018D01*
X024Y01792D01*
X02392Y018D01*
X08542Y053D02*
X0855Y05308D01*
X08558Y053D01*
X0855Y05292D01*
X08542Y053D01*
X08492Y052D02*
X085Y05208D01*
X08508Y052D01*
X085Y05192D01*
X08492Y052D01*
X08542Y051D02*
X0855Y05108D01*
X08558Y051D01*
X0855Y05092D01*
X08542Y051D01*
Y049D02*
X0855Y04908D01*
X08558Y049D01*
X0855Y04892D01*
X08542Y049D01*
X08492Y048D02*
X085Y04808D01*
X08508Y048D01*
X085Y04792D01*
X08492Y048D01*
X08542Y047D02*
X0855Y04708D01*
X08558Y047D01*
X0855Y04692D01*
X08542Y047D01*
X08492Y046D02*
X085Y04608D01*
X08508Y046D01*
X085Y04592D01*
X08492Y046D01*
X08542Y045D02*
X0855Y04508D01*
X08558Y045D01*
X0855Y04492D01*
X08542Y045D01*
X08492Y044D02*
X085Y04408D01*
X08508Y044D01*
X085Y04392D01*
X08492Y044D01*
X08392Y052D02*
X084Y05208D01*
X08408Y052D01*
X084Y05192D01*
X08392Y052D01*
X08442Y051D02*
X0845Y05108D01*
X08458Y051D01*
X0845Y05092D01*
X08442Y051D01*
Y049D02*
X0845Y04908D01*
X08458Y049D01*
X0845Y04892D01*
X08442Y049D01*
Y047D02*
X0845Y04708D01*
X08458Y047D01*
X0845Y04692D01*
X08442Y047D01*
X08392Y046D02*
X084Y04608D01*
X08408Y046D01*
X084Y04592D01*
X08392Y046D01*
X08442Y045D02*
X0845Y04508D01*
X08458Y045D01*
X0845Y04492D01*
X08442Y045D01*
X08392Y044D02*
X084Y04408D01*
X08408Y044D01*
X084Y04392D01*
X08392Y044D01*
X08342Y047D02*
X0835Y04708D01*
X08358Y047D01*
X0835Y04692D01*
X08342Y047D01*
X08192Y052D02*
X082Y05208D01*
X08208Y052D01*
X082Y05192D01*
X08192Y052D01*
X08242Y051D02*
X0825Y05108D01*
X08258Y051D01*
X0825Y05092D01*
X08242Y051D01*
Y049D02*
X0825Y04908D01*
X08258Y049D01*
X0825Y04892D01*
X08242Y049D01*
X08142Y053D02*
X0815Y05308D01*
X08158Y053D01*
X0815Y05292D01*
X08142Y053D01*
X08092Y052D02*
X081Y05208D01*
X08108Y052D01*
X081Y05192D01*
X08092Y052D01*
X08142Y051D02*
X0815Y05108D01*
X08158Y051D01*
X0815Y05092D01*
X08142Y051D01*
Y045D02*
X0815Y04508D01*
X08158Y045D01*
X0815Y04492D01*
X08142Y045D01*
X07992Y052D02*
X08Y05208D01*
X08008Y052D01*
X08Y05192D01*
X07992Y052D01*
X08042Y051D02*
X0805Y05108D01*
X08058Y051D01*
X0805Y05092D01*
X08042Y051D01*
Y045D02*
X0805Y04508D01*
X08058Y045D01*
X0805Y04492D01*
X08042Y045D01*
X07742Y043D02*
X0775Y04308D01*
X07758Y043D01*
X0775Y04292D01*
X07742Y043D01*
X07692Y042D02*
X077Y04208D01*
X07708Y042D01*
X077Y04192D01*
X07692Y042D01*
Y04D02*
X077Y04008D01*
X07708Y04D01*
X077Y03992D01*
X07692Y04D01*
X07742Y039D02*
X0775Y03908D01*
X07758Y039D01*
X0775Y03892D01*
X07742Y039D01*
X07692Y038D02*
X077Y03808D01*
X07708Y038D01*
X077Y03792D01*
X07692Y038D01*
X07742Y037D02*
X0775Y03708D01*
X07758Y037D01*
X0775Y03692D01*
X07742Y037D01*
X07692Y036D02*
X077Y03608D01*
X07708Y036D01*
X077Y03592D01*
X07692Y036D01*
X07742Y035D02*
X0775Y03508D01*
X07758Y035D01*
X0775Y03492D01*
X07742Y035D01*
X07692Y034D02*
X077Y03408D01*
X07708Y034D01*
X077Y03392D01*
X07692Y034D01*
X07642Y037D02*
X0765Y03708D01*
X07658Y037D01*
X0765Y03692D01*
X07642Y037D01*
X07592Y036D02*
X076Y03608D01*
X07608Y036D01*
X076Y03592D01*
X07592Y036D01*
X07642Y035D02*
X0765Y03508D01*
X07658Y035D01*
X0765Y03492D01*
X07642Y035D01*
X07592Y034D02*
X076Y03408D01*
X07608Y034D01*
X076Y03392D01*
X07592Y034D01*
X07492Y036D02*
X075Y03608D01*
X07508Y036D01*
X075Y03592D01*
X07492Y036D01*
X07542Y035D02*
X0755Y03508D01*
X07558Y035D01*
X0755Y03492D01*
X07542Y035D01*
X07492Y034D02*
X075Y03408D01*
X07508Y034D01*
X075Y03392D01*
X07492Y034D01*
X07442Y037D02*
X0745Y03708D01*
X07458Y037D01*
X0745Y03692D01*
X07442Y037D01*
X07392Y036D02*
X074Y03608D01*
X07408Y036D01*
X074Y03592D01*
X07392Y036D01*
X07442Y035D02*
X0745Y03508D01*
X07458Y035D01*
X0745Y03492D01*
X07442Y035D01*
X07342Y037D02*
X0735Y03708D01*
X07358Y037D01*
X0735Y03692D01*
X07342Y037D01*
X07292Y036D02*
X073Y03608D01*
X07308Y036D01*
X073Y03592D01*
X07292Y036D01*
X07342Y035D02*
X0735Y03508D01*
X07358Y035D01*
X0735Y03492D01*
X07342Y035D01*
X07242Y037D02*
X0725Y03708D01*
X07258Y037D01*
X0725Y03692D01*
X07242Y037D01*
X07192Y036D02*
X072Y03608D01*
X07208Y036D01*
X072Y03592D01*
X07192Y036D01*
X07242Y035D02*
X0725Y03508D01*
X07258Y035D01*
X0725Y03492D01*
X07242Y035D01*
X07142Y037D02*
X0715Y03708D01*
X07158Y037D01*
X0715Y03692D01*
X07142Y037D01*
X07092Y036D02*
X071Y03608D01*
X07108Y036D01*
X071Y03592D01*
X07092Y036D01*
X07142Y035D02*
X0715Y03508D01*
X07158Y035D01*
X0715Y03492D01*
X07142Y035D01*
X07042Y037D02*
X0705Y03708D01*
X07058Y037D01*
X0705Y03692D01*
X07042Y037D01*
X06992Y036D02*
X07Y03608D01*
X07008Y036D01*
X07Y03592D01*
X06992Y036D01*
X07042Y035D02*
X0705Y03508D01*
X07058Y035D01*
X0705Y03492D01*
X07042Y035D01*
X06942Y037D02*
X0695Y03708D01*
X06958Y037D01*
X0695Y03692D01*
X06942Y037D01*
X06892Y036D02*
X069Y03608D01*
X06908Y036D01*
X069Y03592D01*
X06892Y036D01*
X06942Y035D02*
X0695Y03508D01*
X06958Y035D01*
X0695Y03492D01*
X06942Y035D01*
X06842Y037D02*
X0685Y03708D01*
X06858Y037D01*
X0685Y03692D01*
X06842Y037D01*
X06792Y036D02*
X068Y03608D01*
X06808Y036D01*
X068Y03592D01*
X06792Y036D01*
X06842Y035D02*
X0685Y03508D01*
X06858Y035D01*
X0685Y03492D01*
X06842Y035D01*
X06742Y037D02*
X0675Y03708D01*
X06758Y037D01*
X0675Y03692D01*
X06742Y037D01*
X06692Y036D02*
X067Y03608D01*
X06708Y036D01*
X067Y03592D01*
X06692Y036D01*
X06742Y035D02*
X0675Y03508D01*
X06758Y035D01*
X0675Y03492D01*
X06742Y035D01*
X06642Y037D02*
X0665Y03708D01*
X06658Y037D01*
X0665Y03692D01*
X06642Y037D01*
X06592Y036D02*
X066Y03608D01*
X06608Y036D01*
X066Y03592D01*
X06592Y036D01*
X06642Y035D02*
X0665Y03508D01*
X06658Y035D01*
X0665Y03492D01*
X06642Y035D01*
X06542Y037D02*
X0655Y03708D01*
X06558Y037D01*
X0655Y03692D01*
X06542Y037D01*
X06492Y036D02*
X065Y03608D01*
X06508Y036D01*
X065Y03592D01*
X06492Y036D01*
X06542Y035D02*
X0655Y03508D01*
X06558Y035D01*
X0655Y03492D01*
X06542Y035D01*
X06442D02*
X0645Y03508D01*
X06458Y035D01*
X0645Y03492D01*
X06442Y035D01*
X06292Y034D02*
X063Y03408D01*
X06308Y034D01*
X063Y03392D01*
X06292Y034D01*
X06242Y035D02*
X0625Y03508D01*
X06258Y035D01*
X0625Y03492D01*
X06242Y035D01*
X06042D02*
X0605Y03508D01*
X06058Y035D01*
X0605Y03492D01*
X06042Y035D01*
X05892Y036D02*
X059Y03608D01*
X05908Y036D01*
X059Y03592D01*
X05892Y036D01*
X05792D02*
X058Y03608D01*
X05808Y036D01*
X058Y03592D01*
X05792Y036D01*
X05842Y035D02*
X0585Y03508D01*
X05858Y035D01*
X0585Y03492D01*
X05842Y035D01*
X05692Y036D02*
X057Y03608D01*
X05708Y036D01*
X057Y03592D01*
X05692Y036D01*
X05742Y035D02*
X0575Y03508D01*
X05758Y035D01*
X0575Y03492D01*
X05742Y035D01*
X05592Y036D02*
X056Y03608D01*
X05608Y036D01*
X056Y03592D01*
X05592Y036D01*
X05642Y035D02*
X0565Y03508D01*
X05658Y035D01*
X0565Y03492D01*
X05642Y035D01*
X05492Y036D02*
X055Y03608D01*
X05508Y036D01*
X055Y03592D01*
X05492Y036D01*
X05542Y035D02*
X0555Y03508D01*
X05558Y035D01*
X0555Y03492D01*
X05542Y035D01*
X05392Y036D02*
X054Y03608D01*
X05408Y036D01*
X054Y03592D01*
X05392Y036D01*
X05442Y035D02*
X0545Y03508D01*
X05458Y035D01*
X0545Y03492D01*
X05442Y035D01*
X05292Y036D02*
X053Y03608D01*
X05308Y036D01*
X053Y03592D01*
X05292Y036D01*
X05342Y035D02*
X0535Y03508D01*
X05358Y035D01*
X0535Y03492D01*
X05342Y035D01*
X05292Y034D02*
X053Y03408D01*
X05308Y034D01*
X053Y03392D01*
X05292Y034D01*
X05192Y036D02*
X052Y03608D01*
X05208Y036D01*
X052Y03592D01*
X05192Y036D01*
X05242Y035D02*
X0525Y03508D01*
X05258Y035D01*
X0525Y03492D01*
X05242Y035D01*
X05092Y036D02*
X051Y03608D01*
X05108Y036D01*
X051Y03592D01*
X05092Y036D01*
X05142Y035D02*
X0515Y03508D01*
X05158Y035D01*
X0515Y03492D01*
X05142Y035D01*
X04992Y036D02*
X05Y03608D01*
X05008Y036D01*
X05Y03592D01*
X04992Y036D01*
X05042Y035D02*
X0505Y03508D01*
X05058Y035D01*
X0505Y03492D01*
X05042Y035D01*
X04892Y036D02*
X049Y03608D01*
X04908Y036D01*
X049Y03592D01*
X04892Y036D01*
X04942Y035D02*
X0495Y03508D01*
X04958Y035D01*
X0495Y03492D01*
X04942Y035D01*
X04792Y036D02*
X048Y03608D01*
X04808Y036D01*
X048Y03592D01*
X04792Y036D01*
X04842Y035D02*
X0485Y03508D01*
X04858Y035D01*
X0485Y03492D01*
X04842Y035D01*
X04742D02*
X0475Y03508D01*
X04758Y035D01*
X0475Y03492D01*
X04742Y035D01*
X04642D02*
X0465Y03508D01*
X04658Y035D01*
X0465Y03492D01*
X04642Y035D01*
X04492Y036D02*
X045Y03608D01*
X04508Y036D01*
X045Y03592D01*
X04492Y036D01*
Y034D02*
X045Y03408D01*
X04508Y034D01*
X045Y03392D01*
X04492Y034D01*
X04392Y036D02*
X044Y03608D01*
X04408Y036D01*
X044Y03592D01*
X04392Y036D01*
X04442Y035D02*
X0445Y03508D01*
X04458Y035D01*
X0445Y03492D01*
X04442Y035D01*
X04292Y036D02*
X043Y03608D01*
X04308Y036D01*
X043Y03592D01*
X04292Y036D01*
X04342Y035D02*
X0435Y03508D01*
X04358Y035D01*
X0435Y03492D01*
X04342Y035D01*
X08882Y0301D02*
X0889Y03018D01*
X08898Y0301D01*
X0889Y03002D01*
X08882Y0301D01*
Y0273D02*
X0889Y02738D01*
X08898Y0273D01*
X0889Y02722D01*
X08882Y0273D01*
X08917Y0196D02*
X08925Y01968D01*
X08933Y0196D01*
X08925Y01952D01*
X08917Y0196D01*
X08882Y0189D02*
X0889Y01898D01*
X08898Y0189D01*
X0889Y01882D01*
X08882Y0189D01*
X08812Y0301D02*
X0882Y03018D01*
X08828Y0301D01*
X0882Y03002D01*
X08812Y0301D01*
X08777Y0364D02*
X08785Y03648D01*
X08793Y0364D01*
X08785Y03632D01*
X08777Y0364D01*
X08742Y0343D02*
X0875Y03438D01*
X08758Y0343D01*
X0875Y03422D01*
X08742Y0343D01*
Y0273D02*
X0875Y02738D01*
X08758Y0273D01*
X0875Y02722D01*
X08742Y0273D01*
X08777Y0266D02*
X08785Y02668D01*
X08793Y0266D01*
X08785Y02652D01*
X08777Y0266D01*
X08707Y0364D02*
X08715Y03648D01*
X08723Y0364D01*
X08715Y03632D01*
X08707Y0364D01*
X08672Y0343D02*
X0868Y03438D01*
X08688Y0343D01*
X0868Y03422D01*
X08672Y0343D01*
X08707Y0336D02*
X08715Y03368D01*
X08723Y0336D01*
X08715Y03352D01*
X08707Y0336D01*
X08672Y0329D02*
X0868Y03298D01*
X08688Y0329D01*
X0868Y03282D01*
X08672Y0329D01*
Y0315D02*
X0868Y03158D01*
X08688Y0315D01*
X0868Y03142D01*
X08672Y0315D01*
X08707Y0266D02*
X08715Y02668D01*
X08723Y0266D01*
X08715Y02652D01*
X08707Y0266D01*
Y0238D02*
X08715Y02388D01*
X08723Y0238D01*
X08715Y02372D01*
X08707Y0238D01*
X08637Y0364D02*
X08645Y03648D01*
X08653Y0364D01*
X08645Y03632D01*
X08637Y0364D01*
X08602Y0343D02*
X0861Y03438D01*
X08618Y0343D01*
X0861Y03422D01*
X08602Y0343D01*
X08637Y0336D02*
X08645Y03368D01*
X08653Y0336D01*
X08645Y03352D01*
X08637Y0336D01*
X08602Y0329D02*
X0861Y03298D01*
X08618Y0329D01*
X0861Y03282D01*
X08602Y0329D01*
X08637Y0322D02*
X08645Y03228D01*
X08653Y0322D01*
X08645Y03212D01*
X08637Y0322D01*
Y0308D02*
X08645Y03088D01*
X08653Y0308D01*
X08645Y03072D01*
X08637Y0308D01*
Y0238D02*
X08645Y02388D01*
X08653Y0238D01*
X08645Y02372D01*
X08637Y0238D01*
X08602Y0189D02*
X0861Y01898D01*
X08618Y0189D01*
X0861Y01882D01*
X08602Y0189D01*
X08567Y0364D02*
X08575Y03648D01*
X08583Y0364D01*
X08575Y03632D01*
X08567Y0364D01*
X08532Y0343D02*
X0854Y03438D01*
X08548Y0343D01*
X0854Y03422D01*
X08532Y0343D01*
X08567Y0336D02*
X08575Y03368D01*
X08583Y0336D01*
X08575Y03352D01*
X08567Y0336D01*
X08532Y0329D02*
X0854Y03298D01*
X08548Y0329D01*
X0854Y03282D01*
X08532Y0329D01*
X08567Y0308D02*
X08575Y03088D01*
X08583Y0308D01*
X08575Y03072D01*
X08567Y0308D01*
Y0238D02*
X08575Y02388D01*
X08583Y0238D01*
X08575Y02372D01*
X08567Y0238D01*
Y0196D02*
X08575Y01968D01*
X08583Y0196D01*
X08575Y01952D01*
X08567Y0196D01*
X08532Y0189D02*
X0854Y01898D01*
X08548Y0189D01*
X0854Y01882D01*
X08532Y0189D01*
X08497Y0364D02*
X08505Y03648D01*
X08513Y0364D01*
X08505Y03632D01*
X08497Y0364D01*
X08462Y0357D02*
X0847Y03578D01*
X08478Y0357D01*
X0847Y03562D01*
X08462Y0357D01*
X08497Y035D02*
X08505Y03508D01*
X08513Y035D01*
X08505Y03492D01*
X08497Y035D01*
X08462Y0343D02*
X0847Y03438D01*
X08478Y0343D01*
X0847Y03422D01*
X08462Y0343D01*
X08497Y0336D02*
X08505Y03368D01*
X08513Y0336D01*
X08505Y03352D01*
X08497Y0336D01*
X08462Y0329D02*
X0847Y03298D01*
X08478Y0329D01*
X0847Y03282D01*
X08462Y0329D01*
X08497Y0196D02*
X08505Y01968D01*
X08513Y0196D01*
X08505Y01952D01*
X08497Y0196D01*
X08392Y0329D02*
X084Y03298D01*
X08408Y0329D01*
X084Y03282D01*
X08392Y0329D01*
X08427Y0322D02*
X08435Y03228D01*
X08443Y0322D01*
X08435Y03212D01*
X08427Y0322D01*
X08392Y0315D02*
X084Y03158D01*
X08408Y0315D01*
X084Y03142D01*
X08392Y0315D01*
X08182Y0329D02*
X0819Y03298D01*
X08198Y0329D01*
X0819Y03282D01*
X08182Y0329D01*
X08217Y0238D02*
X08225Y02388D01*
X08233Y0238D01*
X08225Y02372D01*
X08217Y0238D01*
X08112Y0329D02*
X0812Y03298D01*
X08128Y0329D01*
X0812Y03282D01*
X08112Y0329D01*
X08147Y0238D02*
X08155Y02388D01*
X08163Y0238D01*
X08155Y02372D01*
X08147Y0238D01*
Y0196D02*
X08155Y01968D01*
X08163Y0196D01*
X08155Y01952D01*
X08147Y0196D01*
X08112Y0189D02*
X0812Y01898D01*
X08128Y0189D01*
X0812Y01882D01*
X08112Y0189D01*
X08077Y0308D02*
X08085Y03088D01*
X08093Y0308D01*
X08085Y03072D01*
X08077Y0308D01*
X08042Y0273D02*
X0805Y02738D01*
X08058Y0273D01*
X0805Y02722D01*
X08042Y0273D01*
X08077Y0238D02*
X08085Y02388D01*
X08093Y0238D01*
X08085Y02372D01*
X08077Y0238D01*
Y0196D02*
X08085Y01968D01*
X08093Y0196D01*
X08085Y01952D01*
X08077Y0196D01*
X08007Y0308D02*
X08015Y03088D01*
X08023Y0308D01*
X08015Y03072D01*
X08007Y0308D01*
X07972Y0273D02*
X0798Y02738D01*
X07988Y0273D01*
X0798Y02722D01*
X07972Y0273D01*
X08007Y0266D02*
X08015Y02668D01*
X08023Y0266D01*
X08015Y02652D01*
X08007Y0266D01*
X07902Y0301D02*
X0791Y03018D01*
X07918Y0301D01*
X0791Y03002D01*
X07902Y0301D01*
Y0287D02*
X0791Y02878D01*
X07918Y0287D01*
X0791Y02862D01*
X07902Y0287D01*
Y0273D02*
X0791Y02738D01*
X07918Y0273D01*
X0791Y02722D01*
X07902Y0273D01*
Y0189D02*
X0791Y01898D01*
X07918Y0189D01*
X0791Y01882D01*
X07902Y0189D01*
X07832Y0315D02*
X0784Y03158D01*
X07848Y0315D01*
X0784Y03142D01*
X07832Y0315D01*
X07867Y0308D02*
X07875Y03088D01*
X07883Y0308D01*
X07875Y03072D01*
X07867Y0308D01*
X07832Y0301D02*
X0784Y03018D01*
X07848Y0301D01*
X0784Y03002D01*
X07832Y0301D01*
X07867Y0294D02*
X07875Y02948D01*
X07883Y0294D01*
X07875Y02932D01*
X07867Y0294D01*
X07832Y0287D02*
X0784Y02878D01*
X07848Y0287D01*
X0784Y02862D01*
X07832Y0287D01*
X07867Y028D02*
X07875Y02808D01*
X07883Y028D01*
X07875Y02792D01*
X07867Y028D01*
X07832Y0273D02*
X0784Y02738D01*
X07848Y0273D01*
X0784Y02722D01*
X07832Y0273D01*
X07867Y0266D02*
X07875Y02668D01*
X07883Y0266D01*
X07875Y02652D01*
X07867Y0266D01*
X07832Y0259D02*
X0784Y02598D01*
X07848Y0259D01*
X0784Y02582D01*
X07832Y0259D01*
X07867Y0252D02*
X07875Y02528D01*
X07883Y0252D01*
X07875Y02512D01*
X07867Y0252D01*
X07832Y0245D02*
X0784Y02458D01*
X07848Y0245D01*
X0784Y02442D01*
X07832Y0245D01*
Y0231D02*
X0784Y02318D01*
X07848Y0231D01*
X0784Y02302D01*
X07832Y0231D01*
X07867Y0196D02*
X07875Y01968D01*
X07883Y0196D01*
X07875Y01952D01*
X07867Y0196D01*
X07832Y0189D02*
X0784Y01898D01*
X07848Y0189D01*
X0784Y01882D01*
X07832Y0189D01*
X08647Y02857D02*
X08655Y02865D01*
X08663Y02857D01*
X08655Y02849D01*
X08647Y02857D01*
X08101Y02865D02*
X08109Y02873D01*
X08117Y02865D01*
X08109Y02857D01*
X08101Y02865D01*
X08647Y02528D02*
X08655Y02536D01*
X08663Y02528D01*
X08655Y0252D01*
X08647Y02528D01*
X08091Y02529D02*
X08099Y02537D01*
X08107Y02529D01*
X08099Y02521D01*
X08091Y02529D01*
X04673Y03607D02*
X04681Y03615D01*
X04689Y03607D01*
X04681Y03599D01*
X04673Y03607D01*
X07602Y04715D02*
X0761Y04723D01*
X07618Y04715D01*
X0761Y04707D01*
X07602Y04715D01*
X07612Y04755D02*
X0762Y04763D01*
X07628Y04755D01*
X0762Y04747D01*
X07612Y04755D01*
X05147Y03045D02*
X05155Y03053D01*
X05163Y03045D01*
X05155Y03037D01*
X05147Y03045D01*
Y03095D02*
X05155Y03103D01*
X05163Y03095D01*
X05155Y03087D01*
X05147Y03095D01*
Y0315D02*
X05155Y03158D01*
X05163Y0315D01*
X05155Y03142D01*
X05147Y0315D01*
Y032D02*
X05155Y03208D01*
X05163Y032D01*
X05155Y03192D01*
X05147Y032D01*
X07517Y03275D02*
X07525Y03283D01*
X07533Y03275D01*
X07525Y03267D01*
X07517Y03275D01*
X07007D02*
X07015Y03283D01*
X07023Y03275D01*
X07015Y03267D01*
X07007Y03275D01*
X06497Y0327D02*
X06505Y03278D01*
X06513Y0327D01*
X06505Y03262D01*
X06497Y0327D01*
X06002Y03275D02*
X0601Y03283D01*
X06018Y03275D01*
X0601Y03267D01*
X06002Y03275D01*
X05492D02*
X055Y03283D01*
X05508Y03275D01*
X055Y03267D01*
X05492Y03275D01*
X05037Y0324D02*
X05045Y03248D01*
X05053Y0324D01*
X05045Y03232D01*
X05037Y0324D01*
X08877Y0294D02*
X08885Y02948D01*
X08893Y0294D01*
X08885Y02932D01*
X08877Y0294D01*
X08732Y02895D02*
X0874Y02903D01*
X08748Y02895D01*
X0874Y02887D01*
X08732Y02895D01*
X08877D02*
X08885Y02903D01*
X08893Y02895D01*
X08885Y02887D01*
X08877Y02895D01*
X04157Y02055D02*
X04165Y02063D01*
X04173Y02055D01*
X04165Y02047D01*
X04157Y02055D01*
X04162Y0266D02*
X0417Y02668D01*
X04178Y0266D01*
X0417Y02652D01*
X04162Y0266D01*
X03367Y0207D02*
X03375Y02078D01*
X03383Y0207D01*
X03375Y02062D01*
X03367Y0207D01*
X03392Y02665D02*
X034Y02673D01*
X03408Y02665D01*
X034Y02657D01*
X03392Y02665D01*
X02642Y0205D02*
X0265Y02058D01*
X02658Y0205D01*
X0265Y02042D01*
X02642Y0205D01*
X02627Y02665D02*
X02635Y02673D01*
X02643Y02665D01*
X02635Y02657D01*
X02627Y02665D01*
X08327Y02505D02*
X08335Y02513D01*
X08343Y02505D01*
X08335Y02497D01*
X08327Y02505D01*
X08887Y0249D02*
X08895Y02498D01*
X08903Y0249D01*
X08895Y02482D01*
X08887Y0249D01*
X08162Y029D02*
X0817Y02908D01*
X08178Y029D01*
X0817Y02892D01*
X08162Y029D01*
X08097Y02475D02*
X08105Y02483D01*
X08113Y02475D01*
X08105Y02467D01*
X08097Y02475D01*
X08662Y0247D02*
X0867Y02478D01*
X08678Y0247D01*
X0867Y02462D01*
X08662Y0247D01*
X07912Y0196D02*
X0792Y01968D01*
X07928Y0196D01*
X0792Y01952D01*
X07912Y0196D01*
X08377Y0198D02*
X08385Y01988D01*
X08393Y0198D01*
X08385Y01972D01*
X08377Y0198D01*
X08032Y046D02*
X0804Y04608D01*
X08048Y046D01*
X0804Y04592D01*
X08032Y046D01*
X0829Y03265D02*
X08298Y03273D01*
X08306Y03265D01*
X08298Y03257D01*
X0829Y03265D01*
X0825D02*
X08258Y03273D01*
X08266Y03265D01*
X08258Y03257D01*
X0825Y03265D01*
X08456Y03985D02*
X08464Y03993D01*
X08472Y03985D01*
X08464Y03977D01*
X08456Y03985D01*
X08495D02*
X08503Y03993D01*
X08511Y03985D01*
X08503Y03977D01*
X08495Y03985D01*
X08028Y03891D02*
X08036Y03899D01*
X08044Y03891D01*
X08036Y03883D01*
X08028Y03891D01*
X08362Y03985D02*
X0837Y03993D01*
X08378Y03985D01*
X0837Y03977D01*
X08362Y03985D01*
X08402D02*
X0841Y03993D01*
X08418Y03985D01*
X0841Y03977D01*
X08402Y03985D01*
X08372Y04255D02*
X0838Y04263D01*
X08388Y04255D01*
X0838Y04247D01*
X08372Y04255D01*
X08412D02*
X0842Y04263D01*
X08428Y04255D01*
X0842Y04247D01*
X08412Y04255D01*
X08452D02*
X0846Y04263D01*
X08468Y04255D01*
X0846Y04247D01*
X08452Y04255D01*
X08492D02*
X085Y04263D01*
X08508Y04255D01*
X085Y04247D01*
X08492Y04255D01*
X08232Y03945D02*
X0824Y03953D01*
X08248Y03945D01*
X0824Y03937D01*
X08232Y03945D01*
X07862Y04135D02*
X0787Y04143D01*
X07878Y04135D01*
X0787Y04127D01*
X07862Y04135D01*
D85*
X08908Y051864D02*
G03*
X08908Y051864I-00008J0D01*
G01*
Y01645D02*
G03*
X08908Y01645I-00008J0D01*
G01*
X024855D02*
G03*
X024855Y01645I-00008J0D01*
G01*
X028792Y034234D02*
G03*
X028792Y034234I-00008J0D01*
G01*
X061469D02*
G03*
X061469Y034234I-00008J0D01*
G01*
X050248Y051274D02*
G03*
X050248Y051274I-00008J0D01*
G01*
X029579Y053526D02*
G03*
X029579Y053526I-00008J0D01*
G01*
M02*
