G04 Layer_Color=32896*
%FSTAX24Y24*%
%MOIN*%
G70*
G01*
G75*
%ADD25C,0.0100*%
%ADD46C,0.0098*%
%ADD47C,0.0079*%
%ADD48C,0.0039*%
%ADD49C,0.0040*%
%ADD50C,0.0050*%
%ADD52C,0.0080*%
D25*
X0282Y020288D02*
Y02265D01*
Y020288D02*
X029381D01*
Y02265D01*
X0282D02*
X029381D01*
X028397Y020878D02*
X029184D01*
X0371Y026438D02*
Y0288D01*
X035919D02*
X0371D01*
X035919Y026438D02*
Y0288D01*
Y026438D02*
X0371D01*
X036116Y028209D02*
X036903D01*
X028219Y026488D02*
Y02885D01*
Y026488D02*
X0294D01*
Y02885D01*
X028219D02*
X0294D01*
X028416Y027078D02*
X029203D01*
X044731Y0264D02*
Y028762D01*
X04355D02*
X044731D01*
X04355Y0264D02*
Y028762D01*
Y0264D02*
X044731D01*
X043747Y028172D02*
X044534D01*
X0371Y0202D02*
Y022562D01*
X035919D02*
X0371D01*
X035919Y0202D02*
Y022562D01*
Y0202D02*
X0371D01*
X036116Y021972D02*
X036903D01*
X044731Y0202D02*
Y022562D01*
X04355D02*
X044731D01*
X04355Y0202D02*
Y022562D01*
Y0202D02*
X044731D01*
X043747Y021972D02*
X044534D01*
D46*
X043308Y021506D02*
G03*
X043308Y021506I-000049J0D01*
G01*
X035658D02*
G03*
X035658Y021506I-000049J0D01*
G01*
X027958Y021406D02*
G03*
X027958Y021406I-000049J0D01*
G01*
Y027656D02*
G03*
X027958Y027656I-000049J0D01*
G01*
X035658D02*
G03*
X035658Y027656I-000049J0D01*
G01*
X043308D02*
G03*
X043308Y027656I-000049J0D01*
G01*
D47*
X045627Y033141D02*
Y033299D01*
X045273Y033141D02*
Y033299D01*
X041959Y022176D02*
X042274D01*
X041959Y021861D02*
Y022176D01*
X042826D02*
X043141D01*
Y021861D02*
Y022176D01*
X034309D02*
X034624D01*
X034309Y021861D02*
Y022176D01*
X035176D02*
X035491D01*
Y021861D02*
Y022176D01*
X026609Y022076D02*
X026924D01*
X026609Y021761D02*
Y022076D01*
X027476D02*
X027791D01*
Y021761D02*
Y022076D01*
X026609Y028326D02*
X026924D01*
X026609Y028011D02*
Y028326D01*
X027476D02*
X027791D01*
Y028011D02*
Y028326D01*
X034309D02*
X034624D01*
X034309Y028011D02*
Y028326D01*
X035176D02*
X035491D01*
Y028011D02*
Y028326D01*
X041959D02*
X042274D01*
X041959Y028011D02*
Y028326D01*
X042826D02*
X043141D01*
Y028011D02*
Y028326D01*
X025833Y032961D02*
Y033119D01*
X026187Y032961D02*
Y033119D01*
X024983Y032951D02*
Y033109D01*
X025337Y032951D02*
Y033109D01*
D48*
X045037Y034007D02*
X045863D01*
X045037Y032433D02*
X045863D01*
X045037D02*
Y034007D01*
X045863Y032433D02*
Y034007D01*
X0424Y02035D02*
X0427D01*
Y02075D01*
X0424D02*
X0427D01*
X0424Y02035D02*
Y02075D01*
X042Y0203D02*
X0431D01*
Y0208D01*
X0429D02*
X0431D01*
X042D02*
X0429D01*
X042Y0203D02*
Y0208D01*
X03475Y0203D02*
X03505D01*
Y0207D01*
X03475D02*
X03505D01*
X03475Y0203D02*
Y0207D01*
X03435Y02025D02*
X03545D01*
Y02075D01*
X03525D02*
X03545D01*
X03435D02*
X03525D01*
X03435Y02025D02*
Y02075D01*
X02705Y0203D02*
X02735D01*
Y0207D01*
X02705D02*
X02735D01*
X02705Y0203D02*
Y0207D01*
X02665Y02025D02*
X02775D01*
Y02075D01*
X02755D02*
X02775D01*
X02665D02*
X02755D01*
X02665Y02025D02*
Y02075D01*
X02705Y02645D02*
X02735D01*
Y02685D01*
X02705D02*
X02735D01*
X02705Y02645D02*
Y02685D01*
X02665Y0264D02*
X02775D01*
Y0269D01*
X02755D02*
X02775D01*
X02665D02*
X02755D01*
X02665Y0264D02*
Y0269D01*
X03475Y02645D02*
X03505D01*
Y02685D01*
X03475D02*
X03505D01*
X03475Y02645D02*
Y02685D01*
X03435Y0264D02*
X03545D01*
Y0269D01*
X03525D02*
X03545D01*
X03435D02*
X03525D01*
X03435Y0264D02*
Y0269D01*
X0424Y02645D02*
X0427D01*
Y02685D01*
X0424D02*
X0427D01*
X0424Y02645D02*
Y02685D01*
X042Y0264D02*
X0431D01*
Y0269D01*
X0429D02*
X0431D01*
X042D02*
X0429D01*
X042Y0264D02*
Y0269D01*
X026423Y032253D02*
Y033827D01*
X025597Y032253D02*
Y033827D01*
Y032253D02*
X026423D01*
X025597Y033827D02*
X026423D01*
X025573Y032243D02*
Y033817D01*
X024747Y032243D02*
Y033817D01*
Y032243D02*
X025573D01*
X024747Y033817D02*
X025573D01*
D49*
X083Y027586D02*
Y027926D01*
X0825Y027586D02*
Y027926D01*
X08225Y027586D02*
Y027926D01*
X08175Y027586D02*
Y027926D01*
X08151Y027586D02*
Y027926D01*
X08101Y027586D02*
Y027926D01*
X0825Y026086D02*
Y026426D01*
X083Y026086D02*
Y026426D01*
X08175Y026086D02*
Y026426D01*
X08225Y026086D02*
Y026426D01*
X081Y026086D02*
Y026426D01*
X0815Y026086D02*
Y026426D01*
X08605Y027586D02*
Y027926D01*
X08655Y027586D02*
Y027926D01*
X0853Y027586D02*
Y027926D01*
X0858Y027586D02*
Y027926D01*
X08455Y027586D02*
Y027926D01*
X08505Y027586D02*
Y027926D01*
X08655Y026086D02*
Y026426D01*
X08605Y026086D02*
Y026426D01*
X0858Y026086D02*
Y026426D01*
X0853Y026086D02*
Y026426D01*
X08505Y026086D02*
Y026426D01*
X08455Y026086D02*
Y026426D01*
D50*
X08241Y027056D02*
Y028456D01*
X08308D01*
Y027056D02*
Y028456D01*
X08241Y027056D02*
X08308D01*
X08166D02*
Y028456D01*
X08233D01*
Y027056D02*
Y028456D01*
X08166Y027056D02*
X08233D01*
X08092D02*
Y028456D01*
X08159D01*
Y027056D02*
Y028456D01*
X08092Y027056D02*
X08159D01*
X08309Y025556D02*
Y026956D01*
X08242Y025556D02*
X08309D01*
X08242D02*
Y026956D01*
X08309D01*
X08234Y025556D02*
Y026956D01*
X08167Y025556D02*
X08234D01*
X08167D02*
Y026956D01*
X08234D01*
X08159Y025556D02*
Y026956D01*
X08092Y025556D02*
X08159D01*
X08092D02*
Y026956D01*
X08159D01*
X08596Y027056D02*
X08663D01*
Y028456D01*
X08596D02*
X08663D01*
X08596Y027056D02*
Y028456D01*
X08521Y027056D02*
X08588D01*
Y028456D01*
X08521D02*
X08588D01*
X08521Y027056D02*
Y028456D01*
X08446Y027056D02*
X08513D01*
Y028456D01*
X08446D02*
X08513D01*
X08446Y027056D02*
Y028456D01*
X08597Y026956D02*
X08664D01*
X08597Y025556D02*
Y026956D01*
Y025556D02*
X08664D01*
Y026956D01*
X08522D02*
X08589D01*
X08522Y025556D02*
Y026956D01*
Y025556D02*
X08589D01*
Y026956D01*
X08447D02*
X08514D01*
X08447Y025556D02*
Y026956D01*
Y025556D02*
X08514D01*
Y026956D01*
D52*
X04562Y03188D02*
Y03168D01*
X04547D01*
Y03178D01*
Y03168D01*
X04532D01*
X04537Y03198D02*
X04532Y03203D01*
Y03213D01*
X04537Y03218D01*
X04557D01*
X04562Y03213D01*
Y03203D01*
X04557Y03198D01*
X04552D01*
X04547Y03203D01*
Y03218D01*
X0827Y02945D02*
X08265Y0295D01*
Y0296D01*
X0827Y02965D01*
X0829D01*
X08295Y0296D01*
Y0295D01*
X0829Y02945D01*
X08295Y02915D02*
Y02935D01*
X08275Y02915D01*
X0827D01*
X08265Y0292D01*
Y0293D01*
X0827Y02935D01*
X08295Y02885D02*
Y02905D01*
X08275Y02885D01*
X0827D01*
X08265Y0289D01*
Y029D01*
X0827Y02905D01*
X08205Y0294D02*
X082Y02945D01*
Y02955D01*
X08205Y0296D01*
X08225D01*
X0823Y02955D01*
Y02945D01*
X08225Y0294D01*
X0823Y0291D02*
Y0293D01*
X0821Y0291D01*
X08205D01*
X082Y02915D01*
Y02925D01*
X08205Y0293D01*
X0823Y029D02*
Y0289D01*
Y02895D01*
X082D01*
X08205Y029D01*
X081182Y029453D02*
X081132Y029503D01*
Y029603D01*
X081182Y029653D01*
X081382D01*
X081432Y029603D01*
Y029503D01*
X081382Y029453D01*
X081432Y029153D02*
Y029353D01*
X081232Y029153D01*
X081182D01*
X081132Y029203D01*
Y029303D01*
X081182Y029353D01*
Y029053D02*
X081132Y029003D01*
Y028903D01*
X081182Y028853D01*
X081382D01*
X081432Y028903D01*
Y029003D01*
X081382Y029053D01*
X081182D01*
X0826Y02515D02*
X08255Y0252D01*
Y0253D01*
X0826Y02535D01*
X0828D01*
X08285Y0253D01*
Y0252D01*
X0828Y02515D01*
X08285Y02505D02*
Y02495D01*
Y025D01*
X08255D01*
X0826Y02505D01*
X0828Y0248D02*
X08285Y02475D01*
Y02465D01*
X0828Y0246D01*
X0826D01*
X08255Y02465D01*
Y02475D01*
X0826Y0248D01*
X08265D01*
X0827Y02475D01*
Y0246D01*
X0819Y02515D02*
X08185Y0252D01*
Y0253D01*
X0819Y02535D01*
X0821D01*
X08215Y0253D01*
Y0252D01*
X0821Y02515D01*
X08215Y02505D02*
Y02495D01*
Y025D01*
X08185D01*
X0819Y02505D01*
Y0248D02*
X08185Y02475D01*
Y02465D01*
X0819Y0246D01*
X08195D01*
X082Y02465D01*
X08205Y0246D01*
X0821D01*
X08215Y02465D01*
Y02475D01*
X0821Y0248D01*
X08205D01*
X082Y02475D01*
X08195Y0248D01*
X0819D01*
X082Y02475D02*
Y02465D01*
X0813Y02515D02*
X08125Y0252D01*
Y0253D01*
X0813Y02535D01*
X0815D01*
X08155Y0253D01*
Y0252D01*
X0815Y02515D01*
X08155Y02505D02*
Y02495D01*
Y025D01*
X08125D01*
X0813Y02505D01*
X08125Y0248D02*
Y0246D01*
X0813D01*
X0815Y0248D01*
X08155D01*
X0847Y02515D02*
X08465Y0252D01*
Y0253D01*
X0847Y02535D01*
X0849D01*
X08495Y0253D01*
Y0252D01*
X0849Y02515D01*
X08495Y02505D02*
Y02495D01*
Y025D01*
X08465D01*
X0847Y02505D01*
X085453Y025168D02*
X085403Y025218D01*
Y025318D01*
X085453Y025368D01*
X085653D01*
X085703Y025318D01*
Y025218D01*
X085653Y025168D01*
X085703Y024868D02*
Y025068D01*
X085503Y024868D01*
X085453D01*
X085403Y024918D01*
Y025018D01*
X085453Y025068D01*
X086215Y025185D02*
X086165Y025235D01*
Y025335D01*
X086215Y025385D01*
X086415D01*
X086465Y025335D01*
Y025235D01*
X086415Y025185D01*
X086215Y025085D02*
X086165Y025035D01*
Y024935D01*
X086215Y024885D01*
X086265D01*
X086315Y024935D01*
Y024985D01*
Y024935D01*
X086365Y024885D01*
X086415D01*
X086465Y024935D01*
Y025035D01*
X086415Y025085D01*
X08615Y02895D02*
X0861Y029D01*
Y0291D01*
X08615Y02915D01*
X08635D01*
X0864Y0291D01*
Y029D01*
X08635Y02895D01*
X0864Y0287D02*
X0861D01*
X08625Y02885D01*
Y02865D01*
X0855Y02895D02*
X08545Y029D01*
Y0291D01*
X0855Y02915D01*
X0857D01*
X08575Y0291D01*
Y029D01*
X0857Y02895D01*
X08545Y02865D02*
Y02885D01*
X0856D01*
X08555Y02875D01*
Y0287D01*
X0856Y02865D01*
X0857D01*
X08575Y0287D01*
Y0288D01*
X0857Y02885D01*
X08475Y02895D02*
X0847Y029D01*
Y0291D01*
X08475Y02915D01*
X08495D01*
X085Y0291D01*
Y029D01*
X08495Y02895D01*
X0847Y02865D02*
X08475Y02875D01*
X08485Y02885D01*
X08495D01*
X085Y0288D01*
Y0287D01*
X08495Y02865D01*
X0849D01*
X08485Y0287D01*
Y02885D01*
X02935Y02328D02*
Y02298D01*
X0292D01*
X02915Y02303D01*
Y02323D01*
X0292Y02328D01*
X02935D01*
X02905Y02298D02*
X02895D01*
X029D01*
Y02328D01*
X02905Y02323D01*
X03707Y02943D02*
Y02913D01*
X03692D01*
X03687Y02918D01*
Y02938D01*
X03692Y02943D01*
X03707D01*
X03657Y02913D02*
X03677D01*
X03657Y02933D01*
Y02938D01*
X03662Y02943D01*
X03672D01*
X03677Y02938D01*
X02937Y02948D02*
Y02918D01*
X02922D01*
X02917Y02923D01*
Y02943D01*
X02922Y02948D01*
X02937D01*
X02907Y02943D02*
X02902Y02948D01*
X02892D01*
X02887Y02943D01*
Y02938D01*
X02892Y02933D01*
X02897D01*
X02892D01*
X02887Y02928D01*
Y02923D01*
X02892Y02918D01*
X02902D01*
X02907Y02923D01*
X0447Y02939D02*
Y02909D01*
X04455D01*
X0445Y02914D01*
Y02934D01*
X04455Y02939D01*
X0447D01*
X04425Y02909D02*
Y02939D01*
X0444Y02924D01*
X0442D01*
X03707Y02319D02*
Y02289D01*
X03692D01*
X03687Y02294D01*
Y02314D01*
X03692Y02319D01*
X03707D01*
X03657D02*
X03677D01*
Y02304D01*
X03667Y02309D01*
X03662D01*
X03657Y02304D01*
Y02294D01*
X03662Y02289D01*
X03672D01*
X03677Y02294D01*
X0447Y02319D02*
Y02289D01*
X04455D01*
X0445Y02294D01*
Y02314D01*
X04455Y02319D01*
X0447D01*
X0442D02*
X0443Y02314D01*
X0444Y02304D01*
Y02294D01*
X04435Y02289D01*
X04425D01*
X0442Y02294D01*
Y02299D01*
X04425Y02304D01*
X0444D01*
X026555Y022344D02*
Y022544D01*
X026605Y022594D01*
X026705D01*
X026755Y022544D01*
Y022344D01*
X026705Y022294D01*
X026605D01*
X026655Y022394D02*
X026555Y022294D01*
X026605D02*
X026555Y022344D01*
X026455Y022294D02*
X026355D01*
X026405D01*
Y022594D01*
X026455Y022544D01*
X0343Y0286D02*
Y0288D01*
X03435Y02885D01*
X03445D01*
X0345Y0288D01*
Y0286D01*
X03445Y02855D01*
X03435D01*
X0344Y02865D02*
X0343Y02855D01*
X03435D02*
X0343Y0286D01*
X034Y02855D02*
X0342D01*
X034Y02875D01*
Y0288D01*
X03405Y02885D01*
X03415D01*
X0342Y0288D01*
X0267Y0286D02*
Y0288D01*
X02675Y02885D01*
X02685D01*
X0269Y0288D01*
Y0286D01*
X02685Y02855D01*
X02675D01*
X0268Y02865D02*
X0267Y02855D01*
X02675D02*
X0267Y0286D01*
X0266Y0288D02*
X02655Y02885D01*
X02645D01*
X0264Y0288D01*
Y02875D01*
X02645Y0287D01*
X0265D01*
X02645D01*
X0264Y02865D01*
Y0286D01*
X02645Y02855D01*
X02655D01*
X0266Y0286D01*
X04205Y02865D02*
Y02885D01*
X0421Y0289D01*
X0422D01*
X04225Y02885D01*
Y02865D01*
X0422Y0286D01*
X0421D01*
X04215Y0287D02*
X04205Y0286D01*
X0421D02*
X04205Y02865D01*
X0418Y0286D02*
Y0289D01*
X04195Y02875D01*
X04175D01*
X03435Y02255D02*
Y02275D01*
X0344Y0228D01*
X0345D01*
X03455Y02275D01*
Y02255D01*
X0345Y0225D01*
X0344D01*
X03445Y0226D02*
X03435Y0225D01*
X0344D02*
X03435Y02255D01*
X03405Y0228D02*
X03425D01*
Y02265D01*
X03415Y0227D01*
X0341D01*
X03405Y02265D01*
Y02255D01*
X0341Y0225D01*
X0342D01*
X03425Y02255D01*
X04195Y0225D02*
Y0227D01*
X042Y02275D01*
X0421D01*
X04215Y0227D01*
Y0225D01*
X0421Y02245D01*
X042D01*
X04205Y02255D02*
X04195Y02245D01*
X042D02*
X04195Y0225D01*
X04165Y02275D02*
X04175Y0227D01*
X04185Y0226D01*
Y0225D01*
X0418Y02245D01*
X0417D01*
X04165Y0225D01*
Y02255D01*
X0417Y0226D01*
X04185D01*
X0277Y01965D02*
Y01995D01*
X02755D01*
X0275Y0199D01*
Y0198D01*
X02755Y01975D01*
X0277D01*
X0276D02*
X0275Y01965D01*
X0274D02*
X0273D01*
X02735D01*
Y01995D01*
X0274Y0199D01*
X03545Y02595D02*
Y02625D01*
X0353D01*
X03525Y0262D01*
Y0261D01*
X0353Y02605D01*
X03545D01*
X03535D02*
X03525Y02595D01*
X03495D02*
X03515D01*
X03495Y02615D01*
Y0262D01*
X035Y02625D01*
X0351D01*
X03515Y0262D01*
X02775Y0259D02*
Y0262D01*
X0276D01*
X02755Y02615D01*
Y02605D01*
X0276Y026D01*
X02775D01*
X02765D02*
X02755Y0259D01*
X02745Y02615D02*
X0274Y0262D01*
X0273D01*
X02725Y02615D01*
Y0261D01*
X0273Y02605D01*
X02735D01*
X0273D01*
X02725Y026D01*
Y02595D01*
X0273Y0259D01*
X0274D01*
X02745Y02595D01*
X0431Y02595D02*
Y02625D01*
X04295D01*
X0429Y0262D01*
Y0261D01*
X04295Y02605D01*
X0431D01*
X043D02*
X0429Y02595D01*
X04265D02*
Y02625D01*
X0428Y0261D01*
X0426D01*
X03545Y0198D02*
Y0201D01*
X0353D01*
X03525Y02005D01*
Y01995D01*
X0353Y0199D01*
X03545D01*
X03535D02*
X03525Y0198D01*
X03495Y0201D02*
X03515D01*
Y01995D01*
X03505Y02D01*
X035D01*
X03495Y01995D01*
Y01985D01*
X035Y0198D01*
X0351D01*
X03515Y01985D01*
X0431Y0198D02*
Y0201D01*
X04295D01*
X0429Y02005D01*
Y01995D01*
X04295Y0199D01*
X0431D01*
X043D02*
X0429Y0198D01*
X0426Y0201D02*
X0427Y02005D01*
X0428Y01995D01*
Y01985D01*
X04275Y0198D01*
X04265D01*
X0426Y01985D01*
Y0199D01*
X04265Y01995D01*
X0428D01*
X02585Y0343D02*
Y0345D01*
X026D01*
Y0344D01*
Y0345D01*
X02615D01*
Y0342D02*
Y0341D01*
Y03415D01*
X02585D01*
X0259Y0342D01*
X02505Y0343D02*
Y0345D01*
X0252D01*
Y0344D01*
Y0345D01*
X02535D01*
Y034D02*
Y0342D01*
X02515Y034D01*
X0251D01*
X02505Y03405D01*
Y03415D01*
X0251Y0342D01*
M02*
