G04 Layer_Color=16711935*
%FSTAX24Y24*%
%MOIN*%
G70*
G01*
G75*
%ADD53R,0.0513X0.0513*%
%ADD57R,0.0316X0.0434*%
%ADD63R,0.0630X0.0513*%
%ADD68C,0.0710*%
%ADD69R,0.0710X0.0710*%
%ADD70C,0.1458*%
%ADD71R,0.0867X0.1064*%
%ADD72O,0.1680X0.1080*%
%ADD73O,0.1080X0.1680*%
%ADD74C,0.0592*%
%ADD75R,0.0592X0.0592*%
%ADD76R,0.0710X0.0710*%
%ADD77C,0.0612*%
%ADD78R,0.0612X0.0612*%
%ADD79C,0.1064*%
%ADD80C,0.0320*%
%ADD81R,0.0760X0.0533*%
%ADD82R,0.0320X0.0680*%
D53*
X04545Y032846D02*
D03*
Y033594D02*
D03*
X02601Y033414D02*
D03*
Y032666D02*
D03*
X02516Y033404D02*
D03*
Y032656D02*
D03*
D57*
X042915Y02055D02*
D03*
X0422Y02055D02*
D03*
X035265Y0205D02*
D03*
X03455Y0205D02*
D03*
X027565Y0205D02*
D03*
X02685Y0205D02*
D03*
X027565Y02665D02*
D03*
X02685Y02665D02*
D03*
X035265Y02665D02*
D03*
X03455Y02665D02*
D03*
X042915Y02665D02*
D03*
X0422Y02665D02*
D03*
D63*
X08275Y02815D02*
D03*
Y027363D02*
D03*
X082Y02815D02*
D03*
Y027363D02*
D03*
X08126Y02815D02*
D03*
Y027363D02*
D03*
X08275Y025863D02*
D03*
Y02665D02*
D03*
X082Y025863D02*
D03*
Y02665D02*
D03*
X08125Y025863D02*
D03*
Y02665D02*
D03*
X0863Y027363D02*
D03*
Y02815D02*
D03*
X08555Y027363D02*
D03*
Y02815D02*
D03*
X0848Y027363D02*
D03*
Y02815D02*
D03*
X0863Y02665D02*
D03*
Y025863D02*
D03*
X08555Y02665D02*
D03*
Y025863D02*
D03*
X0848Y02665D02*
D03*
Y025863D02*
D03*
D68*
X0703Y05165D02*
D03*
X0713D02*
D03*
X0723D02*
D03*
X0733D02*
D03*
X0743D02*
D03*
Y05065D02*
D03*
X0733D02*
D03*
X0723D02*
D03*
X0713D02*
D03*
X060386Y036013D02*
D03*
Y037013D02*
D03*
Y038013D02*
D03*
Y039013D02*
D03*
Y040013D02*
D03*
Y041013D02*
D03*
Y042013D02*
D03*
Y043013D02*
D03*
Y044013D02*
D03*
Y045013D02*
D03*
Y046013D02*
D03*
Y047013D02*
D03*
Y048013D02*
D03*
Y049013D02*
D03*
Y050013D02*
D03*
Y051013D02*
D03*
Y052013D02*
D03*
Y053013D02*
D03*
X061386D02*
D03*
Y052013D02*
D03*
Y051013D02*
D03*
Y050013D02*
D03*
Y049013D02*
D03*
Y048013D02*
D03*
Y047013D02*
D03*
Y046013D02*
D03*
Y045013D02*
D03*
Y044013D02*
D03*
Y043013D02*
D03*
Y042013D02*
D03*
Y041013D02*
D03*
Y040013D02*
D03*
Y039013D02*
D03*
Y038013D02*
D03*
Y037013D02*
D03*
X075859Y036747D02*
D03*
Y037747D02*
D03*
Y038747D02*
D03*
Y039747D02*
D03*
X064048Y035928D02*
D03*
Y036928D02*
D03*
Y037928D02*
D03*
Y038928D02*
D03*
Y040928D02*
D03*
Y039928D02*
D03*
D69*
X0703Y05065D02*
D03*
D70*
X089Y051864D02*
D03*
Y01645D02*
D03*
X024775D02*
D03*
X028712Y034234D02*
D03*
X061389D02*
D03*
X050168Y051274D02*
D03*
X029499Y053526D02*
D03*
D71*
X08215Y05315D02*
D03*
X08415D02*
D03*
X080155D02*
D03*
X07816D02*
D03*
X0822Y01665D02*
D03*
X0802D02*
D03*
X0371Y0167D02*
D03*
X0351D02*
D03*
X039095D02*
D03*
X0864Y01665D02*
D03*
X0844D02*
D03*
X0289D02*
D03*
X0269D02*
D03*
X033D02*
D03*
X031D02*
D03*
X0758D02*
D03*
X0738D02*
D03*
X0704D02*
D03*
X0684D02*
D03*
X0494D02*
D03*
X0474D02*
D03*
X0536D02*
D03*
X0516D02*
D03*
X0578D02*
D03*
X0558D02*
D03*
X062D02*
D03*
X06D02*
D03*
X0662D02*
D03*
X0642D02*
D03*
D72*
X025684Y035778D02*
D03*
D73*
X024184Y037778D02*
D03*
X026684D02*
D03*
D74*
X057452Y053722D02*
D03*
X036783D02*
D03*
X03757D02*
D03*
X038358D02*
D03*
X039145D02*
D03*
X039932D02*
D03*
X04072D02*
D03*
X041507D02*
D03*
X042294D02*
D03*
X043082D02*
D03*
X052728D02*
D03*
X053515D02*
D03*
X054302D02*
D03*
X05509D02*
D03*
X055877D02*
D03*
X056665D02*
D03*
X045247D02*
D03*
X046035D02*
D03*
X046822D02*
D03*
X047609D02*
D03*
X048397D02*
D03*
X049184D02*
D03*
X049972D02*
D03*
X054696Y034037D02*
D03*
X055483D02*
D03*
X056271D02*
D03*
X057058D02*
D03*
X057846D02*
D03*
X058633D02*
D03*
X047216D02*
D03*
X048003D02*
D03*
X048791D02*
D03*
X049578D02*
D03*
X050365D02*
D03*
X051153D02*
D03*
X039735D02*
D03*
X040523D02*
D03*
X04131D02*
D03*
X042098D02*
D03*
X042885D02*
D03*
X043672D02*
D03*
X04446D02*
D03*
X05942D02*
D03*
X05194D02*
D03*
D75*
X035995Y053722D02*
D03*
X05194D02*
D03*
X04446D02*
D03*
X053909Y034037D02*
D03*
X046428D02*
D03*
X038948D02*
D03*
D76*
X061386Y036013D02*
D03*
X075859Y040747D02*
D03*
X064048Y041928D02*
D03*
D77*
X049578Y04388D02*
D03*
Y044667D02*
D03*
X048791D02*
D03*
Y04388D02*
D03*
Y043093D02*
D03*
D78*
X049578D02*
D03*
D79*
X029442Y023961D02*
D03*
Y019237D02*
D03*
X024639D02*
D03*
Y023961D02*
D03*
X030249Y021599D02*
D03*
X037142Y030161D02*
D03*
Y025437D02*
D03*
X032339D02*
D03*
Y030161D02*
D03*
X037949Y027799D02*
D03*
X029442Y030161D02*
D03*
Y025437D02*
D03*
X024639D02*
D03*
Y030161D02*
D03*
X030249Y027799D02*
D03*
X044792Y030161D02*
D03*
Y025437D02*
D03*
X039989D02*
D03*
Y030161D02*
D03*
X045599Y027799D02*
D03*
X037142Y023961D02*
D03*
Y019237D02*
D03*
X032339D02*
D03*
Y023961D02*
D03*
X037949Y021599D02*
D03*
X044792Y023961D02*
D03*
Y019237D02*
D03*
X039989D02*
D03*
Y023961D02*
D03*
X045599Y021599D02*
D03*
X047484Y029211D02*
D03*
X050476D02*
D03*
X047484Y019211D02*
D03*
Y021211D02*
D03*
Y023211D02*
D03*
X050476Y019211D02*
D03*
Y021211D02*
D03*
Y023211D02*
D03*
X052534Y029211D02*
D03*
X055526D02*
D03*
X052534Y019211D02*
D03*
Y021211D02*
D03*
Y023211D02*
D03*
X055526Y019211D02*
D03*
Y021211D02*
D03*
Y023211D02*
D03*
X057584Y029211D02*
D03*
X060576D02*
D03*
X057584Y019211D02*
D03*
Y021211D02*
D03*
Y023211D02*
D03*
X060576Y019211D02*
D03*
Y021211D02*
D03*
Y023211D02*
D03*
X062634Y029211D02*
D03*
X065626D02*
D03*
X062634Y019211D02*
D03*
Y021211D02*
D03*
Y023211D02*
D03*
X065626Y019211D02*
D03*
Y021211D02*
D03*
Y023211D02*
D03*
X067734Y029211D02*
D03*
X070726D02*
D03*
X067734Y019211D02*
D03*
Y021211D02*
D03*
Y023211D02*
D03*
X070726Y019211D02*
D03*
Y021211D02*
D03*
Y023211D02*
D03*
X072784Y029211D02*
D03*
X075776D02*
D03*
X072784Y019211D02*
D03*
Y021211D02*
D03*
Y023211D02*
D03*
X075776Y019211D02*
D03*
Y021211D02*
D03*
Y023211D02*
D03*
D80*
X076Y032D02*
D03*
X0765Y031D02*
D03*
Y027D02*
D03*
X0745Y031D02*
D03*
Y029D02*
D03*
X072Y032D02*
D03*
X0725Y031D02*
D03*
X072Y03D02*
D03*
X071Y032D02*
D03*
X0715Y031D02*
D03*
X0695D02*
D03*
Y029D02*
D03*
X067Y032D02*
D03*
X0675Y031D02*
D03*
X067Y03D02*
D03*
X066Y032D02*
D03*
X0665Y031D02*
D03*
Y029D02*
D03*
X064Y03D02*
D03*
X062Y032D02*
D03*
X0625Y031D02*
D03*
X062Y03D02*
D03*
X061Y032D02*
D03*
X0615Y031D02*
D03*
Y029D02*
D03*
X059Y03D02*
D03*
X057Y032D02*
D03*
X0575Y031D02*
D03*
X057Y03D02*
D03*
X056Y032D02*
D03*
X0565Y031D02*
D03*
Y029D02*
D03*
X054Y03D02*
D03*
X052Y032D02*
D03*
X0525Y031D02*
D03*
X052Y03D02*
D03*
X051Y032D02*
D03*
X0515Y029D02*
D03*
X049Y03D02*
D03*
Y028D02*
D03*
X0495Y025D02*
D03*
X048Y028D02*
D03*
X0475Y027D02*
D03*
X046Y024D02*
D03*
X0455Y023D02*
D03*
X045Y018D02*
D03*
X0455Y017D02*
D03*
X045Y016D02*
D03*
X044Y018D02*
D03*
X0445Y017D02*
D03*
X044Y016D02*
D03*
X043Y032D02*
D03*
Y024D02*
D03*
Y018D02*
D03*
X0435Y017D02*
D03*
X043Y016D02*
D03*
X042Y032D02*
D03*
Y018D02*
D03*
X0425Y017D02*
D03*
X042Y016D02*
D03*
X041Y032D02*
D03*
X0415Y031D02*
D03*
X041Y03D02*
D03*
Y028D02*
D03*
X0415Y017D02*
D03*
X041Y016D02*
D03*
X04Y032D02*
D03*
X0405Y031D02*
D03*
Y027D02*
D03*
Y023D02*
D03*
Y021D02*
D03*
Y017D02*
D03*
X04Y016D02*
D03*
X039Y032D02*
D03*
X0395Y031D02*
D03*
X039Y03D02*
D03*
X0395Y029D02*
D03*
X039Y028D02*
D03*
X0395Y027D02*
D03*
X039Y024D02*
D03*
X0395Y023D02*
D03*
X039Y022D02*
D03*
X038Y032D02*
D03*
X0385Y031D02*
D03*
Y029D02*
D03*
Y023D02*
D03*
X038Y016D02*
D03*
X037Y032D02*
D03*
X0375Y029D02*
D03*
Y027D02*
D03*
X037Y018D02*
D03*
X036Y032D02*
D03*
Y018D02*
D03*
Y016D02*
D03*
X035Y032D02*
D03*
X0355Y031D02*
D03*
X035Y03D02*
D03*
Y024D02*
D03*
X0345Y031D02*
D03*
X034Y016D02*
D03*
X033Y028D02*
D03*
X0335Y027D02*
D03*
X033Y018D02*
D03*
X032Y032D02*
D03*
X0325Y031D02*
D03*
Y027D02*
D03*
Y023D02*
D03*
X032Y018D02*
D03*
Y016D02*
D03*
X031Y032D02*
D03*
X0315Y031D02*
D03*
X031Y03D02*
D03*
Y024D02*
D03*
X0315Y023D02*
D03*
X031Y022D02*
D03*
X03Y032D02*
D03*
X0305Y031D02*
D03*
Y023D02*
D03*
X03Y018D02*
D03*
Y016D02*
D03*
X029Y032D02*
D03*
Y018D02*
D03*
X028Y032D02*
D03*
X0285Y031D02*
D03*
X028Y016D02*
D03*
X027Y024D02*
D03*
Y018D02*
D03*
X026Y032D02*
D03*
X0265Y029D02*
D03*
X026Y028D02*
D03*
Y016D02*
D03*
X025Y032D02*
D03*
X0255Y031D02*
D03*
X025Y022D02*
D03*
Y018D02*
D03*
X024Y032D02*
D03*
X0245Y031D02*
D03*
Y023D02*
D03*
X024Y022D02*
D03*
X0245Y021D02*
D03*
X024Y018D02*
D03*
X0855Y053D02*
D03*
X085Y052D02*
D03*
X0855Y051D02*
D03*
Y049D02*
D03*
X085Y048D02*
D03*
X0855Y047D02*
D03*
X085Y046D02*
D03*
X0855Y045D02*
D03*
X085Y044D02*
D03*
X084Y052D02*
D03*
X0845Y051D02*
D03*
Y049D02*
D03*
Y047D02*
D03*
X084Y046D02*
D03*
X0845Y045D02*
D03*
X084Y044D02*
D03*
X0835Y047D02*
D03*
X082Y052D02*
D03*
X0825Y051D02*
D03*
Y049D02*
D03*
X0815Y053D02*
D03*
X081Y052D02*
D03*
X0815Y051D02*
D03*
Y045D02*
D03*
X08Y052D02*
D03*
X0805Y051D02*
D03*
Y045D02*
D03*
X0775Y043D02*
D03*
X077Y042D02*
D03*
Y04D02*
D03*
X0775Y039D02*
D03*
X077Y038D02*
D03*
X0775Y037D02*
D03*
X077Y036D02*
D03*
X0775Y035D02*
D03*
X077Y034D02*
D03*
X0765Y037D02*
D03*
X076Y036D02*
D03*
X0765Y035D02*
D03*
X076Y034D02*
D03*
X075Y036D02*
D03*
X0755Y035D02*
D03*
X075Y034D02*
D03*
X0745Y037D02*
D03*
X074Y036D02*
D03*
X0745Y035D02*
D03*
X0735Y037D02*
D03*
X073Y036D02*
D03*
X0735Y035D02*
D03*
X0725Y037D02*
D03*
X072Y036D02*
D03*
X0725Y035D02*
D03*
X0715Y037D02*
D03*
X071Y036D02*
D03*
X0715Y035D02*
D03*
X0705Y037D02*
D03*
X07Y036D02*
D03*
X0705Y035D02*
D03*
X0695Y037D02*
D03*
X069Y036D02*
D03*
X0695Y035D02*
D03*
X0685Y037D02*
D03*
X068Y036D02*
D03*
X0685Y035D02*
D03*
X0675Y037D02*
D03*
X067Y036D02*
D03*
X0675Y035D02*
D03*
X0665Y037D02*
D03*
X066Y036D02*
D03*
X0665Y035D02*
D03*
X0655Y037D02*
D03*
X065Y036D02*
D03*
X0655Y035D02*
D03*
X0645D02*
D03*
X063Y034D02*
D03*
X0625Y035D02*
D03*
X0605D02*
D03*
X059Y036D02*
D03*
X058D02*
D03*
X0585Y035D02*
D03*
X057Y036D02*
D03*
X0575Y035D02*
D03*
X056Y036D02*
D03*
X0565Y035D02*
D03*
X055Y036D02*
D03*
X0555Y035D02*
D03*
X054Y036D02*
D03*
X0545Y035D02*
D03*
X053Y036D02*
D03*
X0535Y035D02*
D03*
X053Y034D02*
D03*
X052Y036D02*
D03*
X0525Y035D02*
D03*
X051Y036D02*
D03*
X0515Y035D02*
D03*
X05Y036D02*
D03*
X0505Y035D02*
D03*
X049Y036D02*
D03*
X0495Y035D02*
D03*
X048Y036D02*
D03*
X0485Y035D02*
D03*
X0475D02*
D03*
X0465D02*
D03*
X045Y036D02*
D03*
Y034D02*
D03*
X044Y036D02*
D03*
X0445Y035D02*
D03*
X043Y036D02*
D03*
X0435Y035D02*
D03*
X0889Y0301D02*
D03*
Y0273D02*
D03*
X08925Y0196D02*
D03*
X0889Y0189D02*
D03*
X0882Y0301D02*
D03*
X08785Y0364D02*
D03*
X0875Y0343D02*
D03*
Y0273D02*
D03*
X08785Y0266D02*
D03*
X08715Y0364D02*
D03*
X0868Y0343D02*
D03*
X08715Y0336D02*
D03*
X0868Y0329D02*
D03*
Y0315D02*
D03*
X08715Y0266D02*
D03*
Y0238D02*
D03*
X08645Y0364D02*
D03*
X0861Y0343D02*
D03*
X08645Y0336D02*
D03*
X0861Y0329D02*
D03*
X08645Y0322D02*
D03*
Y0308D02*
D03*
Y0238D02*
D03*
X0861Y0189D02*
D03*
X08575Y0364D02*
D03*
X0854Y0343D02*
D03*
X08575Y0336D02*
D03*
X0854Y0329D02*
D03*
X08575Y0308D02*
D03*
Y0238D02*
D03*
Y0196D02*
D03*
X0854Y0189D02*
D03*
X08505Y0364D02*
D03*
X0847Y0357D02*
D03*
X08505Y035D02*
D03*
X0847Y0343D02*
D03*
X08505Y0336D02*
D03*
X0847Y0329D02*
D03*
X08505Y0196D02*
D03*
X084Y0329D02*
D03*
X08435Y0322D02*
D03*
X084Y0315D02*
D03*
X0819Y0329D02*
D03*
X08225Y0238D02*
D03*
X0812Y0329D02*
D03*
X08155Y0238D02*
D03*
Y0196D02*
D03*
X0812Y0189D02*
D03*
X08085Y0308D02*
D03*
X0805Y0273D02*
D03*
X08085Y0238D02*
D03*
Y0196D02*
D03*
X08015Y0308D02*
D03*
X0798Y0273D02*
D03*
X08015Y0266D02*
D03*
X0791Y0301D02*
D03*
Y0287D02*
D03*
Y0273D02*
D03*
Y0189D02*
D03*
X0784Y0315D02*
D03*
X07875Y0308D02*
D03*
X0784Y0301D02*
D03*
X07875Y0294D02*
D03*
X0784Y0287D02*
D03*
X07875Y028D02*
D03*
X0784Y0273D02*
D03*
X07875Y0266D02*
D03*
X0784Y0259D02*
D03*
X07875Y0252D02*
D03*
X0784Y0245D02*
D03*
Y0231D02*
D03*
X07875Y0196D02*
D03*
X0784Y0189D02*
D03*
X08655Y02857D02*
D03*
X08109Y02865D02*
D03*
X08655Y02528D02*
D03*
X08099Y02529D02*
D03*
X04681Y03607D02*
D03*
X0761Y04715D02*
D03*
X0762Y04755D02*
D03*
X05155Y03045D02*
D03*
Y03095D02*
D03*
Y0315D02*
D03*
Y032D02*
D03*
X07525Y03275D02*
D03*
X07015D02*
D03*
X06505Y0327D02*
D03*
X0601Y03275D02*
D03*
X055D02*
D03*
X05045Y0324D02*
D03*
X08885Y0294D02*
D03*
X0874Y02895D02*
D03*
X08885D02*
D03*
X04165Y02055D02*
D03*
X0417Y0266D02*
D03*
X03375Y0207D02*
D03*
X034Y02665D02*
D03*
X0265Y0205D02*
D03*
X02635Y02665D02*
D03*
X08335Y02505D02*
D03*
X08895Y0249D02*
D03*
X0817Y029D02*
D03*
X08105Y02475D02*
D03*
X0867Y0247D02*
D03*
X0792Y0196D02*
D03*
X08385Y0198D02*
D03*
X0804Y046D02*
D03*
X08298Y03265D02*
D03*
X08258D02*
D03*
X08464Y03985D02*
D03*
X08503D02*
D03*
X08036Y03891D02*
D03*
X0837Y03985D02*
D03*
X0841D02*
D03*
X0838Y04255D02*
D03*
X0842D02*
D03*
X0846D02*
D03*
X085D02*
D03*
X0824Y03945D02*
D03*
X0787Y04135D02*
D03*
D81*
X028791Y020512D02*
D03*
Y022328D02*
D03*
X036509Y028576D02*
D03*
Y02676D02*
D03*
X028809Y026711D02*
D03*
Y028528D02*
D03*
X044141Y028538D02*
D03*
Y026722D02*
D03*
X036509Y022339D02*
D03*
Y020522D02*
D03*
X044141Y022339D02*
D03*
Y020522D02*
D03*
D82*
X04255Y022464D02*
D03*
X042176Y021336D02*
D03*
X042924D02*
D03*
X0349Y022464D02*
D03*
X034526Y021336D02*
D03*
X035274D02*
D03*
X0272Y022364D02*
D03*
X026826Y021236D02*
D03*
X027574D02*
D03*
X0272Y028614D02*
D03*
X026826Y027486D02*
D03*
X027574D02*
D03*
X0349Y028614D02*
D03*
X034526Y027486D02*
D03*
X035274D02*
D03*
X04255Y028614D02*
D03*
X042176Y027486D02*
D03*
X042924D02*
D03*
M02*
