G04 Layer_Color=255*
%FSTAX24Y24*%
%MOIN*%
G70*
G01*
G75*
%ADD10R,0.0433X0.0433*%
%ADD11R,0.0433X0.0433*%
%ADD12O,0.0236X0.0669*%
%ADD13R,0.0354X0.0236*%
%ADD14R,0.0236X0.0354*%
%ADD15R,0.0709X0.0630*%
%ADD16R,0.1500X0.1299*%
%ADD17R,0.1500X0.1260*%
%ADD18R,0.0433X0.0550*%
%ADD19R,0.1102X0.0394*%
%ADD20R,0.0550X0.0433*%
%ADD21O,0.0236X0.1161*%
%ADD22R,0.0236X0.0571*%
%ADD23R,0.0600X0.0240*%
%ADD24R,0.0453X0.0680*%
%ADD30C,0.0630*%
%ADD31R,0.0630X0.0630*%
%ADD32C,0.1378*%
%ADD33R,0.0787X0.0984*%
%ADD34O,0.1600X0.1000*%
%ADD35O,0.1000X0.1600*%
%ADD36C,0.0512*%
%ADD37R,0.0512X0.0512*%
%ADD38R,0.0630X0.0630*%
%ADD39C,0.0532*%
%ADD40R,0.0532X0.0532*%
%ADD41C,0.0984*%
D10*
X0811Y050414D02*
D03*
Y049666D02*
D03*
X0828Y049666D02*
D03*
Y050414D02*
D03*
X0845Y049666D02*
D03*
Y050414D02*
D03*
X08195Y050414D02*
D03*
Y049666D02*
D03*
X08365Y050414D02*
D03*
Y049666D02*
D03*
X08278Y033874D02*
D03*
Y033126D02*
D03*
X0805D02*
D03*
Y033874D02*
D03*
X08485Y041674D02*
D03*
Y040926D02*
D03*
X08393Y041674D02*
D03*
Y040926D02*
D03*
D11*
X080526Y0455D02*
D03*
X081274D02*
D03*
X080526Y04715D02*
D03*
X081274D02*
D03*
X080526Y04635D02*
D03*
X081274D02*
D03*
X077926Y04135D02*
D03*
X078674D02*
D03*
X078826Y04375D02*
D03*
X079574D02*
D03*
D12*
X0795Y028093D02*
D03*
X0805D02*
D03*
X081D02*
D03*
X0815D02*
D03*
X082D02*
D03*
X0825D02*
D03*
X0815Y025807D02*
D03*
X082D02*
D03*
X0825Y025806D02*
D03*
X08Y028093D02*
D03*
X081Y025807D02*
D03*
X0805D02*
D03*
X08D02*
D03*
X0795D02*
D03*
X08505D02*
D03*
X08555D02*
D03*
X08605D02*
D03*
X08655D02*
D03*
X08555Y028093D02*
D03*
X08805Y025806D02*
D03*
X08755Y025807D02*
D03*
X08705D02*
D03*
X08805Y028093D02*
D03*
X08755D02*
D03*
X08705D02*
D03*
X08655D02*
D03*
X08605D02*
D03*
X08505D02*
D03*
X08035Y037157D02*
D03*
X08085D02*
D03*
X08135D02*
D03*
X08185D02*
D03*
X08035Y039443D02*
D03*
X08085D02*
D03*
X08135D02*
D03*
X08185D02*
D03*
D13*
X08784Y03318D02*
D03*
X08784Y033895D02*
D03*
X07965Y01945D02*
D03*
X07965Y018735D02*
D03*
X0822Y01945D02*
D03*
X0822Y018735D02*
D03*
X08275Y01945D02*
D03*
X08275Y018735D02*
D03*
X0802Y01945D02*
D03*
X0802Y018735D02*
D03*
X08725D02*
D03*
X08725Y01945D02*
D03*
X0867Y018735D02*
D03*
X0867Y01945D02*
D03*
X0844Y018735D02*
D03*
X0844Y01945D02*
D03*
X08385Y018735D02*
D03*
X08385Y01945D02*
D03*
X08834Y033895D02*
D03*
X08834Y03318D02*
D03*
X08769Y039745D02*
D03*
X08769Y03903D02*
D03*
X08829Y039745D02*
D03*
X08829Y03903D02*
D03*
X07525Y031685D02*
D03*
X07525Y0324D02*
D03*
X07015Y031685D02*
D03*
X07015Y0324D02*
D03*
X06505Y031685D02*
D03*
X06505Y0324D02*
D03*
X0601Y031685D02*
D03*
X0601Y0324D02*
D03*
X055Y031685D02*
D03*
X055Y0324D02*
D03*
X04995Y031685D02*
D03*
X04995Y0324D02*
D03*
X08265Y039965D02*
D03*
X08265Y03925D02*
D03*
D14*
X0795Y02895D02*
D03*
X080215Y02895D02*
D03*
X0828Y02285D02*
D03*
X082085Y02285D02*
D03*
X0821Y0234D02*
D03*
X082815Y0234D02*
D03*
X0804Y0234D02*
D03*
X079685Y0234D02*
D03*
X0804Y02285D02*
D03*
X079685Y02285D02*
D03*
X08165Y0295D02*
D03*
X082365Y0295D02*
D03*
X0795Y0295D02*
D03*
X080215Y0295D02*
D03*
X084885Y02285D02*
D03*
X0856Y02285D02*
D03*
X084885Y0234D02*
D03*
X0856Y0234D02*
D03*
X087035Y02285D02*
D03*
X08775Y02285D02*
D03*
X087765Y0234D02*
D03*
X08705Y0234D02*
D03*
X085615Y02895D02*
D03*
X0849Y02895D02*
D03*
X085615Y0295D02*
D03*
X0849Y0295D02*
D03*
X087415Y0295D02*
D03*
X0867Y0295D02*
D03*
D15*
X08185Y020499D02*
D03*
Y021851D02*
D03*
X0829D02*
D03*
Y020499D02*
D03*
X07965Y021851D02*
D03*
Y020499D02*
D03*
X0807D02*
D03*
Y021851D02*
D03*
X08805Y020499D02*
D03*
Y021851D02*
D03*
X087D02*
D03*
Y020499D02*
D03*
X0859Y021851D02*
D03*
Y020499D02*
D03*
X08485D02*
D03*
Y021851D02*
D03*
X08265Y041831D02*
D03*
Y040769D02*
D03*
D16*
X079953Y0317D02*
D03*
X085353D02*
D03*
D17*
X082647D02*
D03*
X088047D02*
D03*
D18*
X082244Y03015D02*
D03*
X081456D02*
D03*
X079606Y03014D02*
D03*
X080394D02*
D03*
X085794Y03015D02*
D03*
X085006D02*
D03*
X086506Y03015D02*
D03*
X087294D02*
D03*
X080406Y04794D02*
D03*
X081194D02*
D03*
X080406Y04864D02*
D03*
X081194D02*
D03*
D19*
X081519Y03545D02*
D03*
X079681D02*
D03*
X081519Y04115D02*
D03*
X079681D02*
D03*
D20*
X0796Y038806D02*
D03*
Y039594D02*
D03*
X08899Y033286D02*
D03*
Y034074D02*
D03*
X08574Y039874D02*
D03*
Y039086D02*
D03*
X08654Y039874D02*
D03*
Y039086D02*
D03*
X08899Y039086D02*
D03*
Y039874D02*
D03*
D21*
X08909Y037811D02*
D03*
X08859D02*
D03*
X08814D02*
D03*
X08759D02*
D03*
X08709D02*
D03*
X08659D02*
D03*
X08609D02*
D03*
X08559D02*
D03*
X08909Y035449D02*
D03*
X08859D02*
D03*
X08809D02*
D03*
X08759D02*
D03*
X08709D02*
D03*
X08659D02*
D03*
X08609D02*
D03*
X08559D02*
D03*
D22*
X08215Y045817D02*
D03*
X08265D02*
D03*
X08315D02*
D03*
X08365D02*
D03*
X08215Y047963D02*
D03*
X08265D02*
D03*
X08315D02*
D03*
X08365D02*
D03*
D23*
X073436Y03205D02*
D03*
X074564Y032424D02*
D03*
Y031676D02*
D03*
X068386Y03205D02*
D03*
X069514Y032424D02*
D03*
Y031676D02*
D03*
X063286Y03205D02*
D03*
X064414Y032424D02*
D03*
Y031676D02*
D03*
X058236Y03205D02*
D03*
X059364Y032424D02*
D03*
Y031676D02*
D03*
X053186Y03205D02*
D03*
X054314Y032424D02*
D03*
Y031676D02*
D03*
X048136Y03205D02*
D03*
X049264Y032424D02*
D03*
Y031676D02*
D03*
D24*
X075188Y030641D02*
D03*
X073372D02*
D03*
X070139D02*
D03*
X068322D02*
D03*
X065038D02*
D03*
X063222D02*
D03*
X060038D02*
D03*
X058222D02*
D03*
X054889D02*
D03*
X053072D02*
D03*
X049939D02*
D03*
X048122D02*
D03*
D30*
X0703Y05165D02*
D03*
X0713D02*
D03*
X0723D02*
D03*
X0733D02*
D03*
X0743D02*
D03*
Y05065D02*
D03*
X0733D02*
D03*
X0723D02*
D03*
X0713D02*
D03*
X060386Y036013D02*
D03*
Y037013D02*
D03*
Y038013D02*
D03*
Y039013D02*
D03*
Y040013D02*
D03*
Y041013D02*
D03*
Y042013D02*
D03*
Y043013D02*
D03*
Y044013D02*
D03*
Y045013D02*
D03*
Y046013D02*
D03*
Y047013D02*
D03*
Y048013D02*
D03*
Y049013D02*
D03*
Y050013D02*
D03*
Y051013D02*
D03*
Y052013D02*
D03*
Y053013D02*
D03*
X061386D02*
D03*
Y052013D02*
D03*
Y051013D02*
D03*
Y050013D02*
D03*
Y049013D02*
D03*
Y048013D02*
D03*
Y047013D02*
D03*
Y046013D02*
D03*
Y045013D02*
D03*
Y044013D02*
D03*
Y043013D02*
D03*
Y042013D02*
D03*
Y041013D02*
D03*
Y040013D02*
D03*
Y039013D02*
D03*
Y038013D02*
D03*
Y037013D02*
D03*
X075859Y036747D02*
D03*
Y037747D02*
D03*
Y038747D02*
D03*
Y039747D02*
D03*
X064048Y035928D02*
D03*
Y036928D02*
D03*
Y037928D02*
D03*
Y038928D02*
D03*
Y040928D02*
D03*
Y039928D02*
D03*
D31*
X0703Y05065D02*
D03*
D32*
X089Y051864D02*
D03*
Y01645D02*
D03*
X024775D02*
D03*
X028712Y034234D02*
D03*
X061389D02*
D03*
X050168Y051274D02*
D03*
X029499Y053526D02*
D03*
D33*
X08215Y05315D02*
D03*
X08415D02*
D03*
X080155D02*
D03*
X07816D02*
D03*
X0822Y01665D02*
D03*
X0802D02*
D03*
X0371Y0167D02*
D03*
X0351D02*
D03*
X039095D02*
D03*
X0864Y01665D02*
D03*
X0844D02*
D03*
X0289D02*
D03*
X0269D02*
D03*
X033D02*
D03*
X031D02*
D03*
X0758D02*
D03*
X0738D02*
D03*
X0704D02*
D03*
X0684D02*
D03*
X0494D02*
D03*
X0474D02*
D03*
X0536D02*
D03*
X0516D02*
D03*
X0578D02*
D03*
X0558D02*
D03*
X062D02*
D03*
X06D02*
D03*
X0662D02*
D03*
X0642D02*
D03*
D34*
X025684Y035778D02*
D03*
D35*
X024184Y037778D02*
D03*
X026684D02*
D03*
D36*
X057452Y053722D02*
D03*
X036783D02*
D03*
X03757D02*
D03*
X038358D02*
D03*
X039145D02*
D03*
X039932D02*
D03*
X04072D02*
D03*
X041507D02*
D03*
X042294D02*
D03*
X043082D02*
D03*
X052728D02*
D03*
X053515D02*
D03*
X054302D02*
D03*
X05509D02*
D03*
X055877D02*
D03*
X056665D02*
D03*
X045247D02*
D03*
X046035D02*
D03*
X046822D02*
D03*
X047609D02*
D03*
X048397D02*
D03*
X049184D02*
D03*
X049972D02*
D03*
X054696Y034037D02*
D03*
X055483D02*
D03*
X056271D02*
D03*
X057058D02*
D03*
X057846D02*
D03*
X058633D02*
D03*
X047216D02*
D03*
X048003D02*
D03*
X048791D02*
D03*
X049578D02*
D03*
X050365D02*
D03*
X051153D02*
D03*
X039735D02*
D03*
X040523D02*
D03*
X04131D02*
D03*
X042098D02*
D03*
X042885D02*
D03*
X043672D02*
D03*
X04446D02*
D03*
X05942D02*
D03*
X05194D02*
D03*
D37*
X035995Y053722D02*
D03*
X05194D02*
D03*
X04446D02*
D03*
X053909Y034037D02*
D03*
X046428D02*
D03*
X038948D02*
D03*
D38*
X061386Y036013D02*
D03*
X075859Y040747D02*
D03*
X064048Y041928D02*
D03*
D39*
X049578Y04388D02*
D03*
Y044667D02*
D03*
X048791D02*
D03*
Y04388D02*
D03*
Y043093D02*
D03*
D40*
X049578D02*
D03*
D41*
X029442Y023961D02*
D03*
Y019237D02*
D03*
X024639D02*
D03*
Y023961D02*
D03*
X030249Y021599D02*
D03*
X037142Y030161D02*
D03*
Y025437D02*
D03*
X032339D02*
D03*
Y030161D02*
D03*
X037949Y027799D02*
D03*
X029442Y030161D02*
D03*
Y025437D02*
D03*
X024639D02*
D03*
Y030161D02*
D03*
X030249Y027799D02*
D03*
X044792Y030161D02*
D03*
Y025437D02*
D03*
X039989D02*
D03*
Y030161D02*
D03*
X045599Y027799D02*
D03*
X037142Y023961D02*
D03*
Y019237D02*
D03*
X032339D02*
D03*
Y023961D02*
D03*
X037949Y021599D02*
D03*
X044792Y023961D02*
D03*
Y019237D02*
D03*
X039989D02*
D03*
Y023961D02*
D03*
X045599Y021599D02*
D03*
X047484Y029211D02*
D03*
X050476D02*
D03*
X047484Y019211D02*
D03*
Y021211D02*
D03*
Y023211D02*
D03*
X050476Y019211D02*
D03*
Y021211D02*
D03*
Y023211D02*
D03*
X052534Y029211D02*
D03*
X055526D02*
D03*
X052534Y019211D02*
D03*
Y021211D02*
D03*
Y023211D02*
D03*
X055526Y019211D02*
D03*
Y021211D02*
D03*
Y023211D02*
D03*
X057584Y029211D02*
D03*
X060576D02*
D03*
X057584Y019211D02*
D03*
Y021211D02*
D03*
Y023211D02*
D03*
X060576Y019211D02*
D03*
Y021211D02*
D03*
Y023211D02*
D03*
X062634Y029211D02*
D03*
X065626D02*
D03*
X062634Y019211D02*
D03*
Y021211D02*
D03*
Y023211D02*
D03*
X065626Y019211D02*
D03*
Y021211D02*
D03*
Y023211D02*
D03*
X067734Y029211D02*
D03*
X070726D02*
D03*
X067734Y019211D02*
D03*
Y021211D02*
D03*
Y023211D02*
D03*
X070726Y019211D02*
D03*
Y021211D02*
D03*
Y023211D02*
D03*
X072784Y029211D02*
D03*
X075776D02*
D03*
X072784Y019211D02*
D03*
Y021211D02*
D03*
Y023211D02*
D03*
X075776Y019211D02*
D03*
Y021211D02*
D03*
Y023211D02*
D03*
M02*
