G04 Layer_Physical_Order=1*
G04 Layer_Color=255*
%FSTAX24Y24*%
%MOIN*%
G70*
G01*
G75*
%ADD10C,0.0100*%
%ADD11C,0.0200*%
%ADD12C,0.0150*%
%ADD13R,0.0598X0.0598*%
%ADD14C,0.0598*%
%ADD15C,0.0630*%
%ADD16R,0.0630X0.0630*%
%ADD17C,0.1181*%
%ADD18O,0.0630X0.0787*%
%ADD19R,0.0630X0.0787*%
%ADD20C,0.0120*%
%ADD21C,0.0240*%
G36*
X035827Y010236D02*
X010236D01*
Y022047D01*
X035827D01*
Y010236D01*
D02*
G37*
%LPC*%
G36*
X035039Y021954D02*
X034904Y02194D01*
X034774Y021901D01*
X034654Y021837D01*
X034549Y021751D01*
X034462Y021645D01*
X034398Y021525D01*
X034359Y021395D01*
X034345Y02126D01*
X034359Y021124D01*
X034398Y020994D01*
X034462Y020874D01*
X034549Y020769D01*
X034654Y020683D01*
X034774Y020619D01*
X034904Y020579D01*
X035039Y020566D01*
X035175Y020579D01*
X035305Y020619D01*
X035425Y020683D01*
X03553Y020769D01*
X035616Y020874D01*
X03568Y020994D01*
X03572Y021124D01*
X035733Y02126D01*
X03572Y021395D01*
X03568Y021525D01*
X035616Y021645D01*
X03553Y021751D01*
X035425Y021837D01*
X035305Y021901D01*
X035175Y02194D01*
X035039Y021954D01*
D02*
G37*
G36*
X011024D02*
X010888Y02194D01*
X010758Y021901D01*
X010638Y021837D01*
X010533Y021751D01*
X010447Y021645D01*
X010383Y021525D01*
X010343Y021395D01*
X01033Y02126D01*
X010343Y021124D01*
X010383Y020994D01*
X010447Y020874D01*
X010533Y020769D01*
X010638Y020683D01*
X010758Y020619D01*
X010888Y020579D01*
X011024Y020566D01*
X011159Y020579D01*
X011289Y020619D01*
X011409Y020683D01*
X011514Y020769D01*
X011601Y020874D01*
X011665Y020994D01*
X011704Y021124D01*
X011718Y02126D01*
X011704Y021395D01*
X011665Y021525D01*
X011601Y021645D01*
X011514Y021751D01*
X011409Y021837D01*
X011289Y021901D01*
X011159Y02194D01*
X011024Y021954D01*
D02*
G37*
G36*
X02595Y01961D02*
X025842Y019596D01*
X025741Y019554D01*
X025654Y019487D01*
X025588Y019401D01*
X025546Y0193D01*
X025531Y019191D01*
Y019034D01*
X025546Y018926D01*
X025588Y018825D01*
X025654Y018738D01*
X025741Y018671D01*
X025842Y01863D01*
X02595Y018615D01*
X026058Y01863D01*
X026159Y018671D01*
X026246Y018738D01*
X026312Y018825D01*
X026354Y018926D01*
X026369Y019034D01*
Y019191D01*
X026354Y0193D01*
X026312Y019401D01*
X026246Y019487D01*
X026159Y019554D01*
X026058Y019596D01*
X02595Y01961D01*
D02*
G37*
G36*
X02495D02*
X024842Y019596D01*
X024741Y019554D01*
X024654Y019487D01*
X024588Y019401D01*
X024546Y0193D01*
X024531Y019191D01*
Y019034D01*
X024546Y018926D01*
X024588Y018825D01*
X024654Y018738D01*
X024741Y018671D01*
X024842Y01863D01*
X02495Y018615D01*
X025058Y01863D01*
X025159Y018671D01*
X025246Y018738D01*
X025312Y018825D01*
X025354Y018926D01*
X025369Y019034D01*
Y019191D01*
X025354Y0193D01*
X025312Y019401D01*
X025246Y019487D01*
X025159Y019554D01*
X025058Y019596D01*
X02495Y01961D01*
D02*
G37*
G36*
X02395D02*
X023842Y019596D01*
X023741Y019554D01*
X023654Y019487D01*
X023588Y019401D01*
X023546Y0193D01*
X023531Y019191D01*
Y019034D01*
X023546Y018926D01*
X023588Y018825D01*
X023654Y018738D01*
X023741Y018671D01*
X023842Y01863D01*
X02395Y018615D01*
X024058Y01863D01*
X024159Y018671D01*
X024246Y018738D01*
X024312Y018825D01*
X024354Y018926D01*
X024369Y019034D01*
Y019191D01*
X024354Y0193D01*
X024312Y019401D01*
X024246Y019487D01*
X024159Y019554D01*
X024058Y019596D01*
X02395Y01961D01*
D02*
G37*
G36*
X02295D02*
X022842Y019596D01*
X022741Y019554D01*
X022654Y019487D01*
X022588Y019401D01*
X022546Y0193D01*
X022531Y019191D01*
Y019034D01*
X022546Y018926D01*
X022588Y018825D01*
X022654Y018738D01*
X022741Y018671D01*
X022842Y01863D01*
X02295Y018615D01*
X023058Y01863D01*
X023159Y018671D01*
X023246Y018738D01*
X023312Y018825D01*
X023354Y018926D01*
X023369Y019034D01*
Y019191D01*
X023354Y0193D01*
X023312Y019401D01*
X023246Y019487D01*
X023159Y019554D01*
X023058Y019596D01*
X02295Y01961D01*
D02*
G37*
G36*
X02195D02*
X021842Y019596D01*
X021741Y019554D01*
X021654Y019487D01*
X021588Y019401D01*
X021546Y0193D01*
X021531Y019191D01*
Y019034D01*
X021546Y018926D01*
X021588Y018825D01*
X021654Y018738D01*
X021741Y018671D01*
X021842Y01863D01*
X02195Y018615D01*
X022058Y01863D01*
X022159Y018671D01*
X022246Y018738D01*
X022312Y018825D01*
X022354Y018926D01*
X022369Y019034D01*
Y019191D01*
X022354Y0193D01*
X022312Y019401D01*
X022246Y019487D01*
X022159Y019554D01*
X022058Y019596D01*
X02195Y01961D01*
D02*
G37*
G36*
X02095D02*
X020842Y019596D01*
X020741Y019554D01*
X020654Y019487D01*
X020588Y019401D01*
X020546Y0193D01*
X020531Y019191D01*
Y019034D01*
X020546Y018926D01*
X020588Y018825D01*
X020654Y018738D01*
X020741Y018671D01*
X020842Y01863D01*
X02095Y018615D01*
X021058Y01863D01*
X021159Y018671D01*
X021246Y018738D01*
X021312Y018825D01*
X021354Y018926D01*
X021369Y019034D01*
Y019191D01*
X021354Y0193D01*
X021312Y019401D01*
X021246Y019487D01*
X021159Y019554D01*
X021058Y019596D01*
X02095Y01961D01*
D02*
G37*
G36*
X01995D02*
X019842Y019596D01*
X019741Y019554D01*
X019654Y019487D01*
X019588Y019401D01*
X019546Y0193D01*
X019531Y019191D01*
Y019034D01*
X019546Y018926D01*
X019588Y018825D01*
X019654Y018738D01*
X019741Y018671D01*
X019842Y01863D01*
X01995Y018615D01*
X020058Y01863D01*
X020159Y018671D01*
X020246Y018738D01*
X020312Y018825D01*
X020354Y018926D01*
X020369Y019034D01*
Y019191D01*
X020354Y0193D01*
X020312Y019401D01*
X020246Y019487D01*
X020159Y019554D01*
X020058Y019596D01*
X01995Y01961D01*
D02*
G37*
G36*
X011236Y018755D02*
X011128Y018741D01*
X011027Y018699D01*
X01094Y018632D01*
X010874Y018545D01*
X010832Y018445D01*
X010818Y018336D01*
X010832Y018228D01*
X010874Y018127D01*
X01094Y01804D01*
X011027Y017974D01*
X011128Y017932D01*
X011236Y017918D01*
X011345Y017932D01*
X011445Y017974D01*
X011532Y01804D01*
X011599Y018127D01*
X01164Y018228D01*
X011655Y018336D01*
X01164Y018445D01*
X011599Y018545D01*
X011532Y018632D01*
X011445Y018699D01*
X011345Y018741D01*
X011236Y018755D01*
D02*
G37*
G36*
X0187Y017976D02*
X018638Y017963D01*
X018585Y017928D01*
X018549Y017875D01*
X018537Y017813D01*
X018549Y01775D01*
X018585Y017697D01*
X018638Y017662D01*
X0187Y017649D01*
X018751Y01766D01*
X023637D01*
X023956Y017341D01*
X023985Y017297D01*
X024038Y017262D01*
X0241Y017249D01*
X024162Y017262D01*
X024215Y017297D01*
X024251Y01735D01*
X024263Y017413D01*
X024251Y017475D01*
X024215Y017528D01*
X024172Y017557D01*
X023808Y017921D01*
X023759Y017954D01*
X0237Y017966D01*
X018751D01*
X0187Y017976D01*
D02*
G37*
G36*
X011236Y017755D02*
X011128Y01774D01*
X011027Y017699D01*
X01094Y017632D01*
X010874Y017545D01*
X010832Y017445D01*
X010818Y017336D01*
X010832Y017228D01*
X010834Y017223D01*
X010492Y01688D01*
X010448Y016814D01*
X010432Y016736D01*
Y013536D01*
X010448Y013458D01*
X010492Y013392D01*
X013192Y010692D01*
X013258Y010648D01*
X013336Y010632D01*
X013336Y010632D01*
X013937D01*
Y010437D01*
X014735D01*
Y011235D01*
X013937D01*
Y01104D01*
X013421D01*
X01084Y013621D01*
Y014089D01*
X01089Y014106D01*
X01094Y01404D01*
X011027Y013974D01*
X011128Y013932D01*
X011236Y013918D01*
X011345Y013932D01*
X011445Y013974D01*
X011532Y01404D01*
X011599Y014127D01*
X01164Y014228D01*
X011655Y014336D01*
X01164Y014445D01*
X011599Y014545D01*
X011532Y014632D01*
X011445Y014699D01*
X011345Y014741D01*
X011236Y014755D01*
X011128Y014741D01*
X011027Y014699D01*
X01094Y014632D01*
X01089Y014567D01*
X01084Y014584D01*
Y015089D01*
X01089Y015106D01*
X01094Y01504D01*
X011027Y014974D01*
X011128Y014932D01*
X011236Y014918D01*
X011345Y014932D01*
X011445Y014974D01*
X011532Y01504D01*
X011599Y015127D01*
X01164Y015228D01*
X011655Y015336D01*
X01164Y015445D01*
X011599Y015545D01*
X011532Y015632D01*
X011445Y015699D01*
X011345Y01574D01*
X011236Y015755D01*
X011128Y01574D01*
X011027Y015699D01*
X01094Y015632D01*
X01089Y015567D01*
X01084Y015584D01*
Y016089D01*
X01089Y016106D01*
X01094Y01604D01*
X011027Y015974D01*
X011128Y015932D01*
X011236Y015918D01*
X011345Y015932D01*
X011445Y015974D01*
X011532Y01604D01*
X011599Y016127D01*
X01164Y016228D01*
X011655Y016336D01*
X01164Y016445D01*
X011599Y016545D01*
X011532Y016632D01*
X011445Y016699D01*
X011345Y01674D01*
X011236Y016755D01*
X011128Y01674D01*
X011027Y016699D01*
X01094Y016632D01*
X01089Y016567D01*
X01084Y016584D01*
Y016652D01*
X011123Y016934D01*
X011128Y016932D01*
X011236Y016918D01*
X011345Y016932D01*
X011445Y016974D01*
X011532Y01704D01*
X011599Y017127D01*
X01164Y017228D01*
X011655Y017336D01*
X01164Y017445D01*
X011599Y017545D01*
X011532Y017632D01*
X011445Y017699D01*
X011345Y01774D01*
X011236Y017755D01*
D02*
G37*
G36*
X0187Y017476D02*
X018638Y017463D01*
X018585Y017428D01*
X018549Y017375D01*
X018537Y017313D01*
X018549Y01725D01*
X018585Y017197D01*
X018638Y017162D01*
X0187Y017149D01*
X018751Y01716D01*
X019537D01*
X020792Y015904D01*
X020841Y015871D01*
X0209Y01586D01*
X022137D01*
X022781Y015216D01*
X02276Y015166D01*
X021133D01*
X021104Y015216D01*
X021113Y015263D01*
X021101Y015325D01*
X021065Y015378D01*
X021022Y015407D01*
X019508Y016921D01*
X019459Y016954D01*
X0194Y016966D01*
X018751D01*
X0187Y016976D01*
X018638Y016963D01*
X018585Y016928D01*
X018549Y016875D01*
X018537Y016813D01*
X018549Y01675D01*
X018585Y016697D01*
X018638Y016662D01*
X0187Y016649D01*
X018751Y01666D01*
X019337D01*
X020781Y015216D01*
X02076Y015166D01*
X017013D01*
X016294Y015884D01*
X016265Y015928D01*
X016212Y015963D01*
X01615Y015976D01*
X016088Y015963D01*
X016035Y015928D01*
X015999Y015875D01*
X015987Y015813D01*
X015999Y01575D01*
X016035Y015697D01*
X016078Y015668D01*
X016842Y014904D01*
X016891Y014871D01*
X01695Y01486D01*
X02575D01*
X025809Y014871D01*
X025858Y014904D01*
X026622Y015668D01*
X026665Y015697D01*
X026701Y01575D01*
X026713Y015813D01*
X026701Y015875D01*
X026665Y015928D01*
X026612Y015963D01*
X02655Y015976D01*
X026488Y015963D01*
X026435Y015928D01*
X026406Y015884D01*
X025687Y015166D01*
X023133D01*
X023104Y015216D01*
X023113Y015263D01*
X023101Y015325D01*
X023065Y015378D01*
X023022Y015407D01*
X022308Y016121D01*
X022259Y016154D01*
X0222Y016166D01*
X020963D01*
X019708Y017421D01*
X019659Y017454D01*
X0196Y017466D01*
X018751D01*
X0187Y017476D01*
D02*
G37*
G36*
X012236Y016755D02*
X012128Y01674D01*
X012027Y016699D01*
X01194Y016632D01*
X011874Y016545D01*
X011832Y016445D01*
X011818Y016336D01*
X011832Y016228D01*
X011874Y016127D01*
X01194Y01604D01*
X012027Y015974D01*
X012128Y015932D01*
X012236Y015918D01*
X012345Y015932D01*
X012401Y015955D01*
X012883Y015473D01*
Y014971D01*
X012837Y014952D01*
X012617Y015172D01*
X012641Y015228D01*
X012655Y015336D01*
X012641Y015445D01*
X012599Y015545D01*
X012532Y015632D01*
X012445Y015699D01*
X012345Y01574D01*
X012236Y015755D01*
X012128Y01574D01*
X012027Y015699D01*
X01194Y015632D01*
X011874Y015545D01*
X011832Y015445D01*
X011818Y015336D01*
X011832Y015228D01*
X011874Y015127D01*
X01194Y01504D01*
X012027Y014974D01*
X012128Y014932D01*
X012236Y014918D01*
X012345Y014932D01*
X012401Y014955D01*
X012683Y014673D01*
Y014472D01*
X012633Y014462D01*
X012599Y014545D01*
X012532Y014632D01*
X012445Y014699D01*
X012345Y014741D01*
X012236Y014755D01*
X012128Y014741D01*
X012027Y014699D01*
X01194Y014632D01*
X011874Y014545D01*
X011832Y014445D01*
X011818Y014336D01*
X011832Y014228D01*
X011874Y014127D01*
X01194Y01404D01*
X012027Y013974D01*
X012128Y013932D01*
X012236Y013918D01*
X012345Y013932D01*
X012401Y013955D01*
X012483Y013873D01*
Y012736D01*
X012495Y012678D01*
X012528Y012628D01*
X013428Y011728D01*
X013478Y011695D01*
X013536Y011683D01*
X015273D01*
X015967Y010989D01*
X015947Y01094D01*
X015933Y010836D01*
X015947Y010732D01*
X015987Y010635D01*
X016051Y010552D01*
X016135Y010488D01*
X016232Y010447D01*
X016336Y010434D01*
X01644Y010447D01*
X016537Y010488D01*
X016621Y010552D01*
X016685Y010635D01*
X016725Y010732D01*
X016739Y010836D01*
X016725Y01094D01*
X016685Y011038D01*
X016621Y011121D01*
X016537Y011185D01*
X01644Y011225D01*
X016336Y011239D01*
X016232Y011225D01*
X016183Y011205D01*
X015552Y011837D01*
X015571Y011883D01*
X016073D01*
X016967Y010989D01*
X016947Y01094D01*
X016933Y010836D01*
X016947Y010732D01*
X016987Y010635D01*
X017051Y010552D01*
X017135Y010488D01*
X017232Y010447D01*
X017336Y010434D01*
X01744Y010447D01*
X017537Y010488D01*
X017621Y010552D01*
X017685Y010635D01*
X017725Y010732D01*
X017739Y010836D01*
X017725Y01094D01*
X017685Y011038D01*
X017621Y011121D01*
X017537Y011185D01*
X01744Y011225D01*
X017336Y011239D01*
X017232Y011225D01*
X017183Y011205D01*
X016352Y012037D01*
X016371Y012083D01*
X016873D01*
X017967Y010989D01*
X017947Y01094D01*
X017933Y010836D01*
X017947Y010732D01*
X017987Y010635D01*
X018051Y010552D01*
X018135Y010488D01*
X018232Y010447D01*
X018336Y010434D01*
X01844Y010447D01*
X018537Y010488D01*
X018621Y010552D01*
X018685Y010635D01*
X018725Y010732D01*
X018739Y010836D01*
X018725Y01094D01*
X018685Y011038D01*
X018621Y011121D01*
X018537Y011185D01*
X01844Y011225D01*
X018336Y011239D01*
X018232Y011225D01*
X018183Y011205D01*
X017044Y012344D01*
X016995Y012378D01*
X016936Y012389D01*
X013832D01*
X013189Y013032D01*
Y015536D01*
X013178Y015595D01*
X013144Y015644D01*
X012617Y016172D01*
X012641Y016228D01*
X012655Y016336D01*
X012641Y016445D01*
X012599Y016545D01*
X012532Y016632D01*
X012445Y016699D01*
X012345Y01674D01*
X012236Y016755D01*
D02*
G37*
G36*
X02655Y015426D02*
X026488Y015413D01*
X026435Y015378D01*
X026406Y015335D01*
X025687Y014616D01*
X017013D01*
X016294Y015335D01*
X016265Y015378D01*
X016212Y015413D01*
X01615Y015426D01*
X016088Y015413D01*
X016035Y015378D01*
X015999Y015325D01*
X015987Y015263D01*
X015999Y0152D01*
X016035Y015147D01*
X016078Y015118D01*
X016842Y014354D01*
X016891Y014321D01*
X01695Y01431D01*
X02575D01*
X025809Y014321D01*
X025858Y014354D01*
X026622Y015118D01*
X026665Y015147D01*
X026701Y0152D01*
X026713Y015263D01*
X026701Y015325D01*
X026665Y015378D01*
X026612Y015413D01*
X02655Y015426D01*
D02*
G37*
G36*
X0143Y018987D02*
X014214Y01897D01*
X014141Y018921D01*
X014093Y018848D01*
X014076Y018763D01*
X014093Y018677D01*
X014122Y018634D01*
Y018363D01*
Y014942D01*
X014093Y014898D01*
X014076Y014813D01*
X014093Y014727D01*
X014141Y014654D01*
X014214Y014605D01*
X0143Y014588D01*
X014386Y014605D01*
X014459Y014654D01*
X014507Y014727D01*
X014524Y014813D01*
X014507Y014898D01*
X014478Y014942D01*
Y018184D01*
X027022D01*
Y014942D01*
X026993Y014898D01*
X026976Y014813D01*
X026993Y014727D01*
X027041Y014654D01*
X027114Y014605D01*
X0272Y014588D01*
X027286Y014605D01*
X027359Y014654D01*
X027407Y014727D01*
X027424Y014813D01*
X027407Y014898D01*
X027378Y014942D01*
Y018234D01*
X027407Y018277D01*
X027424Y018363D01*
X027407Y018448D01*
X027359Y018521D01*
X027286Y01857D01*
X0272Y018587D01*
X027114Y01857D01*
X027071Y018541D01*
X014478D01*
Y018634D01*
X014507Y018677D01*
X014524Y018763D01*
X014507Y018848D01*
X014459Y018921D01*
X014386Y01897D01*
X0143Y018987D01*
D02*
G37*
G36*
X02925Y016976D02*
X029188Y016963D01*
X029135Y016928D01*
X029099Y016875D01*
X029087Y016813D01*
X029097Y016761D01*
Y015576D01*
X027587Y014066D01*
X016613D01*
X016294Y014384D01*
X016265Y014428D01*
X016212Y014463D01*
X01615Y014476D01*
X016088Y014463D01*
X016035Y014428D01*
X015999Y014375D01*
X015987Y014313D01*
X015999Y01425D01*
X016035Y014197D01*
X016078Y014168D01*
X016442Y013804D01*
X016491Y013771D01*
X01655Y01376D01*
X02765D01*
X027709Y013771D01*
X027758Y013804D01*
X029358Y015404D01*
X029391Y015454D01*
X029403Y015513D01*
Y016761D01*
X029413Y016813D01*
X029401Y016875D01*
X029365Y016928D01*
X029312Y016963D01*
X02925Y016976D01*
D02*
G37*
G36*
X020365Y013606D02*
X019535D01*
Y012619D01*
X020365D01*
Y013606D01*
D02*
G37*
G36*
X02595Y01361D02*
X025842Y013596D01*
X025741Y013554D01*
X025654Y013487D01*
X025588Y013401D01*
X025546Y0133D01*
X025531Y013191D01*
Y013034D01*
X025546Y012926D01*
X025588Y012825D01*
X025654Y012738D01*
X025741Y012671D01*
X025842Y01263D01*
X02595Y012615D01*
X026058Y01263D01*
X026159Y012671D01*
X026246Y012738D01*
X026312Y012825D01*
X026354Y012926D01*
X026369Y013034D01*
Y013191D01*
X026354Y0133D01*
X026312Y013401D01*
X026246Y013487D01*
X026159Y013554D01*
X026058Y013596D01*
X02595Y01361D01*
D02*
G37*
G36*
X02495D02*
X024842Y013596D01*
X024741Y013554D01*
X024654Y013487D01*
X024588Y013401D01*
X024546Y0133D01*
X024531Y013191D01*
Y013034D01*
X024546Y012926D01*
X024588Y012825D01*
X024654Y012738D01*
X024741Y012671D01*
X024842Y01263D01*
X02495Y012615D01*
X025058Y01263D01*
X025159Y012671D01*
X025246Y012738D01*
X025312Y012825D01*
X025354Y012926D01*
X025369Y013034D01*
Y013191D01*
X025354Y0133D01*
X025312Y013401D01*
X025246Y013487D01*
X025159Y013554D01*
X025058Y013596D01*
X02495Y01361D01*
D02*
G37*
G36*
X02395D02*
X023842Y013596D01*
X023741Y013554D01*
X023654Y013487D01*
X023588Y013401D01*
X023546Y0133D01*
X023531Y013191D01*
Y013034D01*
X023546Y012926D01*
X023588Y012825D01*
X023654Y012738D01*
X023741Y012671D01*
X023842Y01263D01*
X02395Y012615D01*
X024058Y01263D01*
X024159Y012671D01*
X024246Y012738D01*
X024312Y012825D01*
X024354Y012926D01*
X024369Y013034D01*
Y013191D01*
X024354Y0133D01*
X024312Y013401D01*
X024246Y013487D01*
X024159Y013554D01*
X024058Y013596D01*
X02395Y01361D01*
D02*
G37*
G36*
X02295D02*
X022842Y013596D01*
X022741Y013554D01*
X022654Y013487D01*
X022588Y013401D01*
X022546Y0133D01*
X022531Y013191D01*
Y013034D01*
X022546Y012926D01*
X022588Y012825D01*
X022654Y012738D01*
X022741Y012671D01*
X022842Y01263D01*
X02295Y012615D01*
X023058Y01263D01*
X023159Y012671D01*
X023246Y012738D01*
X023312Y012825D01*
X023354Y012926D01*
X023369Y013034D01*
Y013191D01*
X023354Y0133D01*
X023312Y013401D01*
X023246Y013487D01*
X023159Y013554D01*
X023058Y013596D01*
X02295Y01361D01*
D02*
G37*
G36*
X02195D02*
X021842Y013596D01*
X021741Y013554D01*
X021654Y013487D01*
X021588Y013401D01*
X021546Y0133D01*
X021531Y013191D01*
Y013034D01*
X021546Y012926D01*
X021588Y012825D01*
X021654Y012738D01*
X021741Y012671D01*
X021842Y01263D01*
X02195Y012615D01*
X022058Y01263D01*
X022159Y012671D01*
X022246Y012738D01*
X022312Y012825D01*
X022354Y012926D01*
X022369Y013034D01*
Y013191D01*
X022354Y0133D01*
X022312Y013401D01*
X022246Y013487D01*
X022159Y013554D01*
X022058Y013596D01*
X02195Y01361D01*
D02*
G37*
G36*
X02095D02*
X020842Y013596D01*
X020741Y013554D01*
X020654Y013487D01*
X020588Y013401D01*
X020546Y0133D01*
X020531Y013191D01*
Y013034D01*
X020546Y012926D01*
X020588Y012825D01*
X020654Y012738D01*
X020741Y012671D01*
X020842Y01263D01*
X02095Y012615D01*
X021058Y01263D01*
X021159Y012671D01*
X021246Y012738D01*
X021312Y012825D01*
X021354Y012926D01*
X021369Y013034D01*
Y013191D01*
X021354Y0133D01*
X021312Y013401D01*
X021246Y013487D01*
X021159Y013554D01*
X021058Y013596D01*
X02095Y01361D01*
D02*
G37*
G36*
X035039Y011718D02*
X034904Y011704D01*
X034774Y011665D01*
X034654Y011601D01*
X034549Y011514D01*
X034462Y011409D01*
X034398Y011289D01*
X034359Y011159D01*
X034345Y011024D01*
X034359Y010888D01*
X034398Y010758D01*
X034462Y010638D01*
X034549Y010533D01*
X034654Y010447D01*
X034774Y010383D01*
X034904Y010343D01*
X035039Y01033D01*
X035175Y010343D01*
X035305Y010383D01*
X035425Y010447D01*
X03553Y010533D01*
X035616Y010638D01*
X03568Y010758D01*
X03572Y010888D01*
X035733Y011024D01*
X03572Y011159D01*
X03568Y011289D01*
X035616Y011409D01*
X03553Y011514D01*
X035425Y011601D01*
X035305Y011665D01*
X035175Y011704D01*
X035039Y011718D01*
D02*
G37*
G36*
X011024D02*
X010888Y011704D01*
X010758Y011665D01*
X010638Y011601D01*
X010533Y011514D01*
X010447Y011409D01*
X010383Y011289D01*
X010343Y011159D01*
X01033Y011024D01*
X010343Y010888D01*
X010383Y010758D01*
X010447Y010638D01*
X010533Y010533D01*
X010638Y010447D01*
X010758Y010383D01*
X010888Y010343D01*
X011024Y01033D01*
X011159Y010343D01*
X011289Y010383D01*
X011409Y010447D01*
X011514Y010533D01*
X011601Y010638D01*
X011665Y010758D01*
X011704Y010888D01*
X011718Y011024D01*
X011704Y011159D01*
X011665Y011289D01*
X011601Y011409D01*
X011514Y011514D01*
X011409Y011601D01*
X011289Y011665D01*
X011159Y011704D01*
X011024Y011718D01*
D02*
G37*
%LPD*%
D10*
X012236Y014336D02*
X012636Y013936D01*
Y012736D02*
Y013936D01*
Y012736D02*
X013536Y011836D01*
X016936Y012236D02*
X018336Y010836D01*
X013769Y012236D02*
X016936D01*
X013036Y012969D02*
X013769Y012236D01*
X013036Y012969D02*
Y015536D01*
X012236Y016336D02*
X013036Y015536D01*
X016136Y012036D02*
X017336Y010836D01*
X013686Y012036D02*
X016136D01*
X012836Y012886D02*
X013686Y012036D01*
X012836Y012886D02*
Y014736D01*
X012236Y015336D02*
X012836Y014736D01*
X015336Y011836D02*
X016336Y010836D01*
X013536Y011836D02*
X015336D01*
X0187Y016813D02*
X0194D01*
X02095Y015263D01*
X0187Y017313D02*
X0196D01*
X0209Y016013D01*
X0222D01*
X02295Y015263D01*
X01615Y015813D02*
X01695Y015013D01*
X01615Y015263D02*
X01695Y014463D01*
X01615Y014313D02*
X01655Y013913D01*
X0187Y017813D02*
X0237D01*
X0241Y017413D01*
X01695Y015013D02*
X02575D01*
X02655Y015813D01*
X01695Y014463D02*
X02575D01*
X02655Y015263D01*
X01655Y013913D02*
X02765D01*
X02925Y015513D01*
Y016813D01*
D11*
X013336Y010836D02*
X014336D01*
X010636Y013536D02*
X013336Y010836D01*
X010636Y013536D02*
Y016736D01*
X011236Y017336D01*
D12*
X0272Y014813D02*
Y018363D01*
X0143D02*
X0272D01*
X0143Y014813D02*
Y018363D01*
Y018763D01*
D13*
X014336Y010836D02*
D03*
D14*
X015336D02*
D03*
X016336D02*
D03*
X017336D02*
D03*
X018336D02*
D03*
D15*
X011236Y018336D02*
D03*
Y017336D02*
D03*
Y016336D02*
D03*
Y015336D02*
D03*
Y014336D02*
D03*
X012236D02*
D03*
Y015336D02*
D03*
Y016336D02*
D03*
Y017336D02*
D03*
D16*
Y018336D02*
D03*
D17*
X035039Y02126D02*
D03*
Y011024D02*
D03*
X011024Y02126D02*
D03*
Y011024D02*
D03*
D18*
X01995Y019113D02*
D03*
X02095D02*
D03*
X02195D02*
D03*
X02295D02*
D03*
X02395D02*
D03*
X02495D02*
D03*
X02095Y013113D02*
D03*
X02195D02*
D03*
X02295D02*
D03*
X02395D02*
D03*
X02495D02*
D03*
X02595D02*
D03*
Y019113D02*
D03*
D19*
X01995Y013113D02*
D03*
D20*
X0187Y016813D02*
D03*
X02095Y015263D02*
D03*
X0187Y017313D02*
D03*
X02295Y015263D02*
D03*
X01615Y015813D02*
D03*
Y015263D02*
D03*
Y014313D02*
D03*
X02925Y016813D02*
D03*
X0187Y017813D02*
D03*
X0241Y017413D02*
D03*
X02655Y015813D02*
D03*
Y015263D02*
D03*
D21*
X0272Y018363D02*
D03*
Y014813D02*
D03*
X0143D02*
D03*
Y018763D02*
D03*
M02*
