G04 Layer_Color=32768*
%FSTAX24Y24*%
%MOIN*%
G70*
G01*
G75*
%ADD43C,0.0039*%
D43*
X021753Y014363D02*
X022147D01*
X02195Y014166D02*
Y014559D01*
X022442Y013496D02*
Y015229D01*
X021458Y013496D02*
Y015229D01*
Y013496D02*
X022442D01*
X021458Y015229D02*
X022442D01*
X019753Y014363D02*
X020147D01*
X01995Y014166D02*
Y014559D01*
X020442Y013496D02*
Y015229D01*
X019458Y013496D02*
Y015229D01*
Y013496D02*
X020442D01*
X019458Y015229D02*
X020442D01*
X020753Y014363D02*
X021147D01*
X02095Y014166D02*
Y014559D01*
X021442Y013496D02*
Y015229D01*
X020458Y013496D02*
Y015229D01*
Y013496D02*
X021442D01*
X020458Y015229D02*
X021442D01*
X022753Y014363D02*
X023147D01*
X02295Y014166D02*
Y014559D01*
X023442Y013496D02*
Y015229D01*
X022458Y013496D02*
Y015229D01*
Y013496D02*
X023442D01*
X022458Y015229D02*
X023442D01*
X020753Y017813D02*
X021147D01*
X02095Y017616D02*
Y018009D01*
X020458Y016946D02*
Y018679D01*
X021442Y016946D02*
Y018679D01*
X020458D02*
X021442D01*
X020458Y016946D02*
X021442D01*
X021753Y017813D02*
X022147D01*
X02195Y017616D02*
Y018009D01*
X021458Y016946D02*
Y018679D01*
X022442Y016946D02*
Y018679D01*
X021458D02*
X022442D01*
X021458Y016946D02*
X022442D01*
X024753Y017813D02*
X025147D01*
X02495Y017616D02*
Y018009D01*
X024458Y016946D02*
Y018679D01*
X025442Y016946D02*
Y018679D01*
X024458D02*
X025442D01*
X024458Y016946D02*
X025442D01*
X025753Y017813D02*
X026147D01*
X02595Y017616D02*
Y018009D01*
X025458Y016946D02*
Y018679D01*
X026442Y016946D02*
Y018679D01*
X025458D02*
X026442D01*
X025458Y016946D02*
X026442D01*
X023753Y014363D02*
X024147D01*
X02395Y014166D02*
Y014559D01*
X024442Y013496D02*
Y015229D01*
X023458Y013496D02*
Y015229D01*
Y013496D02*
X024442D01*
X023458Y015229D02*
X024442D01*
X01645Y015866D02*
Y016259D01*
X016253Y016063D02*
X016647D01*
X014482Y013996D02*
X018419D01*
X014482Y01813D02*
X018419D01*
X014482Y013996D02*
Y01813D01*
X018419Y013996D02*
Y01813D01*
X014834Y018251D02*
Y019274D01*
X016566Y018251D02*
Y019274D01*
X014834Y018251D02*
X016566D01*
X014834Y019274D02*
X016566D01*
X015503Y018763D02*
X015897D01*
X0157Y018566D02*
Y018959D01*
X02945Y015866D02*
Y016259D01*
X029253Y016063D02*
X029647D01*
X027482Y013996D02*
X031418D01*
X027482Y01813D02*
X031418D01*
X027482Y013996D02*
Y01813D01*
X031418Y013996D02*
Y01813D01*
X027834Y018251D02*
Y019274D01*
X029566Y018251D02*
Y019274D01*
X027834Y018251D02*
X029566D01*
X027834Y019274D02*
X029566D01*
X028503Y018763D02*
X028897D01*
X0287Y018566D02*
Y018959D01*
M02*
