G04 Layer_Color=128*
%FSTAX24Y24*%
%MOIN*%
G70*
G01*
G75*
%ADD44C,0.0020*%
D44*
X014135Y010836D02*
X014537D01*
X014336Y010635D02*
Y011037D01*
X015135Y010836D02*
X015537D01*
X015336Y010635D02*
Y011037D01*
X016135Y010836D02*
X016537D01*
X016336Y010635D02*
Y011037D01*
X017135Y010836D02*
X017537D01*
X017336Y010635D02*
Y011037D01*
X018135Y010836D02*
X018537D01*
X018336Y010635D02*
Y011037D01*
X01102Y018336D02*
X011453D01*
X011236Y01812D02*
Y018553D01*
X01102Y017336D02*
X011453D01*
X011236Y01712D02*
Y017553D01*
X01102Y016336D02*
X011453D01*
X011236Y01612D02*
Y016553D01*
X01102Y015336D02*
X011453D01*
X011236Y01512D02*
Y015553D01*
X01102Y014336D02*
X011453D01*
X011236Y01412D02*
Y014553D01*
X01202Y014336D02*
X012453D01*
X012236Y01412D02*
Y014553D01*
X01202Y015336D02*
X012453D01*
X012236Y01512D02*
Y015553D01*
X01202Y016336D02*
X012453D01*
X012236Y01612D02*
Y016553D01*
X01202Y017336D02*
X012453D01*
X012236Y01712D02*
Y017553D01*
X01202Y018336D02*
X012453D01*
X012236Y01812D02*
Y018553D01*
X034606Y02126D02*
X035472D01*
X035039Y020827D02*
Y021693D01*
X034606Y011024D02*
X035472D01*
X035039Y010591D02*
Y011457D01*
X010591Y02126D02*
X011457D01*
X011024Y020827D02*
Y021693D01*
X010591Y011024D02*
X011457D01*
X011024Y010591D02*
Y011457D01*
X019753Y019113D02*
X020147D01*
X01995Y018916D02*
Y019309D01*
X020753Y019113D02*
X021147D01*
X02095Y018916D02*
Y019309D01*
X021753Y019113D02*
X022147D01*
X02195Y018916D02*
Y019309D01*
X022753Y019113D02*
X023147D01*
X02295Y018916D02*
Y019309D01*
X023753Y019113D02*
X024147D01*
X02395Y018916D02*
Y019309D01*
X024753Y019113D02*
X025147D01*
X02495Y018916D02*
Y019309D01*
X019753Y013113D02*
X020147D01*
X01995Y012916D02*
Y013309D01*
X020753Y013113D02*
X021147D01*
X02095Y012916D02*
Y013309D01*
X021753Y013113D02*
X022147D01*
X02195Y012916D02*
Y013309D01*
X022753Y013113D02*
X023147D01*
X02295Y012916D02*
Y013309D01*
X023753Y013113D02*
X024147D01*
X02395Y012916D02*
Y013309D01*
X024753Y013113D02*
X025147D01*
X02495Y012916D02*
Y013309D01*
X025753Y013113D02*
X026147D01*
X02595Y012916D02*
Y013309D01*
X025753Y019113D02*
X026147D01*
X02595Y018916D02*
Y019309D01*
X01867Y016813D02*
X01873D01*
X0187Y016783D02*
Y016843D01*
X02092Y015263D02*
X02098D01*
X02095Y015233D02*
Y015293D01*
X01867Y017313D02*
X01873D01*
X0187Y017283D02*
Y017343D01*
X02292Y015263D02*
X02298D01*
X02295Y015233D02*
Y015293D01*
X01612Y015813D02*
X01618D01*
X01615Y015783D02*
Y015843D01*
X01612Y015263D02*
X01618D01*
X01615Y015233D02*
Y015293D01*
X01612Y014313D02*
X01618D01*
X01615Y014283D02*
Y014343D01*
X02922Y016813D02*
X02928D01*
X02925Y016783D02*
Y016843D01*
X01867Y017813D02*
X01873D01*
X0187Y017783D02*
Y017843D01*
X02407Y017413D02*
X02413D01*
X0241Y017383D02*
Y017443D01*
X02714Y018363D02*
X02726D01*
X0272Y018303D02*
Y018423D01*
X02652Y015813D02*
X02658D01*
X02655Y015783D02*
Y015843D01*
X02652Y015263D02*
X02658D01*
X02655Y015233D02*
Y015293D01*
X02714Y014813D02*
X02726D01*
X0272Y014753D02*
Y014873D01*
X01424Y014813D02*
X01436D01*
X0143Y014753D02*
Y014873D01*
X01424Y018763D02*
X01436D01*
X0143Y018703D02*
Y018823D01*
M02*
