G04 Layer_Color=16711935*
%FSTAX24Y24*%
%MOIN*%
G70*
G01*
G75*
%ADD43C,0.0039*%
D43*
X01706Y017657D02*
G03*
X01706Y017657I-000197J0D01*
G01*
X03006D02*
G03*
X03006Y017657I-000197J0D01*
G01*
X022226Y013939D02*
Y014786D01*
X021674Y013939D02*
Y014786D01*
Y013939D02*
X022226D01*
X021674Y014786D02*
X022226D01*
X020226Y013939D02*
Y014786D01*
X019674Y013939D02*
Y014786D01*
Y013939D02*
X020226D01*
X019674Y014786D02*
X020226D01*
X021226Y013939D02*
Y014786D01*
X020674Y013939D02*
Y014786D01*
Y013939D02*
X021226D01*
X020674Y014786D02*
X021226D01*
X023226Y013939D02*
Y014786D01*
X022674Y013939D02*
Y014786D01*
Y013939D02*
X023226D01*
X022674Y014786D02*
X023226D01*
X020674Y017389D02*
Y018236D01*
X021226Y017389D02*
Y018236D01*
X020674D02*
X021226D01*
X020674Y017389D02*
X021226D01*
X021674D02*
Y018236D01*
X022226Y017389D02*
Y018236D01*
X021674D02*
X022226D01*
X021674Y017389D02*
X022226D01*
X024674D02*
Y018236D01*
X025226Y017389D02*
Y018236D01*
X024674D02*
X025226D01*
X024674Y017389D02*
X025226D01*
X025674D02*
Y018236D01*
X026226Y017389D02*
Y018236D01*
X025674D02*
X026226D01*
X025674Y017389D02*
X026226D01*
X024226Y013939D02*
Y014786D01*
X023674Y013939D02*
Y014786D01*
Y013939D02*
X024226D01*
X023674Y014786D02*
X024226D01*
X015663Y014094D02*
X017237D01*
X015663Y018031D02*
X017237D01*
X015663Y014094D02*
Y018031D01*
X017237Y014094D02*
Y018031D01*
X015267Y018477D02*
Y019048D01*
X016133Y018477D02*
Y019048D01*
X015267Y018477D02*
X016133D01*
X015267Y019048D02*
X016133D01*
X028663Y014094D02*
X030237D01*
X028663Y018031D02*
X030237D01*
X028663Y014094D02*
Y018031D01*
X030237Y014094D02*
Y018031D01*
X028267Y018477D02*
Y019048D01*
X029133Y018477D02*
Y019048D01*
X028267Y018477D02*
X029133D01*
X028267Y019048D02*
X029133D01*
M02*
