M48
;Layer_Color=9474304
;FILE_FORMAT=2:4
INCH,LZ
;TYPE=PLATED
T1F00S00C0.0060
T2F00S00C0.0120
T3F00S00C0.0394
T4F00S00C0.0402
T5F00S00C0.0433
T6F00S00C0.0866
%
T01
X01615Y014313
Y015263
X02095
X02295
X02655
Y015813
X02925Y016813
X0241Y017413
X0187Y017313
Y016813
Y017813
X01615Y015813
T02
X0143Y014813
X0272
Y018363
X0143Y018763
T03
X01995Y013113
X02095
X02195
X02295
X02395
X02495
X02595
Y019113
X02495
X02395
X02295
X02195
X02095
X01995
T04
X014336Y010836
X015336
X016336
X017336
X018336
T05
X011236Y014336
Y015336
X012236
Y014336
Y016336
X011236
Y017336
Y018336
X012236
Y017336
T06
X011024Y011024
X035039
Y02126
X011024
M30
